<svg xmlns="http://www.w3.org/2000/svg" xmlns:xlink="http://www.w3.org/1999/xlink" width="146" height="34" viewBox="0 0 146 34">
    <defs>
        <linearGradient id="b" x1="30.465%" x2="80.541%" y1="5.679%" y2="100%">
            <stop offset="0%" stop-color="#6CF"/>
            <stop offset="100%" stop-color="#2583BA"/>
        </linearGradient>
        <linearGradient id="c" x1="24.466%" x2="92.029%" y1="0%" y2="94.549%">
            <stop offset="0%" stop-color="#89F4FF"/>
            <stop offset="100%" stop-color="#9E91FF"/>
        </linearGradient>
        <path id="a" d="M33.502 22.03l.064-.152h4.25l-.103.321C35.45 29.258 28.972 34 21.595 34 13.76 34 7.029 28.696 5.157 21.075H0l1.13-3.315h3.547a16.12 16.12 0 0 1-.02-.76c0-.756.051-1.52.152-2.273H0l1.13-3.314h4.472C7.974 4.578 14.379 0 21.595 0c7.02.01 13.209 4.26 15.765 10.827l.13.335h-4.364l-.07-.134C30.249 5.584 24.16 2.88 18.265 4.454c-5.903 1.572-9.852 6.95-9.604 13.08.248 6.126 4.618 11.166 10.627 12.253 6.008 1.09 11.854-2.104 14.215-7.757zm-3.243-7.437H39l-1.07 3.314h-7.666a2.717 2.717 0 0 1-3.01.968 2.73 2.73 0 0 1-1.917-2.654 2.732 2.732 0 0 1 1.977-2.608 2.723 2.723 0 0 1 2.945.98z"/>
    </defs>
    <g fill="none" fill-rule="evenodd">
        <use fill="#87CBFF" xlink:href="#a"/>
        <use fill="url(#b)" xlink:href="#a"/>
        <use fill="url(#c)" style="mix-blend-mode:soft-light" xlink:href="#a"/>
        <path fill="#FFF" d="M62.561 8.747l-1.35 2.627c-.733-.708-1.912-1.063-3.536-1.063-1.54 0-2.803.625-3.788 1.876-.985 1.25-1.478 2.832-1.478 4.747 0 1.914.457 3.433 1.37 4.557.914 1.124 2.132 1.686 3.656 1.686 1.742 0 3.106-.602 4.09-1.808l1.529 2.566C61.715 25.312 59.754 26 57.17 26c-2.585 0-4.592-.823-6.023-2.468C49.716 21.886 49 19.642 49 16.799c0-2.647.793-4.86 2.38-6.64 1.587-1.78 3.618-2.67 6.093-2.67 2.121 0 3.817.42 5.088 1.258zm2.071 10.374c0-1.996.596-3.62 1.787-4.875 1.191-1.255 2.763-1.882 4.716-1.882 2.054 0 3.65.603 4.786 1.808 1.136 1.206 1.704 2.855 1.704 4.949 0 2.085-.579 3.743-1.736 4.973s-2.742 1.845-4.754 1.845c-2.054 0-3.651-.621-4.792-1.863-1.14-1.243-1.71-2.894-1.71-4.955zm3.283 0c0 2.884 1.073 4.325 3.22 4.325.985 0 1.766-.374 2.342-1.124.577-.75.865-1.816.865-3.201 0-2.843-1.069-4.264-3.207-4.264-.985 0-1.768.374-2.349 1.124-.58.75-.87 1.796-.87 3.14zm13.082 6.574V15.113h-1.73v-2.505h4.924v13.087h-3.194zm15.569 0V18.13c0-1.116-.221-1.93-.663-2.444-.442-.513-1.164-.77-2.166-.77-.463 0-.957.127-1.483.38-.527.252-.937.566-1.232.94v9.458h-3.156V12.608h2.273l.58 1.222c.859-.977 2.126-1.466 3.801-1.466 1.608 0 2.877.466 3.807 1.399.93.933 1.395 2.234 1.395 3.904v8.028h-3.156zm15.316 0V17.63c0-.806-.26-1.454-.783-1.943-.522-.488-1.204-.733-2.045-.733-.522 0-1.048.137-1.579.41-.53.273-.909.584-1.136.934v9.397h-3.207V7.733L106.339 7v6.44c.816-.718 1.94-1.076 3.371-1.076 1.692 0 3.005.454 3.94 1.362.934.909 1.401 2.21 1.401 3.904v8.065h-3.169zm15.291.012v-1.1c-.446.367-1.06.68-1.843.94-.783.262-1.503.392-2.16.392-3.14 0-4.71-1.613-4.71-4.839v-8.492h3.157v8.26c0 1.678.78 2.517 2.336 2.517.716 0 1.38-.179 1.995-.537.615-.359 1.023-.774 1.225-1.247v-8.993h3.157v13.099h-3.157zm8.801-.733l-.707.965h-1.78V7.733L136.643 7v6.11a5.318 5.318 0 0 1 2.753-.746c1.978 0 3.574.605 4.786 1.814 1.212 1.21 1.818 2.76 1.818 4.65 0 2.19-.61 3.924-1.83 5.199-1.222 1.275-2.876 1.912-4.963 1.912-1.255 0-2.332-.322-3.233-.965zm.67-9.25v6.83c.462.53 1.09.795 1.88.795 1.525 0 2.604-.35 3.24-1.051.635-.7.953-1.82.953-3.36 0-2.656-1.313-3.984-3.94-3.984-.934 0-1.645.257-2.134.77z"/>
    </g>
</svg>
