<svg xmlns="http://www.w3.org/2000/svg" xmlns:xlink="http://www.w3.org/1999/xlink" width="133" height="30" viewBox="0 0 133 30">
    <defs>
        <path id="a" d="M12.133.566v17.088H.282V.566z"/>
        <path id="c" d="M32.831 0H0v30h32.831V0z"/>
    </defs>
    <g fill="none" fill-rule="evenodd">
        <path fill="#FFF" d="M53.545 9.156l-1.25 2.412c-.678-.65-1.768-.976-3.27-.976-1.425 0-2.593.574-3.504 1.722-.912 1.15-1.367 2.603-1.367 4.36 0 1.758.422 3.153 1.267 4.185.845 1.033 1.971 1.549 3.382 1.549 1.611 0 2.873-.553 3.784-1.66L54 23.104C52.762 24.368 50.948 25 48.557 25c-2.39 0-4.247-.755-5.571-2.266C41.662 21.222 41 19.161 41 16.551c0-2.432.734-4.465 2.202-6.1C44.669 8.818 46.548 8 48.837 8c1.963 0 3.532.385 4.708 1.156M59.032 17.973c0 2.55.992 3.824 2.974 3.824.91 0 1.63-.332 2.163-.994.532-.663.799-1.606.799-2.83 0-2.513-.987-3.77-2.962-3.77-.91 0-1.632.332-2.17.994-.536.662-.804 1.588-.804 2.776m-3.032 0c0-1.765.55-3.2 1.65-4.31C58.75 12.554 60.203 12 62.007 12c1.897 0 3.37.532 4.42 1.598C67.476 14.665 68 16.123 68 17.973c0 1.843-.534 3.309-1.603 4.396-1.07 1.088-2.533 1.631-4.39 1.631-1.898 0-3.374-.55-4.427-1.647-1.053-1.098-1.58-2.558-1.58-4.38M71.756 24v-9.704H70V12h5v12zM86.071 24v-6.808c0-1.005-.205-1.738-.615-2.2-.41-.462-1.08-.693-2.01-.693-.429 0-.887.113-1.375.341-.488.227-.869.509-1.143.847V24H78V12.22h2.109l.538 1.1c.797-.88 1.972-1.32 3.527-1.32 1.49 0 2.668.42 3.531 1.259.863.84 1.295 2.011 1.295 3.515V24h-2.929zM100.076 24v-7.332c0-.735-.241-1.324-.722-1.767-.483-.445-1.112-.668-1.889-.668-.482 0-.967.125-1.456.372-.49.25-.839.533-1.05.85V24H92V7.667L94.96 7v5.856c.753-.652 1.79-.978 3.11-.978 1.563 0 2.775.413 3.637 1.239.862.826 1.293 2.01 1.293 3.55V24h-2.924zM114.075 23.791v-.99c-.414.331-.983.613-1.71.848-.724.234-1.392.351-2 .351-2.91 0-4.365-1.451-4.365-4.355V12h2.926v7.436c0 1.511.72 2.266 2.164 2.266.664 0 1.28-.162 1.85-.485.57-.322.947-.696 1.135-1.12V12H117v11.791h-2.925z"/>
        <g transform="translate(120 7)">
            <mask id="b" fill="#fff">
                <use xlink:href="#a"/>
            </mask>
            <path fill="#FFF" d="M3.272 8.438V14.6c.438.478 1.032.716 1.782.716 1.443 0 2.465-.315 3.067-.947.602-.631.903-1.643.903-3.031 0-2.397-1.244-3.595-3.731-3.595-.885 0-1.558.232-2.021.695m-.634 8.345l-.67.87H.282V1.229l2.99-.662v5.512a5.237 5.237 0 0 1 2.607-.672c1.874 0 3.384.546 4.532 1.637 1.149 1.091 1.723 2.49 1.723 4.195 0 1.977-.579 3.54-1.735 4.69-1.156 1.15-2.722 1.726-4.7 1.726-1.188 0-2.208-.29-3.06-.871" mask="url(#b)"/>
        </g>
        <mask id="d" fill="#fff">
            <use xlink:href="#c"/>
        </mask>
        <path fill="#6CF" d="M29.523 19.587c-1.765 4.259-5.913 7.255-10.737 7.255-6.423 0-11.648-5.312-11.648-11.842S12.363 3.158 18.786 3.158c4.491 0 8.394 2.6 10.337 6.395h3.405C30.38 3.968 25.031 0 18.786 0c-6.49 0-12.011 4.285-13.98 10.217H.85l-.852 2.527h4.2a15.262 15.262 0 0 0-.137 3.158H.85l-.852 2.526h4.427C5.956 25.052 11.81 30 18.786 30c6.562 0 12.134-4.38 14.045-10.413h-3.308z" mask="url(#d)"/>
        <path fill="#6CF" d="M35 12.874h-7.773l-.018.044c-.407-.551-1.114-.918-1.92-.918-1.265 0-2.289.895-2.289 2 0 1.104 1.024 2 2.289 2 .786 0 1.479-.347 1.89-.874h6.985L35 12.874z"/>
    </g>
</svg>
