<svg xmlns="http://www.w3.org/2000/svg" width="32" height="32" viewBox="0 0 32 32">
    <g fill="none" fill-rule="evenodd">
        <circle cx="16" cy="16" r="15.5" stroke="#FFF"/>
        <path fill="#FFF" fill-rule="nonzero" d="M10.802 12c-1.979.14-3.673 1.782-3.802 3.697v.628c.136 1.918 1.854 3.542 3.83 3.675h.642c1.568-.138 2.886-1.132 3.837-2.29-.232-.34-.467-.679-.707-1.012-.612.902-1.408 1.753-2.482 2.128-.966.35-2.088.125-2.892-.477-1.074-.76-1.464-2.235-.984-3.423.546-1.444 2.376-2.293 3.874-1.75 1.212.44 1.96 1.532 2.693 2.502.851 1.098 1.555 2.33 2.652 3.23.755.64 1.725 1.012 2.723 1.092h.596c1.621-.144 3.104-1.227 3.612-2.734a48.31 48.31 0 0 0-1.11.005c-.727 1.483-2.795 2.201-4.274 1.323-2.045-1.213-2.928-3.515-4.536-5.145-.774-.792-1.819-1.342-2.95-1.449h-.722zm9.344 0c-1.58.146-2.888 1.162-3.827 2.337.22.325.447.647.676.965.595-.86 1.366-1.664 2.39-2.032 1.285-.488 2.892-.028 3.652 1.096.312.43.432.952.523 1.46-1.3.008-2.598 0-3.898.004v.861c1.645-.001 3.292.008 4.938-.007V15.7c-.164-1.918-1.86-3.574-3.854-3.7h-.6z"/>
    </g>
</svg>
