<svg xmlns="http://www.w3.org/2000/svg" width="32" height="32" viewBox="0 0 32 32">
    <g fill="none" fill-rule="evenodd">
        <circle cx="16" cy="16" r="15.5" stroke="#FFF"/>
        <path fill="#FFF" fill-rule="nonzero" d="M21.95 16.603c-.504-.557-1.23-.902-2.176-1.037v-.02c.83-.134 1.481-.474 1.924-1.018.45-.54.694-1.22.69-1.923 0-1.169-.376-1.963-1.155-2.588-.78-.624-1.949-.83-3.534-.83h-5.985v5.57H8.278v2.134h9.381c.739 0 1.293.052 1.66.347.366.296.553.677.553 1.241 0 .564-.185 1.046-.554 1.348-.368.302-.923.501-1.659.501H14.44v-1.66h-2.726v3.794h6.182c1.572 0 2.774-.41 3.607-1.048.833-.638 1.224-1.58 1.224-2.736a3.048 3.048 0 0 0-.777-2.075zm-4.635-1.851H14.44v-3.437h2.875c1.479 0 2.216.577 2.216 1.719 0 1.141-.737 1.718-2.216 1.718z"/>
    </g>
</svg>
