<svg xmlns="http://www.w3.org/2000/svg" width="32" height="32" viewBox="0 0 32 32">
    <g fill="none" fill-rule="evenodd">
        <circle cx="16" cy="16" r="15.5" stroke="#FFF"/>
        <path fill="#FFF" fill-rule="nonzero" d="M22.035 15.694c-.559-.414-1.355-.58-1.355-.58s.674-.384.949-.767c.276-.384.413-.979.436-1.287.023-.309.077-1.603-.949-2.348-.793-.576-1.703-.805-2.924-.88V7.222h-1.638V9.8h-1.247v-2.58h-1.638V9.8h-3.222v1.673h.947c.258 0 .717.028.912.243.196.214.23.327.23.745v6.663c0 .158-.03.354-.168.482s-.276.157-.605.157h-.98l-.336 1.935h3.222v2.573h1.638V21.7h1.248v2.573h1.638v-2.616c.423-.024.818-.056 1.048-.085.467-.06 1.523-.18 2.51-.858.988-.678 1.21-1.739 1.233-2.807.023-1.068-.39-1.799-.95-2.212zm-6.728-4.071s.52-.045 1.033-.038c.513.008.964.023 1.638.226.674.203 1.071.7 1.087 1.287.015.587-.245.978-.704 1.226-.46.249-1.094.384-1.692.406-.597.023-1.362 0-1.362 0v-3.107zm3.666 7.698c-.375.203-1.125.383-1.852.436-.727.053-1.814.03-1.814.03v-3.454s1.04-.052 1.852 0c.812.053 1.493.256 1.799.407.306.15.842.481.842 1.271 0 .79-.452 1.106-.827 1.31z"/>
    </g>
</svg>
