<svg xmlns="http://www.w3.org/2000/svg" width="32" height="32" viewBox="0 0 32 32">
    <g fill="none" fill-rule="evenodd">
        <path fill="#FFF" fill-rule="nonzero" d="M11.39 16.34V23h6.14c1.133 0 2.115-.197 2.945-.588a5.49 5.49 0 0 0 2.032-1.608c.525-.678.916-1.473 1.172-2.384.256-.91.384-1.884.384-2.92.006-.986-.123-1.97-.385-2.92-.255-.91-.646-1.706-1.172-2.384a5.48 5.48 0 0 0-2.031-1.608C19.645 8.197 18.662 8 17.528 8h-6.14v6.197H10v2.143h1.39zm2.592-2.142v-4.055h2.551c1.01 0 1.836.136 2.48.41.642.273 1.147.65 1.513 1.134.366.483.615 1.05.747 1.702.13.651.196 1.354.196 2.111 0 .757-.065 1.46-.197 2.111a4.113 4.113 0 0 1-.746 1.702c-.366.484-.872.861-1.514 1.134-.643.274-1.469.41-2.479.41h-2.55V16.34h4.044v-2.142h-4.045z"/>
        <circle cx="16" cy="16" r="15.5" stroke="#FFF"/>
    </g>
</svg>
