<svg xmlns="http://www.w3.org/2000/svg" width="32" height="32" viewBox="0 0 32 32">
    <g fill="none" fill-rule="evenodd">
        <circle cx="16" cy="16" r="15.5" stroke="#FFF"/>
        <path fill="#FFF" fill-rule="nonzero" d="M12.613 20.66a5.76 5.76 0 0 0 8.047-8.047l-1.558 1.558a3.6 3.6 0 0 1-4.93 4.93l-1.559 1.559zm-1.273-1.273l1.558-1.558a3.6 3.6 0 0 1 4.93-4.93l1.559-1.559a5.76 5.76 0 0 0-8.047 8.047zm10.42-7.707a1.44 1.44 0 1 0 0-2.88 1.44 1.44 0 0 0 0 2.88zM10.24 23.2a1.44 1.44 0 1 0 0-2.88 1.44 1.44 0 0 0 0 2.88z"/>
    </g>
</svg>
