<svg xmlns="http://www.w3.org/2000/svg" width="32" height="32" viewBox="0 0 32 32">
    <g fill="none" fill-rule="evenodd">
        <circle cx="16" cy="16" r="15.5" stroke="#FFF"/>
        <path fill="#FFF" fill-rule="nonzero" d="M16 8l-5.441 2.332a.678.678 0 0 0-.36.364L8 16l2.199 5.367a.68.68 0 0 0 .366.368L16 24l5.435-2.265a.678.678 0 0 0 .366-.368L24 16l-2.2-5.305a.678.678 0 0 0-.359-.363L16 8zm0 3.255l3.322 1.423L20.745 16l-1.423 3.322L16 20.745l-3.322-1.423L11.255 16l1.423-3.322L16 11.255zm0 1.423l-2.373.949-.95 2.373.95 2.373 2.373.95 2.373-.95.95-2.373-.95-2.373-2.373-.95z"/>
    </g>
</svg>
