<svg xmlns="http://www.w3.org/2000/svg" width="32" height="32" viewBox="0 0 32 32">
    <g fill="none" fill-rule="evenodd">
        <circle cx="16" cy="16" r="15.5" stroke="#FFF"/>
        <path fill="#FFF" fill-rule="nonzero" d="M13.933 12.88l-1.049.883a.402.402 0 0 0-.126.27l-.002 4.889c0 .09.074.164.165.164h.973c.09 0 .164-.074.164-.164v-5.984c0-.09-.056-.116-.125-.058zm-1.968 5.09H9.056c-.086 0-.165-.055-.165-.164v-6.517c0-.09-.056-.116-.125-.057l-1.042.89a.406.406 0 0 0-.125.272v6.528c0 .082.06.148.136.161l-.001.003h4.216c.09 0 .164-.074.164-.164v-.788c0-.09-.073-.164-.15-.164zm6.693-2.048c-.237-.168-.616-.352-1.14-.554-.622-.24-1.025-.428-1.21-.565-.186-.137-.278-.304-.278-.502 0-.404.355-.606 1.064-.606.376 0 .821.091 1.337.275.09.029.187-.006.237-.086l.395-.682a.138.138 0 0 0-.07-.204 5.075 5.075 0 0 0-1.853-.342c-.752 0-1.346.15-1.783.448-.437.3-.656.718-.656 1.26 0 .449.13.814.387 1.095.258.283.75.564 1.48.846.374.144.666.274.876.388.21.114.36.225.452.331a.592.592 0 0 1 .138.4c0 .5-.47.748-1.298.748a3.224 3.224 0 0 1-1.478-.335.182.182 0 0 0-.232.065l-.378.614a.16.16 0 0 0 .056.224c.403.224 1.088.46 1.986.46.84 0 1.54-.165 1.99-.494.451-.33.676-.802.676-1.419a1.68 1.68 0 0 0-.171-.785 1.658 1.658 0 0 0-.527-.58zm6.504-3.007c.065-.064.044-.116-.048-.116h-1.16a.49.49 0 0 0-.286.111l-2.394 2.393c-.067.062-.121.038-.121-.053v-3.962c0-.09-.056-.116-.125-.057l-1.042.89a.406.406 0 0 0-.125.271v6.53c0 .09.073.164.165.163h.976a.171.171 0 0 0 .164-.172v-1.889c0-.09.053-.216.119-.278l.447-.432a.13.13 0 0 1 .208.024l1.634 2.603c.059.084.152.137.254.145h1.086c.09 0 .124-.07.076-.145l-2.146-3.327a.211.211 0 0 1 .028-.254l2.29-2.444z"/>
    </g>
</svg>
