<svg xmlns="http://www.w3.org/2000/svg" width="32" height="32" viewBox="0 0 32 32">
    <g fill="none" fill-rule="evenodd">
        <circle cx="16" cy="16" r="15.5" stroke="#FFF"/>
        <path fill="#FFF" fill-rule="nonzero" d="M20.55 9.287a.925.925 0 0 0-.926-.923.925.925 0 1 0 0 1.847.925.925 0 0 0 .927-.924zm-.667 3.218a.783.783 0 0 0 0-1.564.783.783 0 1 0 0 1.564zm-.244 1.93a.662.662 0 1 0-.469-1.13.662.662 0 0 0 .47 1.13zm-.039.997a.567.567 0 1 0-1.135 0 .567.567 0 0 0 1.135 0zm-.897 1.254a.486.486 0 1 0-.973.001.486.486 0 0 0 .973-.001zm-.982.89a.417.417 0 1 0-.835-.034.417.417 0 0 0 .835.033zm4.999-5.39a.788.788 0 1 0-1.535-.356.788.788 0 0 0 1.535.357zm-.377 2.04a.667.667 0 1 0-1.299-.304.667.667 0 0 0 1.3.303zm-.7 1.626a.564.564 0 0 0-1.099-.256.564.564 0 1 0 1.098.256zm-.904 1.239a.48.48 0 1 0-.935-.218.48.48 0 0 0 .935.218zm-.987.865a.414.414 0 1 0-.806-.19.414.414 0 0 0 .806.19zm-.985.546a.355.355 0 1 0-.685-.19.355.355 0 0 0 .685.19zm5.166-3.532a.668.668 0 0 0-.312-.894.671.671 0 0 0-.926.823.671.671 0 0 0 1.238.072zm-.699 1.611a.567.567 0 0 0-.265-.76.573.573 0 0 0-.762.265.57.57 0 0 0 1.027.495zm-.878 1.222a.493.493 0 0 0-.888-.428.49.49 0 0 0 .229.656c.245.118.539.017.659-.227v-.001zm-.98.864a.427.427 0 1 0-.768-.372.427.427 0 0 0 .769.372zm-.985.532a.367.367 0 0 0-.658-.318.366.366 0 0 0 .658.318zm-.926.269a.31.31 0 0 0-.452-.391.31.31 0 1 0 .452.39zm.754 3.531a.928.928 0 0 0 1.265-.339.922.922 0 0 0-.34-1.26.929.929 0 0 0-1.265.338.921.921 0 0 0 .34 1.261zm-2.175-1.114a.785.785 0 0 0 1.15-.88.786.786 0 0 0-1.515.407.78.78 0 0 0 .365.473zm-1.601-1.338a.664.664 0 0 0 .972-.746.665.665 0 0 0-1.282.344.66.66 0 0 0 .31.402zM15.35 19.11a.567.567 0 0 0 .83-.636.566.566 0 1 0-.83.636zm-.642-1.4a.487.487 0 0 0 .713-.547.488.488 0 0 0-.94.253c.034.124.115.23.227.294zm-.283-1.293a.417.417 0 1 0 .418-.722.417.417 0 0 0-.418.722zm2.727 7.22a.786.786 0 0 0 0-1.57.786.786 0 1 0 0 1.57zm-2.122-1.556c.27.25.69.237.943-.03a.664.664 0 0 0-.03-.94.67.67 0 0 0-1.124.507.663.663 0 0 0 .211.463zm-1.065-1.417a.566.566 0 0 0 .95-.429.565.565 0 0 0-1.128.037c.005.15.069.29.178.392zm-.625-1.399a.483.483 0 0 0 .812-.366.483.483 0 0 0-.964.03.479.479 0 0 0 .152.336zm-.259-1.283a.415.415 0 0 0 .697-.314.415.415 0 0 0-.828.027c.004.11.051.213.131.287zm.018-1.124a.356.356 0 0 0 .485-.516.356.356 0 0 0-.598.27.353.353 0 0 0 .113.246zm.49 6.225a.672.672 0 0 0 1.215-.25.672.672 0 0 0-1.318-.25.668.668 0 0 0 .104.5zm-1.051-1.408a.572.572 0 0 0 .944-.64.572.572 0 0 0-1.033.214.567.567 0 0 0 .089.426zm-.624-1.37c.153.226.46.284.685.132a.49.49 0 0 0 .13-.684.494.494 0 0 0-.816.553zm-.262-1.275a.43.43 0 0 0 .775-.16.43.43 0 0 0-.841-.16.426.426 0 0 0 .066.32zm.03-1.117a.366.366 0 0 0 .603-.41.367.367 0 0 0-.661.137.364.364 0 0 0 .056.273h.001zm.228-.933a.311.311 0 0 0 .513-.349.31.31 0 0 0-.513.348v.001zM8.463 15.86a.922.922 0 0 0-.339 1.261.929.929 0 0 0 1.266.339.922.922 0 0 0 .339-1.261.928.928 0 0 0-1.266-.34zm2.058-1.317a.78.78 0 0 0-.287 1.068.787.787 0 0 0 1.071.286.78.78 0 0 0 .288-1.068.785.785 0 0 0-1.072-.286zm1.965-.71a.66.66 0 0 0-.243.903.665.665 0 0 0 1.215-.159.662.662 0 0 0-.972-.744zm1.794-.223a.564.564 0 0 0 .136 1.036.567.567 0 0 0 .638-.829.567.567 0 0 0-.774-.207zm1.537.149a.484.484 0 0 0-.178.663.487.487 0 0 0 .844-.485.487.487 0 0 0-.666-.178zm1.264.402a.417.417 0 1 0 .418.721.417.417 0 0 0-.418-.72zm-7.18-1.623a.784.784 0 0 0-.526.978.788.788 0 0 0 1.507-.453.788.788 0 0 0-.982-.525h.001zm1.96-.693a.665.665 0 1 0 .385 1.273.665.665 0 1 0-.386-1.273zm1.764-.209a.562.562 0 1 0 .325 1.077.562.562 0 0 0-.325-1.077zm1.527.163a.48.48 0 0 0-.322.598.482.482 0 0 0 .923-.277.482.482 0 0 0-.6-.321h-.001zm1.244.42a.413.413 0 0 0 .24.789.413.413 0 1 0-.24-.79zm.967.577a.354.354 0 1 0 .206.678.354.354 0 0 0-.206-.678zM11.712 10.1a.67.67 0 1 0 .097 1.334.67.67 0 0 0 .39-1.173.67.67 0 0 0-.486-.16h-.001zm1.75-.202a.57.57 0 1 0 .083 1.135.57.57 0 1 0-.082-1.135zm1.502.149a.492.492 0 1 0 .07.98.492.492 0 1 0-.07-.98zm1.238.413a.428.428 0 1 0 .061.853.428.428 0 0 0-.06-.853zm.956.584a.365.365 0 1 0 .012.73.365.365 0 0 0-.012-.73zm.696.666a.31.31 0 1 0 .044.618.31.31 0 0 0-.044-.618z"/>
    </g>
</svg>
