<svg xmlns="http://www.w3.org/2000/svg" width="32" height="32" viewBox="0 0 32 32">
    <g fill="none" fill-rule="evenodd">
        <circle cx="16" cy="16" r="15.5" stroke="#FFF"/>
        <path fill="#FFF" fill-rule="nonzero" d="M11.872 17.058a3.87 3.87 0 0 0-3.867 3.87 3.87 3.87 0 0 0 3.868 3.872 3.87 3.87 0 0 0 3.867-3.871 3.87 3.87 0 0 0-3.867-3.871zm0 6.571a2.698 2.698 0 0 1-2.696-2.699 2.698 2.698 0 1 1 2.696 2.699zM20.132 8.8a3.87 3.87 0 0 0-3.867 3.871 3.87 3.87 0 0 0 3.867 3.871A3.87 3.87 0 0 0 24 12.672 3.87 3.87 0 0 0 20.132 8.8zm0 6.571a2.698 2.698 0 0 1-2.696-2.699 2.698 2.698 0 1 1 2.696 2.7zM11.872 8.8a3.874 3.874 0 0 0-1.508 7.44 3.867 3.867 0 0 0 4.701-1.383 3.875 3.875 0 0 0-.423-4.886h1.097V8.8h-3.867zm2.697 3.871a2.698 2.698 0 1 1-5.398.002 2.698 2.698 0 0 1 5.4-.002h-.002z"/>
    </g>
</svg>
