<svg xmlns="http://www.w3.org/2000/svg" width="32" height="32" viewBox="0 0 32 32">
    <g fill="none" fill-rule="evenodd">
        <circle cx="16" cy="16" r="15.5" stroke="#FFF"/>
        <path fill="#FFF" fill-rule="nonzero" d="M23.45 22.109a.96.96 0 0 0-.12.465c0 .525.42.95.936.95a.943.943 0 0 0 .934-.95.943.943 0 0 0-.934-.95.92.92 0 0 0-.62.238l-1.533-1.365 1.197-3.864a.629.629 0 0 0 .644-.634.629.629 0 0 0-.664-.632l-1.021-3.35a.636.636 0 0 0 .283-.532.629.629 0 0 0-.622-.634.616.616 0 0 0-.43.175l-2.84-2.088a.64.64 0 0 0 .076-.304.629.629 0 0 0-.622-.634.626.626 0 0 0-.613.515h-3.448A.626.626 0 0 0 13.44 8a.629.629 0 0 0-.623.634.64.64 0 0 0 .084.318l-2.858 2.064a.615.615 0 0 0-.42-.165.629.629 0 0 0-.622.634c0 .241.132.451.328.558l-1.026 3.328A.629.629 0 0 0 7.6 16a.629.629 0 0 0 .684.632l1.042 3.328a.635.635 0 0 0-.324.556c0 .35.279.634.623.634.153 0 .3-.058.413-.16l2.836 2.112a.64.64 0 0 0-.056.264c0 .35.279.635.623.635a.626.626 0 0 0 .612-.515H17.5a.626.626 0 0 0 .613.515.628.628 0 0 0 .622-.634.64.64 0 0 0-.058-.266l3.194-2.396 1.578 1.405v-.001zm-5.284.626a.62.62 0 0 0-.288.044l-1.637-2.316a.636.636 0 0 0 .15-.316l2.76-.401c.036.121.107.23.205.31l-1.19 2.68zm.315.12a.624.624 0 0 0-.02-.014l1.178-2.653c.23.042.463-.05.603-.236l1.334.58-3.096 2.322v.001zm-.852.113a.636.636 0 0 0-.107.2h-3.49a.636.636 0 0 0-.107-.2l1.648-2.33a.613.613 0 0 0 .407 0l1.648 2.33zm5.382-6.424l-.98 3.165-.213-3.109a.633.633 0 0 0 .423-.6.633.633 0 0 0-.428-.602l.216-3.1.965 3.17a.636.636 0 0 0-.286.532c0 .231.122.434.304.544zm-1.803-1.022a.637.637 0 0 0-.017.94l-1.296 2.487a.614.614 0 0 0-.248-.01L18.5 16.497a.637.637 0 0 0 .236-.497c0-.19-.083-.37-.229-.49l1.114-2.454a.616.616 0 0 0 .32-.018l1.267 2.484zm.3 1.102l.248 3.643-1.392-.606a.637.637 0 0 0-.194-.563l1.294-2.484a.61.61 0 0 0 .043.01zm-.006-1.246a.61.61 0 0 0-.016.002l-1.282-2.512a.638.638 0 0 0 .156-.556l1.07-.447c.076.103.18.18.301.221l-.229 3.292zm-3.286 1.248l1.146 2.441a.635.635 0 0 0-.222.36l-2.774.403a.636.636 0 0 0-.116-.203l1.698-3.016a.614.614 0 0 0 .268.014zm.008-1.25a.616.616 0 0 0-.292.018l-1.711-3.068a.635.635 0 0 0 .131-.201l2.78.404c.022.15.096.286.21.386l-1.117 2.462h-.001zm-.546 1.078l-1.684 2.992a.613.613 0 0 0-.376-.019l-1.736-2.98a.637.637 0 0 0 .012-.881l1.766-3.062a.616.616 0 0 0 .294-.015l1.712 3.07a.638.638 0 0 0 .012.895zm-9.101.068c.17-.12.27-.315.27-.522 0-.2-.093-.388-.253-.509l.979-3.18.242 3.067a.631.631 0 0 0-.501.622c0 .304.21.558.49.62l-.234 3.074-.993-3.172zm3.11 2.42l-1.32-2.484a.637.637 0 0 0-.01-.925L11.7 13.06a.617.617 0 0 0 .234-.005l1.113 2.453a.638.638 0 0 0 .014.994l-1.095 2.448a.614.614 0 0 0-.279-.009zm.26 1.24l1.15 2.656a.624.624 0 0 0-.025.018l-2.86-2.13a.642.642 0 0 0 .031-.292l1.08-.47a.618.618 0 0 0 .623.218zm-.755-.506l-1.064.464a.627.627 0 0 0-.264-.21l.251-3.28 1.29 2.428a.637.637 0 0 0-.213.598zm1.224-.24a.636.636 0 0 0-.178-.328l1.112-2.48a.618.618 0 0 0 .264-.02l1.732 2.974a.635.635 0 0 0-.158.25l-2.772-.395zm-.016.318l2.763.395c.02.12.074.228.15.314l-1.638 2.316a.612.612 0 0 0-.282-.045l-1.17-2.699a.635.635 0 0 0 .177-.28zm-1.202-7.457a.646.646 0 0 0 .217.633l-1.293 2.38-.256-3.24a.627.627 0 0 0 .267-.218l1.064.445zm.76-.476a.614.614 0 0 0-.618.193l-1.096-.458a.651.651 0 0 0-.029-.274l2.843-2.053-1.1 2.592zm.465.698l2.777-.396c.04.096.1.18.177.245l-1.746 3.029a.613.613 0 0 0-.302-.02l-1.117-2.462a.636.636 0 0 0 .21-.396h.001zm-.192-.545l1.15-2.71a.62.62 0 0 0 .313-.051l1.592 2.278a.637.637 0 0 0-.128.319l-2.772.395a.635.635 0 0 0-.154-.231zm7.459-.17L18.513 9.22l2.822 2.075a.643.643 0 0 0-.023.278l-1.088.454a.618.618 0 0 0-.534-.221zm-.525.409l-2.768-.402a.637.637 0 0 0-.128-.32l1.592-2.278a.612.612 0 0 0 .328.05l1.208 2.65a.634.634 0 0 0-.232.3zm-1.549-3.197l-1.595 2.282a.612.612 0 0 0-.488 0l-1.595-2.282a.636.636 0 0 0 .095-.184h3.488a.636.636 0 0 0 .096.184h-.001z"/>
    </g>
</svg>
