<svg xmlns="http://www.w3.org/2000/svg" width="32" height="32" viewBox="0 0 32 32">
    <g fill="none" fill-rule="evenodd">
        <circle cx="16" cy="16" r="15.5" stroke="#FFF"/>
        <path fill="#FFF" fill-rule="nonzero" d="M22.923 19.541l-6.37-11.22A.639.639 0 0 0 15.998 8a.639.639 0 0 0-.556.321L9.08 19.542a.616.616 0 0 0 .229.837l6.364 3.744a.648.648 0 0 0 .655 0l6.364-3.74a.616.616 0 0 0 .229-.837l.001-.005zm-3.913-3.205a3.122 3.122 0 0 0-1.054-1.442l-.006-.005a3.104 3.104 0 0 0-.157-.112l-.01-.007a3.578 3.578 0 0 0-.16-.1l-.016-.008a1.881 1.881 0 0 0-.164-.085l-.016-.009a4.646 4.646 0 0 0-.174-.077l-.02-.008a3.198 3.198 0 0 0-.586-.18c-.116.21-.264.4-.44.563.413.033.813.165 1.165.385l.02.012.097.066.044.031.087.066.05.04.075.067.05.048.069.07.05.053.061.072.048.06.055.073c.019.024.031.044.046.065l.05.075.042.07.043.076c.015.024.026.052.04.078.012.027.025.049.036.074l.04.099c.07.174.119.356.147.542l.08.298c.034.123.347 1.22 1.073 1.59.832.426 1.934.953 2.367 1.161l-5.723 3.36v-2.302c0-.364.737-.789 1.078-.938l.02-.011c.07-.035.14-.073.207-.112l.028-.015c.148-.09.29-.19.42-.3l.036-.032.04-.036c.042-.037.082-.075.122-.115l.02-.02c.044-.043.087-.084.126-.135l.036-.042c.032-.038.063-.077.093-.117l.027-.033c.037-.049.07-.099.105-.15l.011-.014c.046-.072.087-.143.13-.218a3.256 3.256 0 0 1-.41-.63 2.464 2.464 0 0 1-.17.37 3.654 3.654 0 0 1-.087.15l-.013.02a2.599 2.599 0 0 1-.087.121l-.027.034a1.96 1.96 0 0 1-.094.113l-.018.02a2.547 2.547 0 0 1-.75.564l-.054.028c-.145.064-1.425.631-1.425 1.494v2.304l-5.74-3.367c.37-.225 1.448-.853 2.335-1.13.347-.105 1.084.35 1.502.683l.025.022c.055.052.113.101.174.148l.02.018c.133.106.275.201.423.285l.1.054.02.01c.096.049.194.093.295.132l.045.017.03.012c.144.053.294.094.445.125.118-.211.272-.403.454-.566a2.575 2.575 0 0 1-.708-.154l-.04-.015-.075-.03-.038-.017-.073-.033a2.554 2.554 0 0 1-.475-.3l-.229-.203c-.21-.18-.436-.34-.678-.476-.567-.317-1.042-.42-1.406-.308-.759.234-1.613.69-2.135.99l5.732-10.108v4.427c0 .157-.236.566-1.024.914l-.055.03a3.098 3.098 0 0 0-.224.12l-.014.006a3.202 3.202 0 0 0-.662.52l-.007.007a3.147 3.147 0 0 0-.212.24l-.008.012c-.032.04-.063.082-.094.124l-.01.015-.08.12-.008.013a2.74 2.74 0 0 0-.075.128l-.017.03c-.021.041-.042.085-.064.124l-.01.02c-.019.039-.036.078-.053.118l-.019.044c-.017.041-.032.085-.048.125l-.014.044a1.676 1.676 0 0 0-.031.096l-.016.053a2.986 2.986 0 0 0-.092.452l-.007.068a1.87 1.87 0 0 0-.008.094c-.002.032 0 .063-.005.094-.006.031 0 .038 0 .059v.07c0 .154.011.309.035.463.247.06.486.15.712.265a2.444 2.444 0 0 1-.11-.686v-.042c0-.056 0-.112.006-.17v-.045c0-.048.01-.096.016-.144v-.021c.007-.054.019-.107.031-.158l.009-.04a2.01 2.01 0 0 1 .036-.131l.009-.028c.015-.051.033-.1.052-.15l.015-.033.052-.122.014-.03c.023-.049.048-.095.074-.141l.014-.023c.023-.04.047-.08.073-.118l.018-.027c.03-.045.061-.086.095-.132l.006-.007c.031-.04.064-.08.098-.118l.019-.022a2.56 2.56 0 0 1 .53-.444l.271-.126c.146-.064 1.419-.647 1.419-1.51V9.184L22.1 19.368c-.516-.248-1.423-.687-2.13-1.046-.404-.207-.68-.934-.75-1.195l-.078-.306a3.032 3.032 0 0 0-.127-.482l-.006-.003z"/>
    </g>
</svg>
