<svg xmlns="http://www.w3.org/2000/svg" width="32" height="32" viewBox="0 0 32 32">
    <g fill="none" fill-rule="evenodd">
        <circle cx="16" cy="16" r="15.5" stroke="#FFF"/>
        <path fill="#FFF" fill-rule="nonzero" d="M13.21 10.592c-.466-.744-1.187-1.28-1.975-1.318-.821-.058-1.63.41-2.167 1.143-.407.562-.6 1.308-.608 2.045-.003 1.41-.004 2.822-.001 4.232-.014.188.126.319.274.299 3.328.011 6.657-.013 9.985.013-.015.872.002 1.745.051 2.616-.949.828-2.061 1.413-3.224 1.63-.151.042-.406-.007-.44.242-.014.468-.001.939-.006 1.408-.022.164.086.333.229.33 1.412-.135 2.764-.75 3.896-1.771.416.648 1.01 1.16 1.696 1.283.97.207 1.99-.354 2.57-1.29.366-.595.496-1.348.493-2.076-.003-1.34.01-2.68-.006-4.019.012-.213-.154-.32-.312-.304-3.318-.008-6.635.004-9.951-.007-.02-.788.029-1.58-.043-2.365-.007-.109-.028-.258.067-.323 1.017-.834 2.187-1.437 3.417-1.6.133-.004.194-.184.185-.323 0-.448.01-.898-.004-1.345.005-.187-.149-.294-.29-.26-1.384.135-2.725.762-3.835 1.76zM9.8 12.706c.016-.754.59-1.416 1.222-1.386.647-.014 1.229.668 1.241 1.44.014.807.006 1.613.004 2.42-.822.02-1.643.006-2.466.007-.003-.827-.003-1.654-.001-2.481zm10.473 4.232c.821-.003 1.642-.006 2.464.001.006.788.002 1.576.002 2.364.006.6-.308 1.198-.783 1.409-.515.24-1.145.002-1.46-.54a1.687 1.687 0 0 1-.227-.877c.002-.785-.002-1.572.004-2.358z"/>
    </g>
</svg>
