<svg xmlns="http://www.w3.org/2000/svg" width="32" height="32" viewBox="0 0 32 32">
    <g fill="none" fill-rule="evenodd">
        <circle cx="16" cy="16" r="15.5" stroke="#FFF"/>
        <path fill="#FFF" fill-rule="nonzero" d="M13.84 14.416c1.8 0 2.652.348 4.451.348 2.438 0 4.109-.995 4.109-3.055s-1.392-3.055-3.424-3.055c-3.318 0-6.106 2.532-6.467 5.877.44-.078.885-.117 1.331-.114v-.001zm-.131 1.22c-2.438 0-4.109.996-4.109 3.055 0 2.06 1.392 3.055 3.424 3.055 3.318 0 6.106-2.532 6.467-5.877-.44.079-.885.117-1.331.115-1.8 0-2.652-.348-4.451-.348z"/>
    </g>
</svg>
