<svg xmlns="http://www.w3.org/2000/svg" width="32" height="32" viewBox="0 0 32 32">
    <g fill="none" fill-rule="evenodd">
        <circle cx="16" cy="16" r="15.5" stroke="#FFF"/>
        <path fill="#FFF" fill-rule="nonzero" d="M10.832 10.433c-.152-.073-2.032 1.49-2.032 2.64 0 1.57 2.197 5.136 2.568 6.513.317 1.184-.543 2.601-.305 2.668.219.14 2.27-1.95 2.35-2.84.106-1.417-2.396-5.555-2.595-6.62-.238-1.243.18-2.334.014-2.361zm4.699-1.63c-.192-.093-2.595 1.896-2.595 3.366 0 2.01 2.8 6.553 3.276 8.309.404 1.51-.688 3.32-.39 3.4.278.179 2.892-2.482 2.991-3.62.132-1.81-3.057-7.078-3.309-8.441-.291-1.584.238-2.974.027-3.014zm4.85 1.63c-.145-.073-2.031 1.49-2.031 2.64 0 1.57 2.197 5.136 2.568 6.513.317 1.184-.543 2.601-.305 2.668.219.14 2.27-1.95 2.35-2.84.105-1.417-2.396-5.555-2.595-6.62-.231-1.243.179-2.334.014-2.361z"/>
    </g>
</svg>
