<svg xmlns="http://www.w3.org/2000/svg" width="32" height="32" viewBox="0 0 32 32">
    <g fill="none" fill-rule="evenodd">
        <circle cx="16" cy="16" r="15.5" stroke="#FFF"/>
        <path fill="#FFF" fill-rule="nonzero" d="M24.456 15.658c-.25-.15-.588-.139-.903.03-.052.028-7.235 4.031-7.516 4.202-.051.031-.077.047-.186-.012-.118-.064-7.32-4.09-7.475-4.176-.068-.038-.16-.106-.16-.254v-1.202l7.185 4.032c.169.095.36.145.552.145.198 0 .4-.053.581-.154l7.82-4.34a.833.833 0 0 0 .446-.724.75.75 0 0 0-.412-.656c-.148-.08-4.213-2.337-7.968-4.422A.964.964 0 0 0 15.95 8a.867.867 0 0 0-.425.11L7.581 12.57a.743.743 0 0 0-.381.657v2.222c0 .488.25.905.687 1.145.152.084 7.355 4.111 7.478 4.178.514.28.937.149 1.2-.012.167-.1 5.904-3.307 7.218-4.036v1.114c0 .014 0 .055-.196.18-.255.157-7.154 4.04-7.48 4.216-.14.076-.157.066-.214.033-.248-.143-7.785-4.38-8.106-4.56l-.497.888c.078.044 7.853 4.414 8.097 4.554.205.118.397.162.57.162.256 0 .471-.094.634-.182.057-.031 7.254-4.072 7.537-4.25.184-.117.672-.425.672-1.04V16.3a.726.726 0 0 0-.344-.643zm-8.497-6.624c1.598.888 6.18 3.433 7.559 4.196l-7.477 4.149c-.054.03-.1.036-.143.011l-7.415-4.16 7.476-4.196z"/>
    </g>
</svg>
