<svg xmlns="http://www.w3.org/2000/svg" width="32" height="32" viewBox="0 0 32 32">
    <g fill="none" fill-rule="evenodd">
        <circle cx="16" cy="16" r="15.5" stroke="#FFF"/>
        <path fill="#FFF" fill-rule="nonzero" d="M22.996 12.213c-.64-.454-1.323-.938-1.992-1.418-.015-.011-.03-.022-.048-.033a.896.896 0 0 0-.262-.15l-.008-.004a2560.32 2560.32 0 0 1-5.368-1.323l-4.787-1.182-.125-.033c-.144-.041-.31-.087-.488-.064a.337.337 0 0 0-.136.052l-.045.038a.552.552 0 0 0-.126.202l-.011.03v.173l.008.026c1.008 2.868 2.043 5.778 3.042 8.593.768 2.168 1.568 4.413 2.347 6.618.048.15.185.248.355.262h.037a.415.415 0 0 0 .37-.206l2.927-4.33 2.14-3.165.876-1.297c.48-.712.976-1.448 1.468-2.164l.026-.036v-.046c.011-.131.014-.4-.2-.544zm-3.43 1.578c-.688.363-1.39.739-2.096 1.11l1.235-1.343c.513-.562 1.05-1.144 1.574-1.713l.011-.011c.044-.06.1-.116.16-.176.04-.041.084-.083.125-.132.274.192.55.387.817.578.192.138.388.278.588.416-.808.418-1.612.842-2.414 1.271zm-1.767-.18c-.529.581-1.076 1.177-1.619 1.766a1046.507 1046.507 0 0 0-3.172-3.884l-1.423-1.736-.003-.004c-.108-.123-.212-.259-.315-.386-.066-.086-.137-.169-.207-.255.429.112.862.218 1.286.318.374.09.762.184 1.143.282l6.436 1.586c-.714.772-1.431 1.556-2.126 2.313zm-1.86 7.307c.041-.393.086-.798.123-1.196.033-.319.066-.644.1-.956.05-.499.107-1.016.152-1.522l.01-.09c.037-.323.074-.656.096-.99.043-.024.088-.046.134-.064.055-.026.11-.048.165-.082a489.34 489.34 0 0 1 2.566-1.357c.854-.45 1.73-.915 2.599-1.376a748.377 748.377 0 0 0-2.355 3.48c-.662.977-1.342 1.986-2.019 2.98-.265.397-.543.802-.805 1.192-.296.435-.6.88-.895 1.328.037-.45.081-.904.13-1.347zM10.787 9.997c-.048-.135-.1-.274-.145-.405.999 1.222 2.004 2.452 2.984 3.644.506.618 1.012 1.234 1.519 1.856.1.116.2.24.296.36.125.154.251.315.388.469-.045.385-.082.776-.123 1.15-.025.263-.05.526-.08.792v.003c-.012.168-.034.338-.052.503l-.085.746-.004.026c-.067.757-.148 1.522-.226 2.265-.033.307-.062.622-.096.937-.018-.056-.04-.113-.059-.165a16.84 16.84 0 0 1-.162-.461l-.396-1.114-3.76-10.606h.001z"/>
    </g>
</svg>
