<svg xmlns="http://www.w3.org/2000/svg" width="32" height="32" viewBox="0 0 32 32">
    <g fill="none" fill-rule="evenodd">
        <circle cx="16" cy="16" r="15.5" stroke="#FFF"/>
        <path fill="#FFF" fill-rule="nonzero" d="M23.992 15.824c0-1.004-2.732-1.841-6.363-2.035v-1.6h4.533V8.86H9.766v3.33H14.3v1.607c-3.564.207-6.23 1.036-6.23 2.027 0 .992 2.666 1.821 6.23 2.028v5.744h3.33V17.86c3.63-.192 6.363-1.03 6.363-2.035zm-7.962.99c-3.897 0-7.056-.604-7.056-1.348 0-.63 2.265-1.16 5.325-1.307V16.093a32.025 32.025 0 0 0 3.33.007v-1.947c3.127.139 5.457.673 5.457 1.313 0 .744-3.159 1.348-7.056 1.348z"/>
    </g>
</svg>
