<svg xmlns="http://www.w3.org/2000/svg" width="32" height="32" viewBox="0 0 32 32">
    <g fill="none" fill-rule="evenodd">
        <circle cx="16" cy="16" r="15.5" stroke="#FFF"/>
        <path fill="#FFF" fill-rule="nonzero" d="M8 10v.008l2.866 12.747h3.231L16.963 10H14.36l-1.547 7.881c-.112.533-.195 1.073-.329 1.601a6.32 6.32 0 0 1-.094-.399L10.692 10c-.898.002-1.796.002-2.692 0zm10.005 4.007c-.644.786-.824 1.837-.9 2.83a17.619 17.619 0 0 0 .072 3.057c.12.88.423 1.798 1.118 2.377.747.632 1.765.76 2.703.724.863-.035 1.774-.323 2.34-1.027.564-.677.723-1.587.772-2.448h-2.165c-.078.52-.153 1.087-.51 1.491-.268.296-.71.374-1.077.254-.345-.123-.561-.459-.678-.797-.24-.687-.195-1.427-.198-2.144h4.768c.001-.97-.01-1.95-.213-2.9-.169-.761-.523-1.525-1.169-1.977-.73-.513-1.657-.591-2.519-.53-.872.056-1.777.379-2.344 1.09zm1.848 1.012c.403-.603 1.456-.601 1.788.072.27.545.265 1.174.303 1.77h-2.463c-.007-.627.003-1.31.372-1.842z"/>
    </g>
</svg>
