<svg xmlns="http://www.w3.org/2000/svg" width="32" height="32" viewBox="0 0 32 32">
    <g fill="none" fill-rule="evenodd">
        <circle cx="16" cy="16" r="15.5" stroke="#FFF"/>
        <path fill="#FFF" fill-rule="nonzero" d="M13.791 16.259a3.223 3.223 0 0 0 1.666-2.82v-.009c0-1.574.821-2.978 2.14-3.743a14.876 14.876 0 0 0-1.598-.087c-2.454 0-4.896.61-7.062 1.765-.102.054-.109.066-.116.08-.017.029-.022.04-.02.093a15.051 15.051 0 0 0 .426 3.127 3.274 3.274 0 0 0 2.992 2c.55 0 1.094-.14 1.572-.406zm3.87.938a2.186 2.186 0 0 0-.076-.044l-.03-.018A3.23 3.23 0 0 0 16 16.738a3.223 3.223 0 0 0-1.685.473 4.32 4.32 0 0 1-2.096.541 4.325 4.325 0 0 1-2.127-.566 15.174 15.174 0 0 0 5.672 6.594c.06.038.1.054.245.054.13 0 .163-.013.227-.053a15.006 15.006 0 0 0 2.337-1.838c.429-.564.665-1.26.665-1.964a3.26 3.26 0 0 0-1.577-2.782zm5.519-5.753c-.008-.013-.015-.025-.117-.08a14.99 14.99 0 0 0-2.788-1.142 3.243 3.243 0 0 0-3.732 3.163v.041a3.22 3.22 0 0 0 1.563 2.773l.014.01a4.349 4.349 0 0 1 2.202 3.728 15.174 15.174 0 0 0 2.878-8.4c.001-.053-.003-.062-.02-.093z"/>
    </g>
</svg>
