<svg xmlns="http://www.w3.org/2000/svg" width="32" height="32" viewBox="0 0 32 32">
    <g fill="none" fill-rule="evenodd">
        <circle cx="16" cy="16" r="15.5" stroke="#FFF"/>
        <path fill="#FFF" fill-rule="nonzero" d="M21.476 17.7a3.532 3.532 0 0 0-1.715-.427l.004-.002c-.798.009-1.453-.606-1.462-1.373-.01-.756.613-1.378 1.395-1.404l-.001-.001a3.529 3.529 0 0 0 1.737-.464c1.632-.932 2.169-2.959 1.199-4.527s-3.08-2.083-4.713-1.151c-1.632.932-2.168 2.959-1.198 4.527.404.653.18 1.498-.5 1.886-.67.383-1.533.18-1.945-.452v.002a3.357 3.357 0 0 0-1.282-1.217c-1.653-.898-3.75-.338-4.685 1.25-.934 1.589-.35 3.604 1.303 4.501 1.653.898 3.75.337 4.684-1.25l.017-.03v.002c.397-.64 1.256-.863 1.935-.494.69.374.932 1.213.543 1.875-.934 1.588-.351 3.603 1.302 4.5 1.653.898 3.75.338 4.685-1.25.934-1.589.35-3.604-1.303-4.5z"/>
    </g>
</svg>
