<svg xmlns="http://www.w3.org/2000/svg" width="32" height="32" viewBox="0 0 32 32">
    <g fill="none" fill-rule="evenodd">
        <circle cx="16" cy="16" r="15.5" stroke="#FFF"/>
        <path fill="#FFF" fill-rule="nonzero" d="M15.537 19.076h5.362v2.695h-3.3c.055.77.083 1.485.138 2.255h-2.778V21.8h-3.3c0-.88-.11-1.76.055-2.585.083-.44.578-.825.88-1.21a374.069 374.069 0 0 1 3.163-3.685c.412-.467.825-.907 1.292-1.43h-5.142v-2.695h3.052V7.94h2.668v2.2h3.327c0 .908.11 1.788-.055 2.613-.082.44-.577.825-.907 1.21a374.754 374.754 0 0 1-3.163 3.685c-.412.495-.825.934-1.292 1.43z"/>
    </g>
</svg>
