<svg xmlns="http://www.w3.org/2000/svg" width="85" height="30" viewBox="0 0 85 30">
    <g fill="none" fill-rule="evenodd">
        <g fill="#89C1E9" fill-rule="nonzero">
            <path d="M29.627 19.623c-2.119 5.08-7.464 8-12.857 7.024-5.394-.977-9.39-5.587-9.612-11.092-.222-5.504 3.388-10.426 8.685-11.839 5.297-1.413 10.86 1.061 13.382 5.952h3.417C30.382 3.834 24.729.046 18.502.193 12.275.341 6.806 4.392 4.822 10.327H.856L0 12.834h4.214c-.111.74-.168 1.489-.168 2.238 0 .3.011.598.03.894H.854L0 18.473h4.44c1.52 6.509 7.173 11.2 13.818 11.467 6.646.269 12.654-3.951 14.688-10.317h-3.319z"/>
            <path d="M34 13.147h-7.52l-.017.05a2.204 2.204 0 0 0-2.472-.918 2.22 2.22 0 0 0-1.588 2.114 2.22 2.22 0 0 0 1.555 2.14 2.204 2.204 0 0 0 2.486-.88h6.757L34 13.147z"/>
        </g>
        <path fill="#FFF" d="M54.523 6.746l-1.253 2.52c-.68-.68-1.774-1.02-3.282-1.02-1.43 0-2.601.6-3.515 1.799-.914 1.2-1.371 2.717-1.371 4.553 0 1.836.423 3.293 1.271 4.37.848 1.079 1.979 1.618 3.393 1.618 1.617 0 2.882-.578 3.797-1.734l1.417 2.46c-1.242 1.32-3.062 1.981-5.46 1.981-2.399 0-4.262-.79-5.59-2.367-1.328-1.578-1.992-3.73-1.992-6.457 0-2.54.736-4.662 2.208-6.37 1.473-1.706 3.358-2.56 5.655-2.56 1.969 0 3.543.402 4.722 1.207zM67.461 23l-1.254-3.48h-5.883L59.13 23h-3.387l6.844-17.402h1.336L70.824 23h-3.363zm-4.207-12.152l-2.063 6.34h4.125l-2.062-6.34zm12.434 5.836V23H72.64V5.844c2.03-.086 3.218-.13 3.562-.13 2.711 0 4.693.417 5.947 1.249 1.254.832 1.881 2.13 1.881 3.896 0 3.938-2.32 5.907-6.96 5.907-.344 0-.805-.028-1.383-.082zm0-8.204v5.497c.515.054.921.082 1.218.082 1.39 0 2.406-.233 3.047-.698.64-.465.961-1.22.961-2.267 0-1.782-1.434-2.672-4.3-2.672-.321 0-.63.02-.927.058z"/>
    </g>
</svg>
