<svg xmlns="http://www.w3.org/2000/svg" width="15" height="15" viewBox="0 0 15 15">
    <g fill="#FF001F" fill-rule="evenodd">
        <circle cx="7.5" cy=".833" r="1"/>
        <circle cx="7.5" cy="3.056" r="1"/>
        <circle cx="9.722" cy="3.056" r="1"/>
        <circle cx="5.278" cy="3.056" r="1"/>
        <circle cx="7.5" cy="5.278" r="1"/>
        <circle cx="9.722" cy="5.278" r="1"/>
        <circle cx="11.944" cy="5.278" r="1"/>
        <circle cx="5.278" cy="5.278" r="1"/>
        <circle cx="3.056" cy="5.278" r="1"/>
        <circle cx="7.5" cy="7.5" r="1"/>
        <circle cx="9.722" cy="7.5" r="1"/>
        <circle cx="11.944" cy="7.5" r="1"/>
        <circle cx="14.167" cy="7.5" r="1"/>
        <circle cx="5.278" cy="7.5" r="1"/>
        <circle cx="3.056" cy="7.5" r="1"/>
        <circle cx=".833" cy="7.5" r="1"/>
        <circle cx="7.5" cy="9.722" r="1"/>
        <circle cx="9.722" cy="9.722" r="1"/>
        <circle cx="5.278" cy="9.722" r="1"/>
        <circle cx="7.5" cy="11.944" r="1"/>
        <circle cx="9.722" cy="11.944" r="1"/>
        <circle cx="5.278" cy="11.944" r="1"/>
        <circle cx="7.5" cy="14.167" r="1"/>
        <circle cx="9.722" cy="14.167" r="1"/>
        <circle cx="5.278" cy="14.167" r="1"/>
    </g>
</svg>
