<svg xmlns="http://www.w3.org/2000/svg" width="15" height="12" viewBox="0 0 15 12">
    <g fill="#FF001F" fill-rule="evenodd">
        <path d="M7 2h1v1H7zM7 4h1v1H7zM7 6h1v1H7zM7 8h1v1H7zM6 3h1v1H6zM5 4h1v1H5zM5 6h1v1H5zM5 8h1v1H5zM6 5h1v1H6zM4 5h1v1H4zM3 6h1v1H3zM3 8h1v1H3zM3 10h1v1H3zM5 10h1v1H5zM7 10h1v1H7zM9 10h1v1H9zM2 7h1v1H2zM2 5h1v1H2zM1 6h1v1H1zM0 7h1v1H0zM3 4h1v1H3zM4 3h1v1H4zM5 2h1v1H5zM6 1h1v1H6zM7 0h1v1H7zM8 1h1v1H8zM9 2h1v1H9zM10 3h1v1h-1zM11 4h1v1h-1zM12 5h1v1h-1zM13 6h1v1h-1zM14 7h1v1h-1zM4 7h1v1H4zM4 9h1v1H4zM6 7h1v1H6zM6 9h1v1H6zM8 7h1v1H8zM8 9h1v1H8zM10 7h1v1h-1zM10 9h1v1h-1zM12 7h1v1h-1zM8 3h1v1H8zM9 4h1v1H9zM9 6h1v1H9zM9 8h1v1H9zM8 5h1v1H8zM10 5h1v1h-1zM11 6h1v1h-1zM11 8h1v1h-1zM11 10h1v1h-1z"/>
    </g>
</svg>
