<svg xmlns="http://www.w3.org/2000/svg" width="32" height="32" viewBox="0 0 32 32">
    <g fill="none" fill-rule="evenodd">
        <path fill="#FFF" fill-rule="nonzero" d="M15.8 8.844c-.284.11-.356.514-.135.718.208.213.616.138.723-.14.186-.343-.24-.758-.589-.58l.001.002zm-3.75.397c-.294.077-.326.534-.04.643.215.116.522-.065.5-.31.02-.229-.247-.42-.46-.333zm7.68.65c.225.056.392-.124.445-.32-.037-.231-.264-.453-.51-.335-.319.103-.266.615.064.654zm-6.826.92c-.332.166-.377.664-.076.88.31.277.862.04.88-.368.055-.405-.45-.733-.804-.513zm5.404.233c-.197.39.2.837.62.76.316-.104.535-.48.357-.783-.18-.39-.82-.377-.977.023zm-2.96.737c-.019.28.186.51.428.628.159.01.33.039.476-.041.319-.138.476-.554.3-.857-.095-.218-.335-.311-.556-.355-.333.024-.651.28-.648.625zm-5.575.502c-.282.127-.321.557-.073.736.235.19.643.069.71-.23.123-.345-.313-.702-.637-.507zm11.972-.002c-.282.17-.25.624.05.757.271.16.663-.074.644-.385.033-.34-.42-.581-.694-.37v-.002zm-4.829.62c-.564.168-.899.842-.669 1.38.202.601 1.002.88 1.55.551.527-.279.708-1.018.367-1.503a1.093 1.093 0 0 0-1.248-.429zm-2.656.052c-.535.235-.78.928-.504 1.439.248.527.968.744 1.478.458.51-.254.73-.938.445-1.43-.242-.504-.918-.7-1.42-.467zm-2.66.894c-.073.374.265.754.653.72.352.002.609-.317.63-.643a.711.711 0 0 0-.632-.624c-.308.022-.612.23-.651.547zm7.856-.477c-.427.198-.458.853-.047 1.085.395.28 1.006-.056.98-.532.017-.45-.535-.78-.933-.553zm-6.276 1.678c-.632.15-1.001.913-.697 1.483.265.621 1.182.804 1.68.349.388-.31.49-.899.24-1.322-.228-.42-.76-.636-1.224-.51zm5.037-.002c-.635.17-.971.963-.637 1.524.276.543 1.052.725 1.553.378.478-.299.631-.99.31-1.453-.243-.406-.774-.576-1.226-.45zm-8.029.528c-.385.107-.5.657-.19.904.264.263.775.13.875-.226.162-.392-.283-.827-.685-.678zm10.887.569c.067.152.148.312.305.39.338.183.814-.08.789-.47.022-.295-.246-.513-.521-.556a.608.608 0 0 0-.573.636zm-12.861-.376c-.2.09-.287.357-.141.53.164.25.613.135.625-.164.056-.264-.243-.47-.484-.366zm15.235-.006c-.283.149-.172.663.171.632.245.037.454-.256.34-.47-.068-.196-.34-.28-.51-.162zm-8.957 1.435c-.476.101-.843.546-.841 1.024-.017.5.378.977.881 1.057.651.15 1.324-.427 1.283-1.078-.004-.644-.688-1.166-1.324-1.003zm2.517-.001a1.076 1.076 0 0 0-.79.785c-.168.573.274 1.22.874 1.297.637.127 1.29-.431 1.255-1.07.01-.659-.693-1.19-1.338-1.012zm-4.855.396c-.482.048-.737.686-.396 1.034.29.364.948.243 1.08-.202.182-.416-.237-.907-.683-.832zm7.385.02c-.48.15-.562.873-.12 1.117.389.273.993-.05.977-.517.03-.426-.459-.764-.857-.6zm2.064 2.036c.105.29.545.359.74.117.143-.13.107-.333.086-.502-.102-.105-.215-.23-.376-.226-.323-.053-.606.325-.45.611zm-11.831-.532c-.288.144-.298.594-.02.752.259.174.652 0 .687-.308.069-.347-.366-.641-.667-.443v-.001zm5.958.642c-.475.15-.547.868-.118 1.111.386.284 1.008-.043.979-.516.037-.428-.466-.766-.86-.595zm-2.76.634c-.236.087-.333.344-.337.575.081.211.246.435.498.44.305.045.606-.214.596-.518.03-.37-.42-.671-.756-.497zm5.59.005c-.337.17-.375.682-.063.895.322.272.878.007.869-.407.033-.396-.46-.699-.805-.488zm.973 2.364c.158.266.618.172.648-.138.042-.23-.17-.378-.37-.418-.251.052-.432.328-.278.557v-.001zm-7.717-.199c.022.262.311.488.56.323.277-.146.183-.615-.133-.637-.218-.047-.366.133-.427.314zm3.724.21c-.112.27.155.598.45.564.158.004.28-.107.376-.218.018-.075.037-.15.058-.225-.04-.144-.084-.313-.239-.379-.232-.142-.585-.011-.646.257z"/>
        <circle cx="16" cy="16" r="15.5" stroke="#FFF"/>
    </g>
</svg>
