<svg xmlns="http://www.w3.org/2000/svg" width="32" height="32" viewBox="0 0 32 32">
    <g fill="none" fill-rule="evenodd">
        <circle cx="16" cy="16" r="15.5" stroke="#FFF"/>
        <path fill="#FFF" fill-rule="nonzero" d="M12.379 15.563l1.221-2.59-3.739 3.741-.861.86 2.726 2.7-.569-2.122 1.222-2.59-1.222 2.59 3.81-3.81-1.367-1.368-1.221 2.59zm1.47-4.406l3.809 3.81L14.426 9l-2.702 2.726 2.124-.569zm4.303 9.686l-3.81-3.81L17.574 23l2.7-2.726-2.122.569zm.676-9.505l1.446.386.57 2.123-3.81 3.81 1.366 1.368 4.6-4.6-1.147-4.28L17.573 9l-.54.543 1.795 1.795zM14.426 23l.54-.543-1.794-1.796-1.446-.387L9 17.574l1.148 4.278L14.426 23zM23 17.574l-.543-.54-1.795 1.794-.388 1.446-2.7 2.726 4.28-1.147L23 17.573zM9 14.426l.543.54 1.795-1.795.386-1.445L14.426 9l-4.278 1.147L9 14.427zm10.024-.828l-3.738-3.736-.86-.862 3.232 5.967 1.367-1.369h-.001zM12.976 18.4l4.597 4.6-3.231-5.967-1.367 1.367h.001z"/>
    </g>
</svg>
