<svg xmlns="http://www.w3.org/2000/svg" width="32" height="32" viewBox="0 0 32 32">
    <g fill="none" fill-rule="evenodd">
        <circle cx="16" cy="16" r="15.5" stroke="#FFF"/>
        <path fill="#FFF" fill-rule="nonzero" d="M11 13.518v4.767h3.544c.051-.286.161-.553.315-.785L11 13.518zm0-1.07l4.378 4.517c.227-.161.487-.272.76-.325v-5.93L11 6v6.448zm9.65 9.957a5.753 5.753 0 0 0 1.35-3.36h-3.532c-.05.28-.158.547-.315.784l2.498 2.577v-.001zm-.52.536l-2.496-2.577a1.953 1.953 0 0 1-.76.326v3.643a5.396 5.396 0 0 0 3.257-1.393zm-9.118-3.898a5.755 5.755 0 0 0 1.35 3.362l2.497-2.576a2.084 2.084 0 0 1-.315-.786h-3.532zM22 18.286a5.753 5.753 0 0 0-1.35-3.362L18.154 17.5c.154.232.264.5.315.786H22zm-9.119 4.655a5.396 5.396 0 0 0 3.258 1.392V20.69a1.953 1.953 0 0 1-.761-.326l-2.497 2.576zm7.25-8.553a5.396 5.396 0 0 0-3.258-1.393v3.645c.278.053.536.166.76.325l2.498-2.577z"/>
    </g>
</svg>
