<svg xmlns="http://www.w3.org/2000/svg" width="32" height="32" viewBox="0 0 32 32">
    <g fill="none" fill-rule="evenodd">
        <circle cx="16" cy="16" r="15.5" stroke="#FFF"/>
        <path fill="#FFF" fill-rule="nonzero" d="M14.735 17.389l5.163 4.506h3.42l-2.987-2.608a4.827 4.827 0 0 0 2.898-5.391A4.802 4.802 0 0 0 18.522 10h-3.788l2.584 2.253h1.205a2.56 2.56 0 0 1 2.552 2.568 2.56 2.56 0 0 1-2.552 2.567h-3.789.001zm1.849-2.88L11.424 10h-3.42l2.984 2.608A4.827 4.827 0 0 0 8.09 18a4.802 4.802 0 0 0 4.705 3.895h3.787l-2.582-2.252h-1.206a2.56 2.56 0 0 1-2.552-2.567 2.56 2.56 0 0 1 2.552-2.567h3.789z"/>
    </g>
</svg>
