<svg xmlns="http://www.w3.org/2000/svg" width="32" height="32" viewBox="0 0 32 32">
    <g fill="none" fill-rule="evenodd">
        <circle cx="16" cy="16" r="15.5" stroke="#FFF"/>
        <path fill="#FFF" fill-rule="nonzero" d="M23.186 20.741l-2.233-8.577a.447.447 0 0 0-.077-.157l-4.119-5.43a.449.449 0 0 0-.713-.002l-4.168 5.43a.444.444 0 0 0-.079.161l-2.183 8.578c-.05.196.039.401.216.5l6.353 3.512a.45.45 0 0 0 .435 0l6.352-3.513a.445.445 0 0 0 .216-.502zm-1.59-2.552l-1.702-2.69.568-1.667 1.134 4.357zM16.848 8.177l3.17 4.18-.74 2.17-2.43-3.84v-2.51zm-.448 3.475l2.508 3.964-1.632 4.791h-1.767l-1.64-4.755 2.531-4zm-.448-3.488v2.523l-2.456 3.882-.763-2.212 3.22-4.193zm-3.656 5.673l.587 1.7-1.706 2.695 1.12-4.395zm.96 2.784l1.305 3.786H10.86l2.396-3.786zm-1.479 4.678h3.092l.729 2.113-3.82-2.113zm4.62 1.686l-.58-1.686h1.155l-.574 1.686zm.8.43l.721-2.116h3.105l-3.826 2.116zm1.025-3.008l1.301-3.82 2.417 3.82h-3.718z"/>
    </g>
</svg>
