<svg xmlns="http://www.w3.org/2000/svg" width="32" height="32" viewBox="0 0 32 32">
    <g fill="none" fill-rule="evenodd">
        <circle cx="16" cy="16" r="15.5" stroke="#FFF"/>
        <path fill="#FFF" fill-rule="nonzero" d="M23.16 12.8c-.686 0-1.267.554-1.267 1.267 0 1.002-.158 1.266-1.266 1.266h-.106a1.238 1.238 0 0 0-1.134 1.24v.027c0 .976-.185 1.213-1.267 1.213-.053 0-.106 0-.132.027-.633.079-1.135.607-1.135 1.24 0 .686.554 1.267 1.267 1.267.66 0 1.214-.528 1.24-1.161v-.106c0-.897.29-1.24 1.24-1.267h.027c.66 0 1.213-.527 1.24-1.187v-.08c0-.923.29-1.266 1.266-1.266.686 0 1.267-.554 1.267-1.266 0-.66-.554-1.214-1.24-1.214zm-7.441 2.533c.633.053 1.134.58 1.16 1.214a1.25 1.25 0 0 1-1.266 1.266c-.712 0-1.266-.58-1.266-1.266 0-.897-.29-1.24-1.267-1.24-.976 0-1.267.343-1.267 1.266v.08c-.026.633-.58 1.16-1.24 1.16-.712 0-1.266-.58-1.266-1.266 0-.66.501-1.187 1.134-1.24h.106c1.108 0 1.266-.238 1.266-1.24a1.267 1.267 0 0 1 2.534 0c0 1.002.158 1.266 1.266 1.266h.106zm-7.652 5.014a1.267 1.267 0 1 1 0-2.534 1.267 1.267 0 0 1 0 2.534z"/>
    </g>
</svg>
