<svg xmlns="http://www.w3.org/2000/svg" width="32" height="32" viewBox="0 0 32 32">
    <g fill="none" fill-rule="evenodd">
        <circle cx="16" cy="16" r="15.5" stroke="#FFF"/>
        <path fill="#FFF" fill-rule="nonzero" d="M15.672 10.412c.957 0 1.732-.533 1.732-1.192 0-.658-.775-1.19-1.732-1.19s-1.733.532-1.733 1.19c0 .659.776 1.192 1.733 1.192zm-.897 13.297a.28.28 0 0 0 .27.273h1.212c.142 0 .252-.13.252-.273V18.56h2.13c.142 0 .244-.122.244-.265v-7.06c0-.143-.101-.25-.244-.25h-3.864V23.71zm-.651-5.15v-7.574h-1.462c-.143 0-.272.107-.272.25v7.06c0 .143.129.265.271.265h1.463z"/>
    </g>
</svg>
