<svg xmlns="http://www.w3.org/2000/svg" width="32" height="32" viewBox="0 0 32 32">
    <g fill="none" fill-rule="evenodd">
        <circle cx="16" cy="16" r="15.5" stroke="#FFF"/>
        <path fill="#FFF" fill-rule="nonzero" d="M20.151 14.406a4.762 4.762 0 0 0-4.552-.27l-.002-.004c-.828.374-1.801.195-2.443-.448l-2.922-2.922-.002-.002a.991.991 0 0 1-.246-.774h-.002a1 1 0 1 0-.798.797v.001a1 1 0 0 1 .78.24l.003.003 2.935 2.936c.024.024.044.051.066.076.59.66.712 1.588.363 2.36l.003.002a4.766 4.766 0 0 0 .932 5.385 4.872 4.872 0 0 0 2.977 1.4c.28.024 4.281.01 4.281.01.217 0 .44-.107.594-.26.153-.154.281-.398.281-.615v-3.875c0-.193-.041-.47-.045-.51-.096-1.073-.552-2.049-1.37-2.867a4.752 4.752 0 0 0-.834-.663h.001zm.256 3.244c.112.553.119.796.119.832v1.964a.935.935 0 0 1-.25.624.937.937 0 0 1-.626.25h-1.906c-.037 0-.484-.004-.896-.118a2.882 2.882 0 0 1-1.256-4.806 2.888 2.888 0 0 1 4.074 0c.361.36.646.786.741 1.255z"/>
    </g>
</svg>
