<svg xmlns="http://www.w3.org/2000/svg" width="32" height="32" viewBox="0 0 32 32">
    <g fill="none" fill-rule="evenodd">
        <circle cx="16" cy="16" r="15.5" stroke="#FFF"/>
        <path fill="#FFF" fill-rule="nonzero" d="M22.346 11.634c0-1.843-.63-3.625-.63-3.625s-2.35-.161-4.317.898c-1.966 1.06-2.711 2.412-3.08 3.034-.369.623-1.137 1.951-1.137 1.951s-1.682-.03-3.01.707c-1.33.738-2.144 2.12-2.144 2.12s.884-.253 1.728-.23c.845.023 1.69.376 1.69.376s-.2.3-.161.737c.017.193.274.467.628.765-.056.072-.11.146-.163.22-1.262 1.783-1.55 3.748-.644 4.39.907.64 2.664-.284 3.925-2.067l.118-.17c.321.202.597.335.768.327.453-.023.845-.5.845-.5s.864 1.095 1.083 1.648c.219.553.3 1.544.3 1.544s.967-1.14 1.273-2.826c.305-1.685-.444-2.877-.444-2.877s.852-1.045 1.728-2.105 1.644-2.473 1.644-4.317zm-7.612 8.863c-.836 1.131-2.027 1.668-2.662 1.2-.634-.47-.471-1.766.364-2.897l.01-.014c.338.252.697.503.997.721.397.288.87.657 1.308.965l-.017.025zm3.195-5.798a1.882 1.882 0 1 1 0-3.764 1.882 1.882 0 0 1 0 3.764z"/>
    </g>
</svg>
