<svg xmlns="http://www.w3.org/2000/svg" xmlns:xlink="http://www.w3.org/1999/xlink" width="192" height="60" viewBox="0 0 192 60">
    <defs>
        <path id="b" d="M0 0h192v60H0z"/>
        <filter id="a" width="121.4%" height="168.3%" x="-10.7%" y="-25.8%" filterUnits="objectBoundingBox">
            <feMorphology in="SourceAlpha" operator="dilate" radius="1" result="shadowSpreadOuter1"/>
            <feOffset dy="5" in="shadowSpreadOuter1" result="shadowOffsetOuter1"/>
            <feGaussianBlur in="shadowOffsetOuter1" result="shadowBlurOuter1" stdDeviation="5"/>
            <feColorMatrix in="shadowBlurOuter1" values="0 0 0 0 0 0 0 0 0 0 0 0 0 0 0 0 0 0 0.3 0"/>
        </filter>
    </defs>
    <g fill="none" fill-rule="evenodd">
        <g fill-rule="nonzero">
            <use fill="#000" filter="url(#a)" xlink:href="#b"/>
            <use fill="#11142D" xlink:href="#b"/>
        </g>
        <g fill="#FFF" fill-rule="nonzero">
            <path d="M153 16h2.6v2.6H153zM158.2 19.9h2.6v2.6h-2.6zM163.4 23.8h2.6v2.6h-2.6zM168.6 27.7h2.6v2.6h-2.6zM163.4 31.6h2.6v2.6h-2.6zM158.2 35.5h2.6v2.6h-2.6zM153 39.4h2.6V42H153z"/>
        </g>
        <path fill="#FFF" d="M32.14 29h1.42v5.34a6.84 6.84 0 0 1-2.32 1.32 8.624 8.624 0 0 1-2.82.46c-1.4 0-2.66-.307-3.78-.92A6.79 6.79 0 0 1 22 32.65c-.64-1.087-.96-2.303-.96-3.65s.32-2.563.96-3.65a6.79 6.79 0 0 1 2.64-2.55c1.12-.613 2.387-.92 3.8-.92 1.067 0 2.047.17 2.94.51.893.34 1.647.843 2.26 1.51l-.92.94c-1.107-1.093-2.513-1.64-4.22-1.64-1.133 0-2.157.25-3.07.75a5.513 5.513 0 0 0-2.15 2.08c-.52.887-.78 1.877-.78 2.97 0 1.093.26 2.08.78 2.96a5.627 5.627 0 0 0 2.14 2.08c.907.507 1.927.76 3.06.76 1.44 0 2.66-.36 3.66-1.08V29zm14.46 2.18h-8.8c.08 1.093.5 1.977 1.26 2.65.76.673 1.72 1.01 2.88 1.01.653 0 1.253-.117 1.8-.35a3.932 3.932 0 0 0 1.42-1.03l.8.92c-.467.56-1.05.987-1.75 1.28-.7.293-1.47.44-2.31.44-1.08 0-2.037-.23-2.87-.69a4.975 4.975 0 0 1-1.95-1.91c-.467-.813-.7-1.733-.7-2.76 0-1.027.223-1.947.67-2.76a4.851 4.851 0 0 1 1.84-1.9c.78-.453 1.657-.68 2.63-.68.973 0 1.847.227 2.62.68a4.82 4.82 0 0 1 1.82 1.89c.44.807.66 1.73.66 2.77l-.02.44zm-7.63-3.59c-.687.647-1.077 1.49-1.17 2.53h7.46c-.093-1.04-.483-1.883-1.17-2.53-.687-.647-1.543-.97-2.57-.97-1.013 0-1.863.323-2.55.97zm16.09 7.77c-.267.24-.597.423-.99.55-.393.127-.803.19-1.23.19-.987 0-1.747-.267-2.28-.8-.533-.533-.8-1.287-.8-2.26v-6.36h-1.88v-1.2h1.88v-2.3h1.42v2.3h3.2v1.2h-3.2v6.28c0 .627.157 1.103.47 1.43.313.327.763.49 1.35.49.293 0 .577-.047.85-.14.273-.093.51-.227.71-.4l.5 1.02zm8.99.26c-.953-.333-1.69-.773-2.21-1.32l.58-1.14c.507.507 1.18.917 2.02 1.23.84.313 1.707.47 2.6.47 1.253 0 2.193-.23 2.82-.69.627-.46.94-1.057.94-1.79 0-.56-.17-1.007-.51-1.34a3.443 3.443 0 0 0-1.25-.77c-.493-.18-1.18-.377-2.06-.59-1.053-.267-1.893-.523-2.52-.77a4.138 4.138 0 0 1-1.61-1.13c-.447-.507-.67-1.193-.67-2.06 0-.707.187-1.35.56-1.93.373-.58.947-1.043 1.72-1.39s1.733-.52 2.88-.52c.8 0 1.583.11 2.35.33.767.22 1.43.523 1.99.91l-.5 1.18a6.881 6.881 0 0 0-1.88-.87 7.017 7.017 0 0 0-1.96-.29c-1.227 0-2.15.237-2.77.71-.62.473-.93 1.083-.93 1.83 0 .56.17 1.01.51 1.35.34.34.767.6 1.28.78.513.18 1.203.377 2.07.59 1.027.253 1.857.503 2.49.75.633.247 1.17.62 1.61 1.12.44.5.66 1.177.66 2.03 0 .707-.19 1.35-.57 1.93-.38.58-.963 1.04-1.75 1.38-.787.34-1.753.51-2.9.51a8.993 8.993 0 0 1-2.99-.5zm16.67-.26c-.267.24-.597.423-.99.55-.393.127-.803.19-1.23.19-.987 0-1.747-.267-2.28-.8-.533-.533-.8-1.287-.8-2.26v-6.36h-1.88v-1.2h1.88v-2.3h1.42v2.3h3.2v1.2h-3.2v6.28c0 .627.157 1.103.47 1.43.313.327.763.49 1.35.49.293 0 .577-.047.85-.14.273-.093.51-.227.71-.4l.5 1.02zm9.42-8.93c.733.687 1.1 1.703 1.1 3.05V36h-1.36v-1.64c-.32.547-.79.973-1.41 1.28-.62.307-1.357.46-2.21.46-1.173 0-2.107-.28-2.8-.84-.693-.56-1.04-1.3-1.04-2.22 0-.893.323-1.613.97-2.16.647-.547 1.677-.82 3.09-.82h3.34v-.64c0-.907-.253-1.597-.76-2.07-.507-.473-1.247-.71-2.22-.71-.667 0-1.307.11-1.92.33-.613.22-1.14.523-1.58.91l-.64-1.06c.533-.453 1.173-.803 1.92-1.05a7.475 7.475 0 0 1 2.36-.37c1.373 0 2.427.343 3.16 1.03zm-1.6 8c.573-.367 1-.897 1.28-1.59v-1.72h-3.3c-1.8 0-2.7.627-2.7 1.88 0 .613.233 1.097.7 1.45.467.353 1.12.53 1.96.53.8 0 1.487-.183 2.06-.55zm9.41-8.49c.66-.36 1.477-.54 2.45-.54v1.38l-.34-.02c-1.107 0-1.973.34-2.6 1.02-.627.68-.94 1.633-.94 2.86V36H95.1V25.48h1.36v2.06c.333-.707.83-1.24 1.49-1.6zm11.01 9.42c-.267.24-.597.423-.99.55-.393.127-.803.19-1.23.19-.987 0-1.747-.267-2.28-.8-.533-.533-.8-1.287-.8-2.26v-6.36h-1.88v-1.2h1.88v-2.3h1.42v2.3h3.2v1.2h-3.2v6.28c0 .627.157 1.103.47 1.43.313.327.763.49 1.35.49.293 0 .577-.047.85-.14.273-.093.51-.227.71-.4l.5 1.02zm11.36-4.18h-8.8c.08 1.093.5 1.977 1.26 2.65.76.673 1.72 1.01 2.88 1.01.653 0 1.253-.117 1.8-.35a3.932 3.932 0 0 0 1.42-1.03l.8.92c-.467.56-1.05.987-1.75 1.28-.7.293-1.47.44-2.31.44-1.08 0-2.037-.23-2.87-.69a4.975 4.975 0 0 1-1.95-1.91c-.467-.813-.7-1.733-.7-2.76 0-1.027.223-1.947.67-2.76a4.851 4.851 0 0 1 1.84-1.9c.78-.453 1.657-.68 2.63-.68.973 0 1.847.227 2.62.68a4.82 4.82 0 0 1 1.82 1.89c.44.807.66 1.73.66 2.77l-.02.44zm-7.63-3.59c-.687.647-1.077 1.49-1.17 2.53h7.46c-.093-1.04-.483-1.883-1.17-2.53-.687-.647-1.543-.97-2.57-.97-1.013 0-1.863.323-2.55.97zm20.15-6.43V36h-1.36v-2.08a4.33 4.33 0 0 1-1.69 1.62c-.7.373-1.49.56-2.37.56-.987 0-1.88-.227-2.68-.68a4.86 4.86 0 0 1-1.88-1.9c-.453-.813-.68-1.74-.68-2.78 0-1.04.227-1.967.68-2.78a4.791 4.791 0 0 1 1.88-1.89c.8-.447 1.693-.67 2.68-.67.853 0 1.623.177 2.31.53.687.353 1.25.87 1.69 1.55v-6.32h1.42zm-3.31 13.17a3.622 3.622 0 0 0 1.4-1.45c.34-.627.51-1.34.51-2.14s-.17-1.513-.51-2.14a3.622 3.622 0 0 0-1.4-1.45 3.93 3.93 0 0 0-1.99-.51c-.747 0-1.417.17-2.01.51-.593.34-1.06.823-1.4 1.45-.34.627-.51 1.34-.51 2.14s.17 1.513.51 2.14c.34.627.807 1.11 1.4 1.45.593.34 1.263.51 2.01.51a3.93 3.93 0 0 0 1.99-.51z"/>
    </g>
</svg>
