<svg xmlns="http://www.w3.org/2000/svg" width="255" height="74" viewBox="0 0 255 74">
    <g fill="none" fill-rule="evenodd">
        <path fill="#900B4C" d="M236.064 45.975a12.187 12.187 0 0 0-1.5-1.208 13.706 13.706 0 0 0-1.842-1.048 16.16 16.16 0 0 0-2.294-.854 45.24 45.24 0 0 1-.469 1.938c-.161.61-.34 1.207-.528 1.723a9.345 9.345 0 0 1-.336.848l8.179-.045c-.371-.48-.777-.932-1.214-1.354h.004z"/>
        <path fill="#C60552" d="M229.53 39.479c.055-.228.106-.456.155-.685l.155-.675a.792.792 0 0 1 .018-.08c.043-.194.085-.389.13-.58.056-.262.116-.528.175-.786a2.9 2.9 0 0 1 .064-.283.187.187 0 0 0 .009-.058.718.718 0 0 0 .027-.112c.028-.114.05-.231.08-.346.017-.072.031-.143.047-.214.007-.038.018-.073.025-.11.034-.156.072-.314.105-.462a.164.164 0 0 0 .013-.045c.01-.05.023-.1.035-.147.012-.046.017-.082.026-.126.04-.153.076-.304.112-.453.01-.04.022-.08.029-.12v-.013a.178.178 0 0 0 .011-.041c.02-.077.042-.154.055-.231a.574.574 0 0 0 .022-.077c.015-.046.023-.096.04-.14a.752.752 0 0 1 .02-.093c.028-.108.059-.214.087-.322a.91.91 0 0 1 .027-.097v-.008c.008-.029.017-.06.022-.087a.257.257 0 0 0 .021-.07c0-.023.014-.043.02-.067.027-.096.052-.192.08-.284 0-.02.013-.038.019-.058.006-.02 0-.013 0-.022a.461.461 0 0 1 .018-.05c.034-.112.063-.22.101-.326a.228.228 0 0 1 .013-.05c0-.008.006-.015.006-.018 0-.004.012-.037.016-.057.004-.02 0-.007 0-.01.024-.091.055-.177.084-.26.008-.013.009-.026.017-.038a.054.054 0 0 1 0-.02.228.228 0 0 0 .018-.04c.017-.056.037-.11.058-.161a.095.095 0 0 1 .01-.033c.007-.024.017-.05.022-.075a.07.07 0 0 0 .012-.026.083.083 0 0 0 .012-.033s0-.009.007-.015a.266.266 0 0 0 .026-.067l.04-.095c.015-.046.033-.092.053-.136 0-.009 0-.016.01-.024a.022.022 0 0 0 0-.013c.011-.016.016-.034.025-.049a.916.916 0 0 0 .04-.093.064.064 0 0 1 .012-.023.19.19 0 0 1 .014-.034c.01-.022.02-.04.027-.06a.556.556 0 0 0 .033-.06.016.016 0 0 0 0-.01.7.7 0 0 1 .035-.07l.027-.053a1.395 1.395 0 0 1 .118-.173v-.007c0-.008 0 0 0 0s0-.01.009-.015a.407.407 0 0 1 .042-.069.36.36 0 0 0 .024-.043c0-.007.015-.016.015-.023 0 0 .01-.01.01-.016a.712.712 0 0 0 .059-.082s.006-.006.006-.009a.073.073 0 0 0 .02-.02.046.046 0 0 1 .015-.017.081.081 0 0 1 .022-.03l.04-.045v-.009c0-.006.01-.014.016-.021.005-.008 0 0 .006-.007.006-.006 0 0 0 0a.171.171 0 0 1 .05-.045c0-.006.008-.009.01-.015a.02.02 0 0 0 .01 0c.01-.008.015-.017.026-.022.01-.005.007-.007.007-.011l.02-.013a.09.09 0 0 1 .023-.014c0-.007 0-.007.01-.01h.013a.19.19 0 0 1 .035-.027l.026-.014H232.545a.443.443 0 0 1 .047-.02h.017s.009 0 .018-.007h.008l.027-.006a.132.132 0 0 1 .037-.01h.031c-3.248.399-6.505.818-9.77 1.259-.044.006-.085.015-.13.024v.006a.074.074 0 0 0-.037.01.492.492 0 0 0-.089.03.013.013 0 0 0-.009 0 2.012 2.012 0 0 0-.132.061.18.18 0 0 0-.028.019.78.78 0 0 0-.09.052l-.012.011c-.04.026-.079.054-.116.085h-.009a.305.305 0 0 0-.028.029v.012c.028.092.058.185.09.278.05.18.103.357.16.535.14.443.276.886.41 1.329.036.118.068.238.107.358.142.455.28.913.421 1.368.143.454.273.895.412 1.34l.403 1.291c.132.424.259.833.396 1.235.239.03.478.064.718.098.164.026.328.055.49.083l.197.034a30.578 30.578 0 0 1 1.308.266 23.702 23.702 0 0 1 1.025.261l.492.15.47.147c.054-.226.107-.454.158-.682l-.006.002z"/>
        <path fill="#B40951" d="M228.1 48.275c-.018 0-.036 0-.056-.008l-.055-.01-.023-.008a.233.233 0 0 1-.032-.01.22.22 0 0 1-.053-.017.343.343 0 0 1-.06-.022l-.032-.014-.01-.006s-.008 0-.012-.008a.64.64 0 0 0-.06-.027c-.015-.011-.034-.02-.054-.033-.02-.012-.04-.024-.058-.038l-.015-.011a.157.157 0 0 0-.034-.03.483.483 0 0 1-.058-.044c-.014-.014-.037-.029-.055-.044a.243.243 0 0 1-.046-.042h-.007a.016.016 0 0 1-.008-.011s-.015-.009-.025-.018a.273.273 0 0 0-.029-.03l-.031-.03a.167.167 0 0 1-.03-.03.843.843 0 0 0-.057-.06.543.543 0 0 1-.056-.066c-.016-.021-.043-.046-.061-.07a.431.431 0 0 1-.058-.072 1.105 1.105 0 0 1-.055-.067c-.016-.022 0-.007-.01-.009-.01 0 0-.008 0-.01a.754.754 0 0 1-.05-.07c-.021-.027-.042-.05-.063-.082-.02-.033-.04-.057-.059-.088a.335.335 0 0 1-.058-.084l-.065-.1a.832.832 0 0 1-.057-.087c-.022-.031-.042-.064-.064-.098 0-.006 0-.01-.01-.018-.009-.007 0-.01-.01-.012-.01-.023-.023-.043-.037-.072a.828.828 0 0 1-.069-.112c-.014-.02-.025-.04-.036-.059a.036.036 0 0 0-.012-.022.524.524 0 0 0-.034-.057v-.008c-.064-.12-.131-.24-.2-.372v-.008a.235.235 0 0 1-.025-.046c-.021-.042-.045-.094-.073-.14-.033-.074-.076-.15-.112-.228-.01-.02-.02-.037-.031-.062-.01-.024-.025-.051-.037-.079-.011-.028-.045-.095-.068-.142-.022-.047-.05-.106-.076-.166-.024-.06-.048-.107-.073-.162a.954.954 0 0 1-.046-.09c-.01-.018-.015-.036-.024-.056-.06-.133-.12-.275-.184-.415-.007-.021-.015-.045-.027-.07a.157.157 0 0 1-.016-.03c0-.012-.009-.021-.012-.032a1.272 1.272 0 0 1-.048-.118c-.033-.072-.064-.154-.095-.23-.032-.076-.078-.173-.109-.262a.678.678 0 0 0-.024-.049c-.045-.114-.092-.24-.14-.36a7.253 7.253 0 0 1-.103-.25c-.008-.029-.022-.057-.034-.088-.048-.126-.102-.26-.153-.391a1.058 1.058 0 0 0-.03-.083c-.025-.074-.059-.147-.086-.22a.128.128 0 0 0-.016-.036c-.09-.251-.187-.503-.283-.764-.345 0-.7.014-1.059.029a39.474 39.474 0 0 0-3.441.308c-.751.099-1.532.225-2.33.372-1.047.194-2.12.421-3.234.7-.754.186-1.53.4-2.317.628.08.161.167.324.252.482a.069.069 0 0 0 .01.025c.095.177.193.35.287.519.012.018.02.04.033.058a.204.204 0 0 0 .026.045c.089.16.18.316.261.469.019.026.03.05.046.074.04.073.087.14.131.207.034.049.058.096.09.141.033.046.072.12.104.169.066.103.13.2.2.298a17.032 17.032 0 0 0 .364.512c0 .007.015.013.019.023.075.099.148.19.222.282.01.01.018.021.025.033l.111.12c.055.068.117.133.173.198.034.039.077.076.111.12l.164.16.116.102c.053.047.109.09.166.132a.52.52 0 0 0 .063.052c.034.022.062.047.097.066l.027.02a3.488 3.488 0 0 0 .26.151c.078.035.152.067.224.095.012 0 .023.008.036.01.071.025.145.046.22.06h.027c.077.014.154.022.233.023l12.259.08H228.1z"/>
        <path fill="#C60552" d="M226.022 43.62c.03.06.057.12.081.177l.026.047c.04.092.083.176.115.255.107.224.229.441.365.65.073.109.16.208.259.297a.25.25 0 0 0 .154.073h.018a.065.065 0 0 0 .02 0h.011l.015-.007c.113-.088.208-.195.28-.315.11-.169.204-.346.283-.53.095-.205.184-.442.277-.696.019-.05.034-.104.05-.158l.082-.244a.068.068 0 0 1 .013-.032l.116-.373c-.9-.17-1.811-.288-2.727-.35l.55 1.217.012-.011z"/>
        <path fill="#B40951" d="M211.648 38.95c.01.002.021.002.032 0l.045-.009c.067-.014.137-.025.202-.038.03-.006.065-.014.097-.019l.24-.039c.337-.06.668-.115.996-.168.103-.018.212-.033.317-.049l.048-.007c.342-.053.678-.1 1.007-.14l.098-.015c.032 0 .062-.007.088-.011a62.215 62.215 0 0 1 1.23-.134c.095-.01.196-.016.288-.027a53.52 53.52 0 0 1 1.099-.086c.305-.02.608-.032.91-.046a35.202 35.202 0 0 1 3.48.02c-.075-.247-.158-.495-.232-.745-.075-.25-.16-.506-.24-.76l-.238-.784c-.08-.264-.165-.529-.252-.793-.087-.265-.152-.5-.234-.754-.017-.052-.036-.102-.046-.15l-.188-.6c-.037-.127-.077-.244-.116-.368-.024-.068-.042-.134-.064-.199v-.014c-.04-.126-.077-.253-.126-.38-.028-.1-.066-.2-.096-.299-.053-.175-.113-.352-.166-.527l-.094-.304a83.48 83.48 0 0 0-.392-1.204c-.034-.127-.075-.244-.117-.369-.053-.16-.105-.324-.158-.487a190.74 190.74 0 0 0-.568-1.698v-.01c-.043-.118-.08-.234-.126-.35-.104-.303-.204-.605-.313-.904-.08-.231-.164-.457-.246-.685-.062-.18-.125-.364-.19-.539v-.011c-.036-.09-.069-.177-.103-.269-.034-.09-.079-.215-.126-.323-.031-.086-.064-.164-.091-.247-.043-.116-.089-.227-.126-.34a7.773 7.773 0 0 0-.104-.267c-.036-.088-.078-.205-.117-.305l-.1-.254c-.035-.09-.072-.186-.114-.274a.071.071 0 0 0-.01-.032c-.078-.193-.158-.38-.236-.57a9.947 9.947 0 0 0-.472-1.063c-.03-.068-.062-.126-.088-.196-.027-.07-.063-.126-.09-.19-.018-.036-.039-.067-.054-.1a1.58 1.58 0 0 0-.046-.092c-.017-.03-.04-.088-.063-.127-.033-.06-.066-.127-.095-.184a8.43 8.43 0 0 0-.115-.215c-.038-.068-.063-.114-.093-.172-.03-.059-.073-.127-.114-.197-.04-.07-.061-.102-.09-.15-.027-.049-.077-.127-.112-.184-.032-.042-.062-.09-.092-.133-.03-.043-.073-.105-.112-.155-.04-.05-.054-.082-.08-.127-.027-.044-.079-.09-.113-.135a1.058 1.058 0 0 1-.08-.095 1.568 1.568 0 0 0-.125-.12.505.505 0 0 0-.07-.068.979.979 0 0 0-.177-.142 3.354 3.354 0 0 0-.251-.15.62.62 0 0 0-.088-.041c-.054-.028-.111-.054-.164-.08-.053-.025-.073-.023-.108-.038a1.536 1.536 0 0 0-.275-.08c-.049-.012-.1-.026-.154-.035-.054-.009-.08-.009-.126-.017-.047-.007-.1-.012-.154-.017H212.612l-.126.009c-.054 0-.107.01-.163.02l-.136.02-.165.036c-.778.182-1.626.662-2.546 1.463-.881.76-1.829 1.817-2.843 3.178-.14.189-.28.38-.42.574a46.822 46.822 0 0 0-1.383 2.06c-.32.5-.642 1.028-.97 1.58l.023.053c.027.054.056.104.08.159.051.101.101.204.15.308a16 16 0 0 0 .101.207v.01c0 .003.006 0 .006.01.102.212.206.434.305.653.064.137.126.265.188.405v.007c.164.36.333.724.503 1.092 0 .008.009.016.009.02a233.576 233.576 0 0 1 .72 1.667c.025.054.057.135.083.203.056.126.108.243.154.364.266.634.525 1.252.776 1.866l.049.117.601 1.484c.014.03.026.06.036.091.094.234.187.464.279.687l.284.707.704 1.753c-2.007.154-4.013.315-6.017.47-.386.033-.773.064-1.164.102-.137.013-.28.03-.42.042-.252.027-.504.05-.77.081-.142.015-.293.036-.436.052-.264.029-.53.06-.795.095l-.515.067c-.238.03-.481.066-.726.1l-.608.09-.155.023c-.086.2-.18.4-.267.598-.01.026-.022.052-.034.078-.411.93-.806 1.842-1.182 2.726-.031.079-.065.157-.098.237l-.251.59.365-.165c.125-.05.251-.108.367-.161.116-.053.245-.103.365-.157.12-.055.256-.104.381-.157.054-.023.106-.043.158-.068.051-.024.103-.043.154-.062.052-.019.104-.046.158-.068l.155-.067c.056-.026.12-.046.18-.071.206-.086.414-.175.617-.254l.368-.147a.4.4 0 0 1 .058-.025c.082-.032.167-.067.252-.097.317-.127.629-.254.942-.37.053-.023.105-.042.157-.063.053-.02.109-.038.163-.06l.077-.03c.086-.032.168-.059.251-.093l.867-.318c.057-.022.116-.045.174-.064.087-.033.172-.06.258-.09.274-.098.549-.193.826-.289.083-.029.17-.058.251-.088l.08-.024a47.056 47.056 0 0 1 .972-.32l.216-.07.156-.049c.097-.034.191-.06.288-.088.195-.062.391-.127.585-.184l.088-.023c.022-.008.044-.016.063-.021l.191-.057.04-.012c.095-.028.184-.057.279-.081l.484-.14.328-.088c.114-.034.23-.067.343-.096l.155-.042.278-.075c.063-.018.126-.033.189-.048.019-.008.04-.011.06-.02.16-.038.321-.079.48-.126.053-.011.108-.025.156-.04l.126-.03.377-.092c.077-.016.157-.034.228-.053h.026c.138-.034.275-.064.41-.095h.018c.194-.048.378-.089.57-.127l.116-.025.04-.01c.094-.02.192-.038.28-.059l.278-.057c.165-.034.333-.067.503-.099.08-.017.159-.03.242-.048l-.014-.005z"/>
        <path fill="#D80057" d="M195.987 28.614l.618-1.023c.067-.1.128-.2.191-.304.154-.253.31-.5.467-.745.062-.106.128-.208.194-.312.213-.338.427-.671.642-1 .137-.212.275-.418.412-.627.013-.016.022-.033.034-.05.046-.07.09-.14.14-.21.077-.117.153-.235.234-.35.02-.033.046-.07.069-.103.055-.078.105-.156.16-.232.056-.076.112-.172.173-.253.034-.05.074-.102.108-.158.054-.075.106-.152.158-.226.051-.075.087-.127.135-.194l.177-.253h.006a4.273 4.273 0 0 1 .2-.285c.007-.015.02-.027.029-.045.053-.07.104-.144.16-.219.057-.075.087-.12.129-.178.042-.058.065-.091.1-.134a.71.71 0 0 1 .041-.06c.04-.052.077-.106.121-.157.045-.073.1-.141.153-.212.028-.044.064-.089.094-.127a23.831 23.831 0 0 0 .307-.404l.072-.098.04-.053c.028-.033.05-.06.075-.094.057-.077.112-.151.175-.226.063-.075.1-.135.156-.201l.025-.034a.45.45 0 0 0 .03-.04l.153-.19c.059-.074.12-.151.18-.223a.573.573 0 0 1 .075-.097c.034-.046.072-.09.11-.135.057-.065.11-.135.164-.203.027-.03.054-.061.078-.094.025-.033.076-.09.115-.139a6.572 6.572 0 0 1 .128-.145.156.156 0 0 1 .027-.037l.11-.127c.038-.045.079-.09.116-.136.037-.046.079-.091.116-.138.037-.047.096-.106.142-.16.047-.053.075-.087.115-.126.04-.04.054-.06.085-.094.056-.067.118-.135.18-.202.034-.037.066-.076.104-.113.012-.016.033-.034.048-.054a.117.117 0 0 0 .023-.028c.017-.014.031-.03.047-.045.061-.069.128-.142.19-.207l.055-.056a.149.149 0 0 1 .027-.03c.077-.078.15-.158.225-.232l.083-.088a1.31 1.31 0 0 1 .072-.073c.052-.052.1-.102.153-.15.053-.049.129-.127.184-.188.026-.026.049-.047.076-.07a.553.553 0 0 0 .061-.063l.015-.016.042-.038a14.342 14.342 0 0 0 .281-.266l.153-.137c.032-.034.066-.066.102-.095l.045-.042c.036-.032.072-.065.11-.096l.095-.087c.013-.01.02-.018.032-.026.085-.074.17-.141.248-.211l.077-.065.029-.022a.15.15 0 0 1 .025-.024c.122-.103.25-.201.372-.296a.352.352 0 0 1 .03-.026c.013-.012.031-.024.045-.035a1.66 1.66 0 0 1 .081-.06l.208-.159.14-.097c.047-.037.096-.07.14-.103l.026-.016a.605.605 0 0 0 .06-.043l.078-.052c.011-.009.03-.018.046-.03.033-.022.066-.045.096-.07l.19-.12a.286.286 0 0 0 .069-.044l.074-.043h.008c.007 0 .022-.013.03-.02.119-.069.233-.137.349-.202l.04-.023.027-.013a.103.103 0 0 1 .03-.017.215.215 0 0 0 .034-.021c.128-.069.257-.136.385-.196l.027-.012a.096.096 0 0 1 .02-.01l.05-.023a6.77 6.77 0 0 1 .344-.15l.046-.026h.01a.284.284 0 0 1 .054-.019l.045-.019a.565.565 0 0 1 .067-.026c.057-.022.11-.042.167-.06a.095.095 0 0 1 .022-.01.191.191 0 0 1 .032-.01.478.478 0 0 1 .063-.023h.012l.028-.01.16-.052-14.992 4.544c-.217.067-.438.14-.66.223l-.029.011-.05.023a10.3 10.3 0 0 0-.596.239c-.044.022-.09.042-.136.062a8.52 8.52 0 0 0-.501.24c-.072.032-.143.07-.215.108-.152.077-.308.16-.462.253-.045.024-.09.044-.135.07-.045.027-.075.045-.11.064a.402.402 0 0 0-.056.034l-.094.054c-.088.05-.173.103-.257.156-.052.032-.109.065-.162.1-.092.058-.183.115-.276.176a3.097 3.097 0 0 0-.151.098 10.49 10.49 0 0 0-.428.286l-.04.027-.402.282c-.048.033-.094.07-.143.105-.099.072-.2.148-.303.228-.06.043-.116.086-.173.126-.096.072-.193.145-.29.22-.055.046-.115.093-.172.138-.028.023-.056.047-.087.068l-.222.183-.165.132c-.144.12-.29.24-.431.363-.016.013-.027.026-.04.037-.013.012 0 0 0 0-.229.196-.464.404-.697.615-.037.035-.075.067-.114.105-.225.204-.455.416-.685.632-.066.062-.128.127-.199.189-.07.062-.12.116-.182.176l-.257.253c-.063.06-.129.12-.183.18-.09.09-.182.181-.273.276l-.138.137c-.014.013-.022.024-.034.034-.147.147-.284.295-.43.442a.242.242 0 0 0-.025.027l-.093.097a8.12 8.12 0 0 0-.377.403c-.058.057-.112.118-.169.176-.106.112-.21.226-.316.343-.061.064-.12.132-.18.196l-.31.341c-.06.07-.128.138-.187.208l-.308.35c-.062.072-.129.146-.19.218-.107.126-.216.244-.321.365-.06.072-.129.146-.187.218a39.91 39.91 0 0 0-.35.413c-.054.062-.106.127-.158.185-.17.204-.342.41-.514.621-.36.43-.716.872-1.07 1.313l-.256.322c-.174.222-.345.441-.514.664-.353.452-.702.91-1.048 1.362-.167.221-.336.444-.499.663-.094.12-.179.239-.268.355-.315.425-.624.85-.936 1.274a.633.633 0 0 1-.054.075c0 .006-.01.016-.016.024-.007.007-.029.04-.044.062-.215.296-.428.592-.642.885-.069.1-.14.196-.209.295-.16.229-.323.457-.484.683-.042.06-.085.126-.128.18l-.072.108c-.217.314-.433.624-.643.934-.022.029-.042.06-.061.09-.194.286-.386.564-.576.845l-.195.29c-.15.223-.302.445-.449.667-.059.09-.12.177-.18.267-.19.292-.385.582-.571.868l-.01.011c-.027.045-.056.088-.081.127-.174.253-.34.516-.507.769l-.178.28c-.136.208-.272.413-.402.62-.052.087-.11.173-.166.254-.176.274-.35.55-.514.815a224.132 224.132 0 0 1-.495.788c-.236.38-.463.744-.678 1.093-.015.02-.025.042-.037.059-.116.19-.229.371-.34.551-.11.18-.22.367-.326.542a.208.208 0 0 0-.023.04c-.208.336-.397.654-.571.945-.017.026-.031.054-.047.08-.17.284-.327.546-.466.785-.009.01-.018.03-.027.043l-.366.633-.02.036-.14.243s0 .006-.008.008l-.008.01v.016l-.013.022a.038.038 0 0 0-.008.019.283.283 0 0 0-.028.043.314.314 0 0 1-.026.043.471.471 0 0 1-.038.068c-.008.02-.018.037-.027.055-.01.017-.034.059-.052.094-.018.036-.02.042-.033.062-.013.02-.038.072-.059.113l-.041.076c-.022.04-.045.08-.066.126a.869.869 0 0 0-.046.091c-.026.05-.046.093-.072.138a3.812 3.812 0 0 0-.077.146l-.047.088c-.035.057-.065.12-.096.184l-.057.107a2.634 2.634 0 0 1-.098.189c-.018.034-.035.066-.051.1-.324.623-.7 1.356-1.087 2.102-.184.36-.37.721-.553 1.075-.353.693-.695 1.357-.976 1.908-.385.768-.668 1.306-.723 1.413l.055.007h18.844c.031-.072.057-.144.085-.216.044-.109.085-.214.129-.32a17.657 17.657 0 0 0 .202-.517c.05-.12.097-.245.146-.367.01-.033.025-.062.036-.094.115-.286.228-.575.34-.865.073-.186.15-.368.221-.557.373-.947.743-1.876 1.057-2.666.1-.253.2-.496.29-.72.04-.109.084-.212.128-.311.013-.037.026-.065.038-.101.024-.058.048-.117.072-.167.025-.05.035-.096.052-.142.018-.035.034-.072.047-.109.017-.047.036-.084.052-.126.015-.042.025-.069.04-.099.014-.03.028-.064.042-.1.014-.035.024-.054.033-.08a.56.56 0 0 1 .032-.077.578.578 0 0 1 .029-.064.189.189 0 0 1 .024-.048.463.463 0 0 1 .044-.096 2.417 2.417 0 0 0 .1-.228c.032-.068.066-.144.1-.223.077-.165.16-.351.257-.554.043-.097.09-.196.136-.302 0 0 0-.01.007-.017.092-.204.193-.42.302-.655.014-.036.032-.07.046-.103.039-.083.074-.166.113-.253.02-.038.037-.08.055-.127.056-.113.108-.226.16-.345l.01-.013c.058-.126.12-.253.181-.39a.447.447 0 0 1 .036-.074c.053-.115.105-.232.16-.347a1.12 1.12 0 0 0 .038-.078c.07-.148.137-.3.214-.452a.334.334 0 0 1 .035-.074 427.712 427.712 0 0 1 .337-.72l.227-.473c.076-.16.173-.357.257-.538.037-.07.073-.144.107-.219.012-.025.025-.053.038-.076.141-.297.29-.597.44-.905l.03-.061c.14-.286.282-.58.432-.885.017-.036.036-.076.057-.116.048-.1.102-.207.155-.312.122-.253.25-.506.378-.759.055-.111.109-.223.17-.338.159-.32.323-.642.488-.971a1.11 1.11 0 0 0 .073-.14 73.604 73.604 0 0 1 .701-1.36c.136-.269.279-.54.422-.813.057-.112.117-.222.173-.335a482.828 482.828 0 0 1 .595-1.12c.199-.374.4-.75.606-1.129l.172-.319c.152-.278.305-.552.456-.83.063-.115.129-.228.188-.343.19-.34.385-.685.574-1.028.018-.03.034-.06.048-.087 0 0 0-.006.006-.007a198.035 198.035 0 0 1 1.35-2.353l.105-.176c.211-.36.425-.72.642-1.08.008-.01.013-.02.02-.03l-.007.018z"/>
        <path fill="#900B4C" d="M232.212 34.286c-.031.107-.058.223-.09.336-.097.362-.194.755-.29 1.175-.055.241-.109.495-.161.743-.077.341-.149.7-.222 1.056-.104.539-.215 1.09-.32 1.638-.02.09-.037.178-.056.27-.018.092-.036.18-.048.27-.012.088-.038.181-.057.273-.014.09-.032.181-.055.27.243.104.48.216.708.326.318.155.62.318.92.487a20.208 20.208 0 0 1 3.198 2.07l.172.116c-.07-.415-.443-2.466-.505-2.844a.162.162 0 0 0-.01-.035c-.03-.174-.056-.343-.088-.509-.007-.053-.017-.104-.025-.156-.025-.108-.04-.21-.059-.315-.014-.064-.022-.124-.034-.193l-.068-.372c0-.025-.007-.05-.01-.073-.034-.16-.063-.317-.088-.47v-.008c-.026-.132-.047-.256-.075-.372a7.947 7.947 0 0 1-.036-.2c-.011-.065-.028-.135-.04-.2-.006-.04-.017-.08-.025-.114a.504.504 0 0 0-.012-.065.313.313 0 0 0-.014-.06c0-.036-.014-.071-.019-.108-.022-.098-.043-.196-.06-.285-.015-.09-.029-.137-.043-.2-.015-.063-.03-.158-.049-.234a2.053 2.053 0 0 1-.038-.187c-.021-.09-.04-.177-.063-.261-.007-.041-.018-.086-.025-.124-.03-.133-.061-.258-.088-.38a21.859 21.859 0 0 1-.074-.302 2.51 2.51 0 0 1-.043-.17c-.01-.036-.022-.073-.029-.11l-.051-.192c0-.025-.016-.05-.02-.073v-.009l-.042-.157-.03-.1a.064.064 0 0 0 0-.025l-.032-.11c-.01-.036-.018-.069-.033-.105l-.051-.184s0-.015-.01-.02c-.02-.062-.039-.124-.06-.182v-.016a1.013 1.013 0 0 0-.05-.142c0-.014-.012-.03-.014-.045a.023.023 0 0 1-.006-.019c-.023-.064-.044-.124-.065-.177a.864.864 0 0 1-.025-.063 1.557 1.557 0 0 0-.051-.124.33.33 0 0 0-.021-.052.015.015 0 0 0 0-.014c-.02-.046-.04-.09-.06-.131a.181.181 0 0 0-.014-.031l-.048-.1a.25.25 0 0 1-.02-.04c-.02-.03-.034-.06-.051-.083-.018-.024-.009-.015-.011-.023-.021-.03-.042-.057-.058-.084l-.012-.016a.456.456 0 0 1-.041-.052c-.007-.008-.016-.014-.018-.017a.832.832 0 0 0-.05-.051.513.513 0 0 0-.065-.03h-.013a.225.225 0 0 0-.061-.009h-.013a.331.331 0 0 0-.199.082c-.086.079-.158.17-.215.273a4.976 4.976 0 0 0-.393.928c-.051.158-.103.332-.156.514l-.02-.004z"/>
        <path fill="#292A2D" fill-rule="nonzero" d="M202.19 50.981h1.915V60h-2.008v-6.28l-6.173 6.025-6.168-6.04V60h-2.008v-9.019h1.928l6.25 6.073 6.265-6.073zM205.923 60v-9.019h2.272V60h-2.272zM212.445 53.486c-.531.489-.797 1.157-.797 2.005 0 .847.266 1.516.798 2.006.531.488 1.462.732 2.79.731h7.953V60h-7.952c-1.971 0-3.41-.414-4.318-1.24-.907-.828-1.361-1.918-1.361-3.27s.454-2.442 1.361-3.268c.908-.826 2.347-1.24 4.318-1.24h7.952v1.77h-7.952c-1.33 0-2.26.244-2.79.734h-.002z"/>
        <path fill="#292A2D" fill-rule="nonzero" d="M232.458 50.981h-2.175L222.734 60h2.49l6.146-7.345L237.508 60H240l-7.542-9.019z"/>
        <path fill="#11142D" fill-rule="nonzero" d="M0 0h112.414v72.414H0z"/>
        <g>
            <g fill="#89C1E9" fill-rule="nonzero">
                <path d="M44.147 42.275c-2.368 5.589-8.342 8.8-14.37 7.726-6.028-1.074-10.494-6.146-10.742-12.2-.249-6.055 3.786-11.469 9.706-13.023 5.92-1.555 12.138 1.167 14.957 6.547h3.819c-2.526-6.418-8.844-10.585-15.803-10.423-6.96.163-13.072 4.619-15.29 11.148h-4.433l-.957 2.757h4.71a16.328 16.328 0 0 0-.188 2.462c0 .33.013.658.034.984H11.99l-.955 2.757h4.964c1.699 7.16 8.015 12.319 15.443 12.614 7.427.295 14.142-4.347 16.415-11.349h-3.709z"/>
                <path d="M49.034 35.151H40.63l-.019.054a2.483 2.483 0 0 0-2.763-1.009 2.448 2.448 0 0 0-1.775 2.326 2.447 2.447 0 0 0 1.738 2.353c1.04.32 2.17-.074 2.779-.967h7.551l.893-2.757z"/>
            </g>
            <path fill="#FFF" d="M67.09 31.825l-1.486 1.49c-.588-.7-2.007-.884-3.203-.884-1.197 0-2.277.52-3.077 1.56-.8 1.04-1.2 2.357-1.2 3.95 0 1.592.371 2.856 1.113 3.79.742.936 1.58 1.404 2.969 1.404 1.294 0 2.952-.112 3.581-1.547l1.716.989c-1.308 2.79-4.102 2.906-5.513 2.906-1.889 0-3.729-.685-4.891-2.054-1.163-1.369-1.744-3.236-1.744-5.6 0-2.203.645-4.045 1.933-5.525 1.29-1.481 2.939-2.221 4.949-2.221 1.025 0 3.182 0 4.852 1.742zm14.102 13.403l-1.098-3.019h-5.148L73.9 45.23h-2.964l6.198-15.096h1.16l5.84 15.095h-2.942zm-3.682-10.62l-1.805 5.357h3.61l-1.805-5.358zm14.381 5.77v4.85h-2.666V30.235h3.117c2.373 0 4.108.361 5.205 1.083 1.097.721 1.646 1.848 1.646 3.38 0 3.415-1.416 5.753-6.078 5.753-.3 0-.718-.026-1.224-.073zm0-7.795v4.89h1.067c1.652 0 2.39-.04 2.87-.561.479-.522.637-1.04.637-2.011 0-1.964-.86-2.318-3.764-2.318h-.81z"/>
        </g>
        <path stroke="#9B9B9B" stroke-linecap="square" stroke-width="4" d="M137.586 0v72.414"/>
    </g>
</svg>
