<svg xmlns="http://www.w3.org/2000/svg" width="160" height="160" viewBox="0 0 160 160">
    <g fill="none" fill-rule="evenodd" stroke-width="2">
        <path stroke="#6CF" d="M159 80c0-43.631-35.369-79-79-79S1 36.369 1 80s35.369 79 79 79 79-35.369 79-79z"/>
        <path stroke="#FFF" d="M112.901 75.382c7.864-7.756 7.95-20.42.194-28.283-7.757-7.863-20.42-7.95-28.284-.193-6.232 6.147-7.56 15.367-3.992 22.846l-38.531 38.532 11.785 7.072 9.428-9.428 7.072-2.357 2.357-7.072 8.248-3.535 1.178-5.893 7.895-7.894c7.385 3.524 16.487 2.284 22.65-3.795z"/>
        <path stroke="#FFF" d="M105.895 63.533a6.667 6.667 0 1 0-9.364-9.494 6.667 6.667 0 0 0 9.364 9.494z"/>
    </g>
</svg>
