<svg xmlns="http://www.w3.org/2000/svg" xmlns:xlink="http://www.w3.org/1999/xlink" width="400" height="360" viewBox="0 0 400 360">
    <defs>
        <linearGradient id="b" x1="26.943%" x2="78.315%" y1="9.436%" y2="93.225%">
            <stop offset="0%" stop-color="#5CE1FF"/>
            <stop offset="100%" stop-color="#0E4EEE"/>
        </linearGradient>
        <linearGradient id="c" x1="100%" x2="0%" y1="0%" y2="100%">
            <stop offset="0%" stop-color="#34374A"/>
            <stop offset="39.505%" stop-color="#3B3F5F"/>
            <stop offset="100%" stop-color="#5A657F"/>
        </linearGradient>
        <path id="a" d="M354.377 233.024l.671-1.605H400l-1.081 3.398c-23.95 74.662-92.464 124.826-170.498 124.826-82.871 0-154.072-56.106-173.876-136.72H0l11.954-35.059h37.521c-.126-2.669-.21-5.348-.21-8.048 0-7.996.536-16.075 1.606-24.04H0l11.954-35.058h47.303C84.35 48.423 152.099 0 228.42 0c74.266.115 139.726 45.066 166.762 114.526l1.385 3.545h-46.17l-.734-1.418c-29.712-57.586-94.101-86.192-156.476-69.544C130.751 63.737 88.98 120.635 91.604 185.466c2.624 64.8 48.845 118.113 112.405 129.611 63.55 11.54 125.389-22.257 150.368-82.053zm-50.978-73.632h87.977l-10.775 34.423h-77.152c-5.303 7.299-13.422 11.393-21.92 11.393-2.786 0-5.602-.44-8.378-1.34-11.684-3.809-19.433-14.884-19.283-27.566.14-12.662 8.128-23.543 19.892-27.085 11.114-3.285 22.768.748 29.639 10.175z"/>
    </defs>
    <g fill="none" fill-rule="evenodd">
        <g>
            <use fill="#484848" xlink:href="#a"/>
            <use fill="url(#b)" xlink:href="#a"/>
            <use fill="url(#c)" xlink:href="#a"/>
        </g>
        <path fill="#449FFB" d="M332.996 221.4H377.6l-2.087 6.56c-21.132 65.878-81.586 110.136-150.435 110.136-35.859 0-69.6-11.635-97.576-33.646-27.39-21.55-46.478-50.857-55.305-84.867H23.2l12.253-35.937h31.624c-.047-1.49-.07-2.88-.07-4.203 0-6.02.345-12.081 1.027-18.064H23.2l12.253-35.937h41.028C99.107 62.766 158.571 20.8 225.078 20.8c65.533.101 123.286 39.762 147.139 101.042l2.678 6.852h-45.77l-1.413-2.726c-25.163-48.77-79.633-72.98-132.46-58.879-52.858 14.077-88.221 62.246-86 117.14 2.222 54.875 41.353 100 95.159 109.733a117.622 117.622 0 0 0 21 1.901c45.965.003 87.896-27.337 106.29-71.367v-.001l1.295-3.095zm-59.017-71.137c10.322-3.05 21.096.362 27.856 8.702h78.671l-11.076 35.387h-67.548c-5.078 6.294-12.424 9.875-20.369 9.875-2.733 0-5.465-.437-8.118-1.298-11.291-3.678-18.777-14.354-18.633-26.565.134-12.19 7.857-22.68 19.217-26.1z" opacity=".812"/>
    </g>
</svg>
