<svg xmlns="http://www.w3.org/2000/svg" width="86" height="88" viewBox="0 0 86 88">
    <g fill="none" fill-rule="nonzero">
        <ellipse cx="43" cy="44" fill="#FEFEFE" rx="42.15" ry="42"/>
        <path fill="#0C598A" d="M67.87 48.41V28.95v-1.51c.15-7-4.39-10-11-7.21-2.17.91-2.52 2.75-2.51 4.81 0 9.007.023 18.007.07 27a11.67 11.67 0 0 1-.16 2.58 3.48 3.48 0 0 1-4 2.56c-1-.16-.86-.82-.86-1.45 0-6.41-.26-12.83 0-19.24a37.32 37.32 0 0 0 0-5 3.53 3.53 0 0 0-3.69-3.5 48.86 48.86 0 0 0-6 .06c-2.65.21-4 1.54-3.85 4.25.46 8.51 0 17 .09 25.51 0 3.57-.77 5.16-4 6.69v-4.53c0-5.62.08-11.24.15-16.86 0-4-1.3-5.53-5.33-5.61a25.94 25.94 0 0 0-4.32.16c-3 .43-4.08 1.62-3.95 4.62.29 6.56 0 13.12.07 19.68 0 3.85-.67 4.62-4.55 5-.93.09-1.86.26-2.79.32-3 .16-4.58-.83-5.84-3.5-8.4-17.86-4.92-37.7 8.73-51.9 17.33-18 49.49-15.07 63.55 5.72a59.37 59.37 0 0 1 5.7 10.4c1.17 2.79 1.28 5.7-1 7.84C77.78 40.08 73 44 67.87 48.41z"/>
        <path fill="#969594" d="M16.71 76.37a97.25 97.25 0 0 0 37.7-10.51 100.56 100.56 0 0 0 30.06-24.48c2.82 13.35-2.85 31.67-20.74 41.46-17.07 9.34-36.18 5.29-47.02-6.47z"/>
    </g>
</svg>
