<svg xmlns="http://www.w3.org/2000/svg" width="2148" height="686" viewBox="0 0 2148 686">
    <g fill="#FFF" fill-rule="evenodd" opacity=".2">
        <path d="M1039.037 340.199l29.68 4.87c-.008.134-.021.265-.006.394l-96.03 22.078 66.356-27.342zm-119.24-11.428c.237.295.524.554.904.704.831.316 1.73.091 2.329-.493l44.913 38.268c-.107.148-.225.281-.291.46-.03.07-.018.143-.037.22l-89.665-12.397 41.847-26.762zm-43.632 27.075l.353.05-7.871 5.032 7.518-5.082zm-42.322 8.696l15.701 6.877a2.152 2.152 0 0 0-.094.884l-90.61 19.915 75.003-27.676zm-146.034 55.8a2.197 2.197 0 0 0-.923-.903l20.108-47.837c.978.314 1.998-.1 2.52-.952l43.438 21.854c-.005.015-.014.022-.019.036-.182.468-.155.95-.022 1.4l-65.102 26.402zm-74.414-59.15l92.066 8.383c.023.782.479 1.486 1.196 1.866l-20.108 47.84a2.19 2.19 0 0 0-2.207.507l-71.237-57.89c.075-.123.178-.227.23-.366.044-.113.035-.225.06-.34zm-98.891 30.328c-.155-.334-.413-.602-.721-.825l45.642-81.372c.016.005.03.024.052.03.746.29 1.534.108 2.126-.348l48.008 50.308a2.25 2.25 0 0 0-.404.633c-.153.401-.143.803-.068 1.198l-94.635 30.376zm-74.615-51.371l63.393-48.84c.221.23.48.421.794.543.225.087.458.103.685.118l7.318 98.347a2.166 2.166 0 0 0-1.228.692l-70.897-48.708c.041-.08.108-.142.142-.228.257-.666.136-1.36-.207-1.924zm-46.983 5.904c-.031-.013-.057-.005-.089-.015l19.613-93.26c.18.018.352.011.527-.016l24.246 86.485a2.181 2.181 0 0 0-1.233 1.243 2.08 2.08 0 0 0-.125.946l-41.616 6.195c-.16-.691-.61-1.307-1.323-1.578zm-71.47-73.2l89.13-21.482c.212.579.64 1.07 1.259 1.309.03.007.058.002.086.015l-19.609 93.254a2.168 2.168 0 0 0-1.495.433l-69.836-71.908c.138-.174.275-.348.361-.567.135-.352.144-.707.104-1.055zm-96.318-39.443l82.039-49.508c.238.31.529.577.917.725.262.103.53.135.796.137L318.776 271a2.153 2.153 0 0 0-1.402 1.057l-92.165-37.186c.133-.497.112-1.014-.09-1.462zm-90.028 19.323c-.045-.017-.09-.01-.135-.025l13.182-61.853a2.17 2.17 0 0 0 1.972-.824l71.017 43.36c-.023.051-.064.084-.085.136-.131.344-.145.695-.104 1.038l-84.579 19.5c-.21-.587-.642-1.092-1.268-1.332zm-63.126-60.211l74.272-3.494c.118.757.593 1.442 1.359 1.735.044.017.09.01.137.025l-13.184 61.85a2.181 2.181 0 0 0-1.634.477l-61.401-59.39c.125-.164.259-.33.34-.534.083-.22.096-.445.11-.67zM235.462 79.608c.055.021.112.013.168.029l-9.266 43.263c-.99-.128-1.977.385-2.348 1.355a2.187 2.187 0 0 0-.129.777l-76.439 7.489c-.033-.16-.046-.321-.111-.466l87.219-53.152c.237.296.526.558.906.705zM335.523 53.87l-53.4 85.987c-.044-.023-.074-.06-.122-.078-.634-.244-1.296-.152-1.848.157l-42.472-60.74c.27-.23.504-.504.637-.859.135-.353.144-.711.102-1.062l96.434-24.308c.138.357.37.657.669.903zm114.998 6.168l-72.836 58.316a2.206 2.206 0 0 0-2.454-.444l-37.059-63.98c.339-.244.63-.549.788-.963.047-.123.04-.254.064-.377l111.152 6.466c.03.358.158.683.345.982zm53.791 97.68l-72.616-24.314c.22-1.021-.278-2.072-1.264-2.49l21.515-69.894c.411.08.823.063 1.199-.08l51.88 95.928a2.17 2.17 0 0 0-.714.85zm93.105 42.059l-39.55-.646-49.68-39.375 89.286 39.678c-.032.114-.04.23-.056.343zm70.478 41.79l-59.796-10.429-7.694-29.036c.358-.148.654-.405.894-.722l66.707 39.862c-.02.045-.057.075-.078.125-.026.065-.013.133-.033.2zm65.452-14.957l-11.82 15.593-49.36-.27c-.008-.046-.022-.084-.032-.13l60.684-16.038c.116.315.281.612.528.845zm23.254 16.717a2.202 2.202 0 0 0-1.284-2.771 2.205 2.205 0 0 0-2.341.497l-16.31-14.614-.082-.081c.017-.025.03-.057.047-.079l72.821 40.683-52.85-23.635zm138.124 26.125l-67.759 21.876-11.705-20.388c.327-.241.61-.54.766-.95.073-.185.075-.373.096-.563l78.562-.16c.004.064.03.123.04.185zm48.943 39.843l-24.085 13.076-21.7-51.414c.2-.105.4-.226.559-.392l45.46 36.711c-.088.137-.198.251-.26.411a2.178 2.178 0 0 0 .026 1.608zm109.487 13.675l-17.417 7.085-85.134-20.674 102.424 12.922c0 .232.055.45.127.667zm15.927 21.067l-14.687-8.64c.038-.072.097-.124.128-.203a2.207 2.207 0 0 0-1.27-2.851c-.066-.026-.137-.014-.203-.034l1.801-7.883a2.118 2.118 0 0 0 1.485-.263l13.216 19.363a2.193 2.193 0 0 0-.47.51zm-158.106-11.73l7.968-3.544-41.704 26.672-.388-.054 34.124-23.074zm139.57 3.149c.242.442.612.818 1.121 1.01.98.379 2.03-.02 2.59-.859l14.69 8.64c-.037.072-.094.125-.124.2-.035.09-.025.177-.045.265l-29.111-4.77 10.88-4.486zm-23.576 2.403l3.08-1.666 20.251-1.487c.016.104.041.2.07.294l-11.622 4.788-11.78-1.93zm-.515.278l11.666 1.91-64.068 26.402 52.402-28.312zm-102.844-10.265l30.819 2.96 14.29 35.715c-.199.102-.382.225-.544.379l-44.907-38.268c.103-.148.221-.28.287-.456.043-.108.034-.217.055-.33zm-58.954 25.825c.005-.25-.05-.49-.13-.725l43.457-19.331-31.983 21.623-11.344-1.567zm-11.824 16.592l8.638-14.681c.072.038.125.098.2.125a2.21 2.21 0 0 0 2.856-1.267c.027-.073.018-.152.04-.223l10.747 1.485-22.053 14.914a2.196 2.196 0 0 0-.428-.353zm-8.354-9.674l5.835 9.746a2.18 2.18 0 0 0-.576.661l-15.297-6.703 10.038-3.704zm-60.053-18.21c.014-.042.009-.084.02-.127l53.86 8.025 5.87 9.809-10.497 3.873-49.253-21.58zm-74.657 26.573l39.094-14.546 5.569 36.801a2.158 2.158 0 0 0-1.285.966l-43.437-21.857c.004-.013.016-.02.024-.032.17-.446.149-.905.035-1.332zm-96.74-9.512l32.641-29.862 60.042 38.953c-.031.062-.081.102-.107.167-.043.113-.034.227-.059.343l-92.066-8.386c-.012-.446-.189-.858-.45-1.215zm-50.648-51.694l60.171 7.857c-.035.917.488 1.794 1.39 2.142l-12.214 40.85a2.157 2.157 0 0 0-1.792.402l-48.008-50.307c.162-.187.309-.387.404-.634.037-.102.029-.205.05-.31zM320.06 271.049c-.116-.044-.236-.033-.357-.058l6.184-89.212 65.62-3.937c.124.741.591 1.409 1.346 1.697.372.144.754.145 1.123.09l17.88 68.935c-.574.215-1.065.64-1.3 1.259-.136.348-.147.705-.108 1.053l-89.13 21.48c-.211-.577-.64-1.07-1.258-1.307zm-9.13-87.691c.086-.226.105-.458.118-.688l14.262-.854-6.128 88.383-9.822-85.521c.688-.163 1.298-.61 1.57-1.32zm-86.435 49.277l47.395-75.437 35.053 24.354c-.042.077-.108.134-.14.22a2.198 2.198 0 0 0 .052 1.7l-82.04 49.506a1.978 1.978 0 0 0-.32-.343zm-74.273-45.096l74.328-60.895c.205.197.453.36.736.468.152.057.305.051.456.078l-2.857 104.95a2.183 2.183 0 0 0-1.5.845l-71.02-43.357c.024-.05.064-.085.083-.138.263-.675.133-1.381-.226-1.95zm74.024-61.327l-74.33 60.895a2.21 2.21 0 0 0-.736-.468 2.243 2.243 0 0 0-.728-.125l-2.824-51.4c.767-.11 1.461-.59 1.758-1.362.1-.257.13-.517.13-.777l76.437-7.49c.058.263.151.5.293.727zm111.86-71.971c.106.037.212.03.32.053l-7.053 76.163-46.107 10.644a2.153 2.153 0 0 0-.684-.952l53.403-85.986c.041.02.074.06.122.078zm37.86 65.922l-44.03 10.166 7.034-75.945c.292-.009.572-.077.837-.194l37.056 63.981c-.336.246-.63.55-.79.963-.131.34-.144.69-.106 1.03zm137.352 78.207l-4.553-37.625c.4-.087.77-.253 1.065-.54l49.097 38.911-45.609-.746zm57.99 10.56l-18.024 5.43-39.613-13.057-.293-2.414 46.212.754 11.718 9.288zm28.12-8.468l-27.454 8.267-11.442-9.067 38.86.631c.002.059.027.115.036.169zm-.016 28.816c.067-.946-.448-1.863-1.379-2.22-.11-.043-.222-.031-.335-.056l3.686-24.766c.155.016.301.017.45 0l7.63 28.795-10.052-1.753zm12.746 11.918l-13.086-10.913c.078-.122.178-.226.234-.368.023-.065.016-.135.034-.205l10.25 1.789 2.568 9.697zm58.495 2.679l-18.743 30.463-38.973-32.494-2.714-10.234 59.6 10.392a2.156 2.156 0 0 0 .83 1.873zm32.396 25.35l-29.273-25.83c.098-.147.213-.277.278-.445.07-.178.073-.362.093-.542l49.024.265-20.122 26.552zm35.095-26.47l1.054 12.432-28.244 21.012-7.529-6.642 20.37-26.88 14.35.079zm-2.067-15.677c.246.093.5.117.75.122l1.276 15.083-13.95-.074 11.614-15.329c.108.062.192.151.31.198zm18.306 15.204l-12.504-12.599 12.937 11.586c-.137.171-.275.342-.355.557-.057.153-.056.302-.078.456zm59.504 26.21a2.177 2.177 0 0 0 .03 1.48l-20.998 10.525-34.733-36.454c.09-.106.157-.235.227-.355l55.474 24.805zm10.964 24.167l-7.543-20.598 11.157 19.432-3.614 1.166zm37.748 58.285l-.162.364-25.564-25.799-11.851-32.376 3.698-1.193 33.88 59.004zm3.638 1.478a2.181 2.181 0 0 0-.732-.653l32.766-80.64c.423.114.848.102 1.244-.024l21.718 51.459-54.996 29.858zm-640.34-120.167c-.15-.057-.305-.054-.454-.075l2.858-104.959c.544-.056 1.05-.3 1.418-.712l43.713 30.37-47.411 75.454c-.044-.02-.074-.06-.124-.078zm280.75-72.205L483.59 181.28l-17.367-15.657 37.999-6.358c.089.29.229.552.426.784zm93.906 41.945l-8.344 22.77-19.77-15.667 27.1-8.16c.193.45.556.816 1.014 1.057zm138.014 40.29l-1.287-15.14c.34-.065.645-.205.918-.415l15.519 15.638-15.15-.083zm85.75 50.547l-13.053 4.213a2.211 2.211 0 0 0-1.218-1.148c-.052-.019-.106-.012-.161-.029l5.724-24.532c.286.048.56.04.832-.021l7.877 21.517zm37.069 62.282l1.144-.419c.166.314.422.576.73.78l-7.984 13.569 6.11-13.93zm-12.573 4.64l3.609 9.86-5.486-9.165 1.877-.695zm-3.168-8.652l2.967 8.113-1.975.73-5.717-9.549 4.725.706zm16.037 1.922l-15.59-2.32-8.848-24.179 24.999 25.225-.56 1.274zm1.092-.733c-.143.176-.288.363-.375.59-.029.082-.02.164-.04.246l-.092-.015.406-.926.101.105zm.393-.359c-.019.017-.045.03-.067.046l-.232-.237.081-.185.218.376zm1.88-.357c-.495-.136-1-.119-1.447.073l-.39-.685 28.165-64.182-26.329 64.794zm-2.974 1.973l.21.033a2.1 2.1 0 0 0 .062.566l-.636.237.364-.836zm-12.933 5.473l-2.863-7.822 15.214 2.262-.524 1.194-11.827 4.366zm4.01 10.956l-3.813-10.414 11.309-4.174-6.413 14.61a2.101 2.101 0 0 0-1.083-.022zM808.57 299.69l.049-.035 25.683 25.918 9.164 25.04-4.849-.726-30.047-50.197zM784.2 340.607l22.247-40.594c.006.001.01.007.016.008.577.222 1.19.181 1.71-.058l29.828 49.832-53.478-7.969a2.15 2.15 0 0 0-.323-1.219zm-2.717 3.15c.027.01.04.028.064.04.084.03.169.018.248.04l-10.865 19.83 10.553-19.91zm-1.109-1.05c.172.347.451.624.79.845l-23.38 44.108-1.98 3.618c-.008-.004-.01-.01-.019-.01a2.219 2.219 0 0 0-.877-.144l-5.58-36.866 31.046-11.551zm-35.226-16.08l35.091 14.542c-.1.375-.094.746 0 1.104l-30.979 11.528-4.112-27.174zm-96.746.476l50.588 36.473-52.924-34.338 2.336-2.135zm-20.352-9.552l.872-2.277a2.182 2.182 0 0 0 2.237-.602l16.832 12.136-2.355 2.151-17.586-11.408zm-15.836 41.22l15.644-40.724 17.38 11.279-32.526 29.76a2.452 2.452 0 0 0-.498-.316zm14.199-41.662l1.141.743-14.81 38.568 11.537-38.59c.805.17 1.616-.1 2.132-.721zm-2.904-4.227l.288.84c-.5.232-.913.643-1.126 1.196-.04.105-.03.208-.053.313l-53.266-6.956 54.157 4.607zM395.71 178.27c.013-.034.01-.07.017-.105l74.606 14.425c-.028.53.146 1.026.463 1.438l-56.78 54.908a2.219 2.219 0 0 0-.607-.383c-.372-.144-.75-.144-1.12-.089l-17.883-68.939a2.162 2.162 0 0 0 1.304-1.255zm-68.729-12.23l5.319-4.955 59.21 16.029c-.015.086-.038.171-.042.256l-65.546 3.933 1.06-15.263zm-16.366 15.238l15.75-14.665-1.023 14.727-14.332.86a2.198 2.198 0 0 0-.395-.922zm-30.322-37.452c.046.023.077.06.127.078.64.248 1.31.149 1.866-.168l25.22 37.133c-.096.077-.194.144-.279.237l-35.055-24.354 8.121-12.926zm46.624 13.18c-.373.014-.712.146-1.028.33a2.197 2.197 0 0 0-1.232-1.18c-1.082-.418-2.267.092-2.762 1.12l-38.592-14.817c.084-.286.11-.572.078-.853l45.942-10.607-2.406 26.007zm47.418-35.877l-45.596 36.804c-.243-.332-.547-.624-.959-.78-.105-.04-.214-.03-.321-.054l2.43-26.23 44.196-10.203c.06.168.149.316.25.463zm53.081 12.088l-43.596 11.296-6.862-22.549a2.186 2.186 0 0 0 1.244-1.244c.013-.032.006-.066.016-.097l49.218 11.984c-.032.205-.047.41-.02.61zm26.922 33.813l-23.291-32.419 33.982 30.63-10.691 1.789zm28.89 14.617l-9.305 9.38a2.15 2.15 0 0 0-.619-.394c-.647-.248-1.322-.144-1.881.178l-16.71-23.26 10.86-1.817 17.655 15.913zm21.236 16.613c-.08-.801-.58-1.531-1.382-1.84-.137-.053-.279-.045-.419-.07l3.577-35.538c.042 0 .08.022.122.02l4.54 37.535-6.438-.107zm-.047.65c.006-.046.015-.088.019-.135l6.53.109.273 2.278-6.822-2.251zm9.54 24.69c-.1.022-.201.03-.298.066l-10.355-23.25c.415-.215.753-.56.966-1.01l7.038 2.323 2.648 21.87zm2.492 1.253a2.212 2.212 0 0 0-1.238-1.198 2.292 2.292 0 0 0-.85-.145l-2.617-21.64 38.675 12.751-33.97 10.232zm72.786 2.564l-.44 1.205-72.18-3.041c-.005-.087-.044-.166-.059-.254l34.672-10.443 38.007 12.533zm.765-2.085l-.583 1.597-37.324-12.302 17.678-5.33L590 225.332zm3.715 2.209l-3.034-2.398 8.415-22.956a.025.025 0 0 0 .013.005l-3.685 24.763a2.181 2.181 0 0 0-1.71.586zm34.463 81.658l-31.888-78.165c.159-.085.31-.182.442-.31l13.672 11.402 17.774 67.073zm.51-.367l-17.505-66.058 38.434 32.044-20.928 34.014zm21.95-33.166l-20.223 35.507c-.029-.012-.052-.04-.084-.05-.354-.138-.714-.148-1.065-.106l-.41-1.546 21.132-34.347.65.542zm.282-.488l-.636-.528 12.64-20.545-12.004 21.073zM679.995 297c-.104-.064-.189-.15-.307-.195a2.162 2.162 0 0 0-.946-.127l-8.229-52.414c.35-.086.669-.237.938-.478l29.287 25.846L679.995 297zm.496.365c-.03-.029-.04-.066-.072-.096l20.694-27.302 7.418 6.546-28.04 20.852zm59.42 6.835c-.1.143-.216.274-.28.441-.048.123-.038.249-.064.37l-58.48-6.112a2.16 2.16 0 0 0-.303-1.12l28.139-20.927L739.91 304.2zm1.371-.895a2.169 2.169 0 0 0-1.045.499l-30.9-27.263 27.914-20.76 4.031 47.524zm11.644-59.181c.224.236.483.435.805.56.052.022.11.01.162.029l-11.963 58.564c-.066-.006-.128-.032-.192-.032l-4.055-47.787 15.243-11.334zm-.74-1.28l.21.214c.05.231.122.445.24.65l-15.003 11.158-1.027-12.11 15.58.088zm3.438 2.703l-.25-.897c.176-.072.326-.194.48-.313l34.568 36.279-34.798-35.069zm57.271 25.54l-9.714 22.28-11.929-12.524 20.884-10.47c.188.295.442.535.76.715zm-3.952 28.256c.147-.175.289-.362.374-.59.156-.407.145-.817.065-1.215l13.107-4.23 11.44 31.25-24.986-25.215zm-25.381 40.6l9.923-17.435-9.65 17.61c-.077-.072-.185-.115-.273-.174zm-75.101 27.511c-.472-.18-.954-.15-1.403-.02l-23.499-57.697 17.849-1.233 31.484 13.046-24.388 45.932c-.016-.005-.027-.02-.043-.028zm-42.4-56.506l17.032-1.18 23.55 57.82a2.238 2.238 0 0 0-.598.443L648.79 326.75l17.272-15.802zm-104.698-5.524l33.206-74.219c.384.123.763.116 1.133.038l27.66 81.204-60.896-5.178c-.006-.76-.429-1.45-1.103-1.845zM332.658 160.751l3.604-3.357 47.34-12.263 9.222 30.309a2.2 2.2 0 0 0-1.24 1.245c-.004.005-.002.01-.003.016l-58.923-15.95zm-50.085-17.215a2.19 2.19 0 0 0 .606-.752L321.77 157.6c-.319 1.09.218 2.262 1.303 2.68.65.249 1.328.142 1.888-.188.038.086.106.153.153.232.124.299.316.563.561.783l-15.575 19.676c-.144-.1-.274-.215-.442-.28-.642-.247-1.313-.148-1.869.168l-25.217-37.135zm46.71 16.302a2.14 2.14 0 0 0 .026-.64l5.941-1.54-3.16 2.939-2.807-.76zm-2 1.831a2.2 2.2 0 0 0 1.926-1.402l.002-.017 2.523.684-4.704 4.378.252-3.643zm-1.371-.41c.14.097.273.215.441.28.118.044.235.036.357.058l-.297 4.291-15.845 14.751 15.344-19.38zm10.177-4.38l-6.904 1.788c-.043-.108-.107-.203-.168-.3a1.231 1.231 0 0 0-.051-.106l42.374-34.206-35.251 32.824zm39.257-34.89c.411.157.833.145 1.237.063l6.861 22.554-46.342 12.006 37.615-35.023c.187.159.388.305.629.4zm52.702 12.543l-33.191 41.15c-.139-.095-.255-.208-.418-.27-.414-.157-.833-.144-1.238-.057l-9.223-30.323 43.559-11.284c.116.293.282.564.511.784zm25.814 32.577l-58.137 9.727c-.11-.358-.275-.693-.551-.953l33.193-41.146c.14.092.257.202.416.266.648.248 1.323.142 1.882-.177l23.197 32.283zm46.654 30.124c-.104.146-.225.28-.29.456-.014.034-.008.071-.018.103l-25.527-4.935a2.183 2.183 0 0 0-.518-1.584l9.319-9.397 17.034 15.357zm92.864 30.777c-.037.064-.086.12-.118.188l-3.302-1.09.517-1.4 2.903 2.302zm75.819 16.21c.314.121.633.152.946.127l8.229 52.413c-.358.09-.692.248-.968.5l-26.126-21.783 17.832-31.311c.034.016.055.04.087.053zm136.727 52.02l-.111-.113-2.295-2.407 9.784-22.435c.008.004.019.002.03.004l-5.725 24.533a2.17 2.17 0 0 0-1.683.417zm-63.668 11.288c.35-.094.676-.253.943-.503l37.403 33.402c-.051.07-.095.145-.139.221l-35.418-14.676-2.79-18.444zm-1.403-.062c.018.005.03.024.045.029.289.11.59.154.881.143l2.741 18.117-10.964-4.546 7.297-13.743zm-38.178.947l36.891-2.547c.115.56.434 1.041.924 1.37l-7.33 13.81-30.485-12.633zm-71.038 5.349l1.806-.564 31.822-2.2-16.888 15.453-16.945-12.216c.051-.09.128-.161.167-.26.026-.069.017-.142.038-.213zm-4.784 1.484l1.27-.393c.139.119.297.216.468.295l-.846 2.203-1.053-.68c.03-.063.08-.103.106-.168.161-.42.147-.846.055-1.257zm-.792-2.147l-.394.638c-.049-.023-.087-.067-.14-.088-.419-.161-.846-.147-1.25-.058l-.228-.664 2.012.172zm51.004-15.396c-.078.125-.178.23-.232.374-.159.405-.148.82-.067 1.222l-45.185 13.107a2.164 2.164 0 0 0-.776-.984l20.191-35.454 26.07 21.735zm2.853 3.094c.355-.188.642-.482.854-.847l19.456 8.064-16.894 1.166-3.416-8.383zm-2.46-.28c.188.167.394.318.643.41.47.18.954.154 1.4.024l3.367 8.26-16.135 1.116 10.724-9.81zm-41.658 11.949l41.06-12.768c.066.159.173.298.277.44l-11.197 10.243-30.14 2.085zm-4.093.853l.112-.007-.116.036c.002-.01.006-.02.004-.03zm-4.938 1.562c-.014-.035-.026-.073-.042-.111l.93-.485c.053.09.119.177.184.263l-1.072.333zm-.176-1.737l.742.066c.003.317.075.626.21.913l-.932.49a2.22 2.22 0 0 0-.54-.62l.52-.85zm1.894-1.877c-.443.244-.821.616-1.017 1.125-.05.134-.043.267-.067.399l-.563-.046 1.353-2.199.294.721zm3.176 1.485l29.039-8.423-26.526 8.251-2.513.172zm69.832-4.828L681 299.43c.012-.048.013-.092.023-.143l57.88 6.053-37.405 2.585zm67.081-16.227l-12.656-45.087 34.082 34.346-21.426 10.741zm32.376 6.776l-29.533 3.367-2.718-9.694 21.64-10.85 12.576 12.673-1.965 4.504zm.335.373l3.844-.44c.11.527.398.981.844 1.306l-2.018 3.685-19.9 34.961 17.23-39.512zm-57.86 7.894c.123-.162.252-.318.327-.515.108-.277.148-.562.143-.841l27.096-3.088 10.498 37.409a2.196 2.196 0 0 0-.658.435l-37.406-33.4zm.315-2.08l24.471-12.265 2.667 9.504-27.065 3.086c-.023-.11-.035-.22-.073-.325zm38.275 34.922l-10.485-37.348 29.233-3.331-17.766 40.746a2.19 2.19 0 0 0-.982-.067zm23.525-42.965c-.134.169-.27.337-.353.55-.105.277-.145.559-.14.841l-3.577.406 1.789-4.098 2.281 2.3zm-50.401-50.793l12.945 46.117-24.567 12.318c-.245-.382-.58-.714-1.038-.889-.05-.02-.104-.009-.16-.028l11.932-58.414.888.896zm-156.965-8.85l29.79 73.024-1.658 2.703-2.408-.206-25.724-75.52zm-5.13-7.718c.018.3.1.583.231.845l-5.856 3.932 1.81-4.935 3.814.158zm.07-.564c-.008.037-.013.072-.018.11l-3.7-.155.383-1.054 3.335 1.099zm-6.02 6.231l6.501-4.363c.153.17.338.31.547.433l-31.002 69.29 23.955-65.36zm-71.403-7.45c.333-.243.627-.547.788-.963.06-.158.055-.313.077-.473l72.07 3.037-2.02 5.507-48.59 32.617-22.325-39.725zm-10.034 60.255c-.09-.035-.182-.023-.273-.047l8.909-59.789c.34.02.668-.019.973-.144l22.332 39.734-31.09 20.87c-.231-.26-.503-.49-.851-.624zm-2.763-58.914l1.663 58.82c-.04.008-.08.022-.12.03L486.19 232.9l16.707-4.087zm-23.615-16.646l10.156-5.901 13.115 10.332.328 11.66-16.863 4.126-6.736-20.217zm-64.64 37.58l64.167-37.304 6.689 20.067-70.837 17.323c-.008-.026-.006-.06-.019-.086zm57.077-54.988c.404.154.82.146 1.218.064l5.697 17.096-64.293 37.38a.057.057 0 0 0-.009-.018l56.779-54.908c.183.152.372.298.608.386zm-1.296-2.725l-74.603-14.426c.004-.068.036-.141.035-.213l58.38-9.767 16.833 23.428c-.264.23-.49.5-.621.846-.018.044-.01.09-.024.132zm42.381 32.18l-9.757-7.688-.45-15.89c.153-.025.306-.05.451-.104l10.356 23.25c-.22.112-.43.248-.6.431zm-.434 2.283c.219.566.645 1.051 1.256 1.284.09.034.185.023.276.044l-8.857 59.418-1.656-58.55 8.98-2.196zm-.122-.53l-8.875 2.17-.313-11.14 9.549 7.523c-.088.134-.198.248-.256.406-.134.343-.145.698-.105 1.04zm-11.688-26.169c.24.316.536.592.934.745.202.078.405.087.607.104l.438 15.48-12.764-10.057 10.785-6.272zm-26.24-5.908c.085-.134.195-.249.255-.4.009-.027.001-.053.01-.079l25.527 4.938c-.021.348.017.687.15.999l-10.942 6.36-15-11.818zm-.198.306l14.858 11.707-9.87 5.743-5.656-16.963c.251-.12.476-.282.668-.487zm64.171 73.49l47.99-32.218-25.548 69.703c-.454-.097-.912-.081-1.32.09l-21.122-37.575zm-32.786-107c.139.056.281.045.418.073l-3.574 35.538a2.18 2.18 0 0 0-1.5.543l-17.006-15.33 21.043-21.215c.186.153.38.302.62.391zm-277.506-34.624c.038-.069.095-.119.122-.195l50.965 15.527c-.171.807.11 1.617.734 2.13l-8.11 12.906-43.71-30.368zm186.71 125.156c.083-.29.109-.57.074-.854l70.886-17.336 18.254 54.775c-.394.188-.704.509-.933.902l-88.28-37.487zm92.278 39.043c.107-.507.064-1.01-.161-1.45l31.048-20.844 21.114 37.57c-.32.23-.593.523-.758.912l-51.243-16.188zm202.647 78.281a2.18 2.18 0 0 0-.768-.828l24.422-46.002 11.33 4.694 4.17 27.568-39.154 14.568zm210.735-43.279l-10.489 7.092-42.229 18.79 51.778-28.113.94 2.231zm.337-.229l-.928-2.19 21.158-11.489-20.23 13.68zm100.791 10.813a2.209 2.209 0 0 0-1.177-1.096c-1.065-.406-2.225.088-2.732 1.08l-68.118-26.148 85.377 20.733-13.35 5.431zm16.665-4.625l-8.744 4.725-7.735.567a1.87 1.87 0 0 0-.086-.371l13.769-5.601 2.796.68zm.736-.4l-2.648-.64 15.524-6.315-12.876 6.956zm11.493 2.79v.002l-10.745-2.609 13.804-7.46c.246.35.555.65.982.812.066.026.133.016.2.034l-1.801 7.882c-1.02-.18-2.053.335-2.44 1.339zm-.133.81l-19.59 1.436 8.24-4.457 11.39 2.77c-.011.083-.042.167-.04.25zm-126.974-8.235l20.789-16.255c.229.259.496.479.84.61.471.182.956.154 1.408.021l7.889 19.727-30.513-2.93c-.01-.429-.175-.822-.413-1.173zm-3.83.386c-.006.016-.021.028-.026.044-.192.5-.163 1.02-.002 1.49l-6.555 2.918 6.582-4.452zm3.667-.62a2.187 2.187 0 0 0-.837-.608 2.188 2.188 0 0 0-.81-.134l19.257-13.023-17.61 13.766zm98.574 11.04c.007-.065.03-.128.033-.194l7.065-.515-2.658 1.436-4.44-.726zm-3.89 1.144c.237.318.536.592.932.744a2.212 2.212 0 0 0 2.855-1.272c.035-.087.025-.176.045-.262l3.984.651-50.48 27.273 42.664-27.134zm-.482-1.27c.005.338.106.662.26.957l-46.15 29.353c-.237-.315-.533-.591-.929-.74-.471-.183-.959-.155-1.409-.02l-14.218-35.545 62.446 5.996zm-70.624-26.439c.402-.205.728-.538.942-.96l69.785 26.787c-.007.033-.009.063-.016.098l-62.747-6.022-7.964-19.903zm-51.856-40.484c.18.393.501.703.885.936l-34.875 79.472-33.632-58.577 67.622-21.83zM504.184 158.16c-.042.182-.098.365-.093.545l-38.412 6.43-34.328-30.947c.076-.11.157-.215.217-.342l72.616 24.314zM451.51 60.92l-21.515 69.894c-1.032-.203-2.094.319-2.483 1.333-.012.031-.003.066-.016.094l-49.22-11.985a2.13 2.13 0 0 0-.292-1.474l72.832-58.313c.195.19.43.339.694.45zM237.313 79.454l42.47 60.74c-.258.224-.483.49-.62.828L228.2 125.5c.222-1.043-.304-2.12-1.329-2.515-.055-.021-.111-.01-.167-.026l9.268-43.266c.475.064.934-.018 1.34-.24zM71.643 191.267l72.121-56.754c.214.213.467.395.766.511.241.092.484.115.726.119l2.827 51.4c-.767.11-1.462.59-1.761 1.365-.084.22-.099.447-.113.669l-74.27 3.494a2.243 2.243 0 0 0-.296-.804zm367.183 147.951c-.378-.144-.762-.143-1.132-.084l-24.243-86.485c.44-.182.794-.518 1.045-.95l88.277 37.487a2.156 2.156 0 0 0 .242 1.738l-63.395 48.84a2.133 2.133 0 0 0-.794-.546zm74.47 51.166c-.226-.087-.458-.106-.685-.119l-7.315-98.347c.696-.142 1.314-.586 1.606-1.285l51.245 16.188a2.16 2.16 0 0 0 .84 2.223l-45.64 81.372c-.019-.009-.033-.024-.051-.032zm243.634 1.927a2.154 2.154 0 0 0-.656-.735l26.105-47.64c.765-.015 1.46-.447 1.853-1.135l48.852 21.405-76.154 28.105zM41.127 135.636l102.045-2.355c.045.294.143.559.298.81l-72.122 56.754a2.207 2.207 0 0 0-.768-.506 2.19 2.19 0 0 0-1.66.034l-28.75-53.16c.369-.243.69-.565.86-1.01.07-.187.076-.38.097-.567zm1030.551 207.543c-.655-.252-1.34-.138-1.902.191l-13.214-19.36c.307-.238.578-.534.729-.921a2.211 2.211 0 0 0-4.129-1.583c-.03.076-.02.16-.04.243l-105.22-13.277c0-.884-.526-1.717-1.404-2.053a2.206 2.206 0 0 0-2.378.524l-45.463-36.708c.088-.137.201-.253.262-.413a2.21 2.21 0 0 0-4.128-1.586c-.07.19-.076.38-.093.564l-78.562.163c-.09-.794-.582-1.52-1.379-1.826-.96-.367-1.981.003-2.557.795l-75.303-42.068c.008-.023.03-.037.038-.06a2.214 2.214 0 0 0-1.272-2.855 2.212 2.212 0 0 0-2.856 1.272c-.148.382-.145.772-.082 1.148l-60.68 16.033c-.214-.577-.643-1.068-1.264-1.307-.938-.36-1.949-.009-2.526.758l-66.704-39.865c.017-.047.06-.077.078-.124a2.21 2.21 0 0 0-1.273-2.855c-1.014-.39-2.106.047-2.65.945l-89.312-39.692c.328-1.097-.213-2.28-1.3-2.699a2.192 2.192 0 0 0-1.575.017L453.64 60.649c.335-.24.632-.546.79-.96a2.212 2.212 0 0 0-1.27-2.858 2.213 2.213 0 0 0-2.859 1.275c-.044.12-.038.249-.06.372l-111.153-6.464a2.212 2.212 0 0 0-1.396-1.9 2.213 2.213 0 0 0-2.858 1.27c-.135.353-.145.713-.1 1.062l-96.437 24.31a2.162 2.162 0 0 0-1.252-1.272 2.206 2.206 0 0 0-2.804 2.97l-87.222 53.148c-.234-.298-.521-.557-.903-.707a2.212 2.212 0 0 0-2.856 1.272c-.073.186-.075.376-.097.569l-102.045 2.352c-.114-.762-.59-1.444-1.358-1.74a2.208 2.208 0 1 0-1.585 4.124c.559.214 1.149.18 1.66-.035l28.745 53.156c-.366.245-.685.57-.855 1.013a2.209 2.209 0 0 0 1.27 2.857c.768.293 1.582.103 2.175-.385l61.405 59.39c-.126.164-.262.327-.34.534a2.21 2.21 0 0 0 1.27 2.855 2.215 2.215 0 0 0 2.858-1.272c.131-.343.145-.695.104-1.037l84.579-19.501c.21.587.64 1.09 1.268 1.332 1.035.4 2.161-.063 2.686-1.006l92.166 37.18c-.284 1.076.247 2.214 1.311 2.623.734.28 1.51.11 2.097-.332l69.839 71.908c-.14.173-.279.35-.362.57a2.206 2.206 0 0 0 1.273 2.855 2.21 2.21 0 0 0 2.852-1.267c.12-.317.15-.639.128-.951l41.614-6.192c.16.69.61 1.303 1.325 1.578.891.34 1.855.05 2.445-.628l70.898 48.708c-.045.085-.111.142-.146.228a2.21 2.21 0 1 0 4.126 1.582c.156-.398.146-.8.071-1.191l94.636-30.379c.233.502.649.922 1.207 1.136a2.205 2.205 0 0 0 2.326-.488l71.237 57.892c-.078.124-.178.226-.23.365a2.21 2.21 0 0 0 4.126 1.585c.178-.47.152-.953.022-1.403l65.1-26.402c.242.456.621.844 1.143 1.041a2.21 2.21 0 0 0 2.855-1.27c.127-.332.147-.669.114-1.002l92.393-20.305c.207.59.636 1.097 1.27 1.34a2.212 2.212 0 0 0 2.856-1.269 2.192 2.192 0 0 0-.102-1.77l23.64-15.12 90.292 12.48a2.19 2.19 0 0 0 1.4 2.086 2.21 2.21 0 0 0 2.858-1.269c.128-.336.146-.68.11-1.017l96.94-22.284c.214.58.642 1.073 1.266 1.312a2.208 2.208 0 1 0 1.582-4.124z"/>
        <path stroke="#58D2D8" stroke-opacity=".5" d="M1108.576 345.087l-29.677-4.874c.005-.135.018-.264.003-.393l96.047-22.197-66.373 27.464zm119.242 11.411c-.237-.296-.524-.558-.904-.706a2.205 2.205 0 0 0-2.33.496l-44.897-38.374c.106-.148.225-.281.292-.463.029-.07.017-.142.036-.222l89.665 12.397-41.862 26.872zm43.647-27.184l-.353-.05 7.874-5.052-7.521 5.102zm42.328-8.745l-15.695-6.89a2.23 2.23 0 0 0 .094-.89l90.622-20.023-75.02 27.803zm146.073-56.049c.2.383.52.688.92.903l-20.132 48.006c-.975-.315-1.994.099-2.52.956l-43.429-21.905c.005-.016.012-.026.017-.037.182-.47.156-.956.023-1.407l65.121-26.516zm74.392 59.31l-92.071-8.371c-.023-.782-.478-1.492-1.193-1.87l20.129-48.006a2.19 2.19 0 0 0 2.21-.512l71.212 58.048c-.075.125-.176.23-.23.367-.044.113-.035.227-.057.343zm98.908-30.474c.155.335.415.605.722.825l-45.684 81.66c-.016-.006-.03-.024-.051-.027-.747-.29-1.532-.108-2.127.35l-47.985-50.454c.16-.19.309-.391.401-.636.154-.402.143-.803.07-1.198l94.654-30.52zm74.597 51.503l-63.42 49.029a2.204 2.204 0 0 0-.79-.544c-.23-.084-.46-.1-.689-.118l-7.273-98.664c.475-.1.908-.327 1.23-.697l70.878 48.837c-.04.08-.106.143-.14.23-.257.668-.136 1.36.204 1.927zm46.99-5.945c.032.015.058.008.09.018l-19.657 93.571a2.344 2.344 0 0 0-.527.018l-24.208-86.758a2.184 2.184 0 0 0 1.233-1.245c.121-.313.15-.633.123-.95l41.625-6.236c.157.692.611 1.31 1.322 1.582zm71.441 73.41l-89.146 21.594a2.178 2.178 0 0 0-1.257-1.316c-.03-.007-.058-.002-.09-.012l19.66-93.569a2.151 2.151 0 0 0 1.489-.436l69.81 72.112c-.137.175-.275.35-.361.57-.135.35-.147.705-.105 1.057zm96.306 39.528l-82.068 49.705c-.236-.31-.53-.578-.918-.724a2.228 2.228 0 0 0-.795-.14l-9.868-86.513a2.151 2.151 0 0 0 1.406-1.063l92.151 37.267c-.128.5-.11 1.018.092 1.468zm90.044-19.43c.042.016.092.012.132.023l-13.212 62.065a2.17 2.17 0 0 0-1.973.828l-71.001-43.471c.024-.052.067-.082.085-.135.134-.344.146-.7.108-1.04l84.593-19.607c.207.591.639 1.095 1.268 1.336zm63.1 60.381l-74.28 3.54c-.114-.759-.59-1.446-1.358-1.74-.044-.017-.089-.013-.134-.024l13.214-62.06a2.194 2.194 0 0 0 1.633-.48l61.381 59.557c-.13.164-.262.332-.346.536-.078.222-.093.447-.11.671zm-163.56 113.36c-.057-.024-.11-.015-.17-.029l9.293-43.412c.985.128 1.974-.387 2.343-1.358.1-.257.129-.525.132-.782l76.45-7.548c.03.162.04.324.105.47l-87.249 53.365c-.237-.299-.526-.561-.903-.706zm-100.078 25.867l53.443-86.296c.044.023.072.06.119.078.634.247 1.299.155 1.851-.158l42.445 60.92c-.265.235-.505.509-.636.864-.135.355-.146.711-.1 1.064l-96.457 24.434a2.146 2.146 0 0 0-.665-.906zm-115.003-6.135l72.865-58.54c.214.207.463.378.757.488.571.222 1.18.188 1.7-.046l37.029 64.174c-.339.246-.628.552-.788.967-.045.124-.036.255-.065.379l-111.156-6.437c-.024-.36-.157-.687-.342-.985zm-53.75-97.978l72.61 24.364c-.224 1.021.274 2.077 1.263 2.493l-21.548 70.137a2.171 2.171 0 0 0-1.2.08l-51.84-96.221a2.21 2.21 0 0 0 .716-.853zm-93.093-42.154l39.552.63 49.666 39.48-89.275-39.766c.033-.115.04-.227.057-.344zm-70.464-41.891l59.795 10.434 7.681 29.128c-.358.15-.654.404-.894.722l-66.694-39.96c.023-.043.058-.077.079-.124.025-.066.013-.137.033-.2zm-65.46 15.033l11.825-15.65 49.363.249c.008.045.025.084.032.129l-60.695 16.121c-.116-.315-.281-.615-.525-.85zm-23.251-16.759c-.379 1.122.175 2.352 1.286 2.78a2.197 2.197 0 0 0 2.338-.5l16.304 14.652.083.08c-.017.026-.027.058-.047.08l-72.808-40.78 52.844 23.688zm-138.12-26.15l67.773-21.976 11.696 20.45c-.324.242-.61.542-.767.953-.073.186-.075.374-.096.565l-78.566.194c-.005-.062-.027-.123-.04-.186zm-48.926-39.95l24.09-13.131 21.677 51.573c-.2.105-.4.23-.555.393l-45.45-36.807c.092-.14.201-.252.263-.412a2.226 2.226 0 0 0-.025-1.616zm-109.49-13.668l17.421-7.119 85.13 20.703-102.424-12.917c0-.233-.055-.452-.127-.667zm-15.92-21.128l14.685 8.66c-.037.07-.097.126-.128.205a2.217 2.217 0 0 0 1.27 2.86c.065.026.136.014.202.034l-1.805 7.91a2.11 2.11 0 0 0-1.484.261l-13.21-19.417c.185-.149.338-.316.47-.513zm158.112 11.695l-7.97 3.56 41.72-26.78.39.055-34.14 23.165zm-139.578-3.094c-.241-.447-.611-.823-1.12-1.014-.98-.382-2.028.022-2.59.86l-14.688-8.66c.038-.073.094-.123.124-.2.035-.089.025-.176.046-.265l29.11 4.773-10.882 4.506zm23.58-2.425l-3.08 1.673-20.255 1.5a2.285 2.285 0 0 0-.069-.291l11.624-4.812 11.78 1.93zm.514-.28l-11.666-1.908 64.085-26.517-52.419 28.426zm102.846 10.251l-30.82-2.951-14.274-35.83c.199-.101.382-.222.544-.377l44.896 38.373c-.104.149-.225.281-.291.458-.043.107-.033.217-.055.327zm58.973-25.936c-.008.254.05.495.127.727l-43.47 19.418 31.996-21.712 11.347 1.567zm11.83-16.65l-8.646 14.734c-.07-.037-.125-.098-.2-.125a2.207 2.207 0 0 0-2.856 1.27c-.028.076-.02.155-.04.226l-10.748-1.488 22.061-14.97c.125.136.275.246.429.354zm8.35 9.702l-5.832-9.774c.236-.18.427-.4.577-.667l15.295 6.718-10.04 3.723zm60.048 18.24c-.014.042-.009.085-.02.127l-53.86-8.024-5.866-9.84 10.5-3.891 49.246 21.628zm74.675-26.694l-39.101 14.614-5.553-36.919a2.17 2.17 0 0 0 1.283-.972l43.43 21.91c-.004.011-.017.02-.02.03-.171.448-.154.91-.04 1.337zm96.74 9.5l-32.653 29.974-60.03-39.054c.033-.062.08-.102.106-.165.043-.113.035-.228.06-.344l92.068 8.368c.011.45.188.86.45 1.221zm50.628 51.841l-60.171-7.855c.035-.92-.488-1.8-1.389-2.149l12.234-40.989a2.155 2.155 0 0 0 1.792-.407l47.99 50.453a2.115 2.115 0 0 0-.404.636c-.036.103-.029.207-.052.311zm242.323 36.73c.118.045.236.034.356.062l-6.227 89.504-65.623 3.983c-.127-.744-.594-1.416-1.346-1.705-.372-.144-.756-.145-1.126-.089l-17.847-69.15c.575-.22 1.066-.646 1.305-1.264.13-.35.14-.709.104-1.057l89.146-21.59c.212.575.637 1.07 1.258 1.306zm9.088 87.978c-.085.226-.1.457-.119.687l-14.263.863 6.171-88.673 9.784 85.798c-.691.16-1.3.612-1.573 1.325zm86.465-49.481l-47.432 75.706-35.047-24.415c.044-.08.107-.135.139-.222a2.24 2.24 0 0 0-.045-1.708l82.063-49.703c.101.128.198.244.322.342zm74.254 45.211l-74.358 61.13a2.183 2.183 0 0 0-.738-.472c-.15-.055-.302-.048-.453-.075l2.905-105.297a2.179 2.179 0 0 0 1.5-.85l71.003 43.466c-.024.05-.062.089-.083.141-.258.676-.132 1.386.224 1.957zm-74.054 61.56l74.361-61.126c.21.196.458.36.738.47.242.089.487.112.728.124l2.798 51.567c-.764.108-1.459.59-1.756 1.365a2.043 2.043 0 0 0-.132.783l-76.445 7.549a2.206 2.206 0 0 0-.292-.731zM1811.42 631.66c-.102-.04-.21-.03-.315-.055l7.087-76.417 46.115-10.7c.133.376.366.7.681.954l-53.443 86.296c-.044-.022-.072-.06-.125-.078zm-37.826-66.12l44.036-10.22-7.073 76.194a2.316 2.316 0 0 0-.832.196l-37.028-64.174c.33-.248.627-.552.788-.967.13-.34.146-.69.109-1.03zm-137.33-78.402l4.538 37.747c-.401.088-.773.252-1.068.543l-49.078-39.017 45.608.727zm-57.989-10.568l18.028-5.455 39.61 13.079.292 2.42-46.215-.734-11.715-9.31zm-28.126 8.51l27.462-8.307 11.436 9.091-38.86-.616c0-.06-.026-.114-.038-.168zm.03-28.912c-.067.95.448 1.867 1.378 2.225.11.043.222.031.334.058l-3.696 24.85a1.88 1.88 0 0 0-.45 0l-7.616-28.886 10.05 1.753zm-12.741-11.954l13.085 10.944c-.078.122-.179.227-.235.372-.026.065-.016.133-.037.205L1540 453.943l-2.564-9.729zm-58.498-2.657l18.759-30.574 38.963 32.582 2.706 10.267-59.598-10.4a2.149 2.149 0 0 0-.83-1.875zm-32.387-25.418l29.264 25.899c-.099.15-.214.28-.279.448-.07.179-.073.364-.093.544l-49.025-.243 20.133-26.648zm-35.11 26.572l-1.047-12.475 28.256-21.09 7.529 6.657-20.387 26.977-14.35-.07zm2.061 15.728a2.29 2.29 0 0 0-.75-.125l-1.269-15.132 13.95.07-11.621 15.383c-.108-.06-.189-.151-.31-.196zm-18.3-15.246l12.498 12.635-12.929-11.617c.135-.173.273-.347.353-.563.06-.15.056-.3.077-.455zm-59.496-26.269a2.2 2.2 0 0 0-.028-1.486l21.003-10.567 34.719 36.555c-.09.107-.158.238-.227.356l-55.467-24.858zm-10.95-24.24l7.53 20.66-11.148-19.492 3.618-1.168zm-37.724-58.461l.162-.365 25.551 25.87 11.837 32.478-3.699 1.2-33.851-59.183zm-3.64-1.479c.189.265.43.488.73.654l-32.804 80.92a2.153 2.153 0 0 0-1.244.025l-21.693-51.617 55.01-29.982zm640.326 120.266c.152.057.305.05.46.072l-2.91 105.305a2.175 2.175 0 0 0-1.416.715l-43.705-30.447 47.446-75.724c.048.018.078.06.125.079zm-280.803 72.571l21.071-21.31 17.36 15.697-38.005 6.4a2.173 2.173 0 0 0-.426-.787zm-93.892-42.039l8.358-22.848 19.761 15.706-27.101 8.2c-.194-.45-.56-.816-1.018-1.058zm-138-40.361l1.276 15.191a2.154 2.154 0 0 0-.917.414l-15.513-15.682 15.153.077zm-85.737-50.671l13.057-4.236c.232.512.654.934 1.217 1.155.052.018.106.009.161.028l-5.735 24.613a2.11 2.11 0 0 0-.832.024l-7.868-21.584zm-37.042-62.472l-1.145.423a2.19 2.19 0 0 0-.73-.784l7.992-13.617-6.117 13.978zm12.576-4.661l-3.604-9.891 5.481 9.196-1.877.695zm3.165 8.68l-2.964-8.14 1.976-.733 5.714 9.58-4.726-.708zm-16.038-1.922l15.589 2.324 8.838 24.253-24.988-25.298.56-1.28zm-1.093.738c.144-.179.29-.366.376-.592.028-.082.02-.164.04-.247l.095.014-.41.931-.1-.106zm-.393.36c.022-.018.045-.029.068-.048l.231.238-.081.188-.218-.377zm-1.88.36c.498.134 1 .118 1.45-.073l.39.684-28.2 64.408 26.36-65.019zm2.978-1.984l-.214-.03a2.06 2.06 0 0 0-.06-.568l.635-.24-.36.838zm12.936-5.494l2.857 7.847-15.214-2.266.525-1.198 11.832-4.383zm-4.008-10.992l3.809 10.449-11.311 4.19 6.42-14.661c.363.112.731.103 1.082.022zm42.552 70.497c-.015.015-.03.024-.046.038l-25.676-25.99-9.153-25.121 4.852.726 30.023 50.347zm24.388-41.06l-22.268 40.738c-.005-.001-.01-.007-.015-.008a2.19 2.19 0 0 0-1.71.056l-29.807-49.981 53.478 7.97c-.018.44.098.853.322 1.226zm2.718-3.161c-.026-.01-.04-.028-.063-.042-.084-.029-.166-.018-.248-.04l10.877-19.899-10.566 19.98zm1.11 1.053c-.173-.348-.451-.626-.788-.847l23.4-44.264 1.985-3.633c.005.006.01.012.015.013.288.11.586.152.878.14l5.563 36.985-31.054 11.606zm35.22 16.114l-35.084-14.573c.1-.377.092-.747-.002-1.106l30.987-11.583 4.1 27.262zm96.753-.522l-50.575-36.567 52.912 34.423-2.337 2.144zm20.352 9.576l-.874 2.285a2.17 2.17 0 0 0-2.24.605l-16.827-12.17 2.356-2.157 17.585 11.437zm15.852-41.362l-15.661 40.865-17.376-11.308 32.54-29.876c.149.124.314.227.497.32zm-14.218 41.802l-1.141-.745 14.83-38.701-11.554 38.724a2.165 2.165 0 0 0-2.135.722zm2.902 4.24l-.288-.841c.5-.232.914-.645 1.127-1.2.04-.107.03-.211.053-.316l53.27 6.955-54.162-4.598zm227.757 134.949c-.014.037-.01.07-.018.108l-74.603-14.441a2.154 2.154 0 0 0-.467-1.44l56.811-55.117c.183.15.373.296.609.385.375.144.75.146 1.12.09l17.85 69.154a2.162 2.162 0 0 0-1.302 1.26zm68.727 12.241l-5.321 4.974-59.207-16.054c.012-.087.038-.175.042-.26l65.55-3.977-1.064 15.317zm16.374-15.296l-15.757 14.718 1.03-14.776 14.333-.87c.056.343.19.65.394.928zm30.307 37.561c-.047-.023-.077-.063-.124-.08-.645-.25-1.316-.15-1.87.169l-25.204-37.24c.093-.079.194-.148.276-.239l35.046 24.418-8.124 12.972zm-46.62-13.201c.369-.015.71-.15 1.027-.333.23.526.654.962 1.231 1.185 1.08.417 2.265-.098 2.76-1.128l38.591 14.847a2.16 2.16 0 0 0-.082.859l-45.949 10.66 2.421-26.09zm-47.436 36.014l45.613-36.947c.243.337.547.629.959.784.107.042.211.03.32.056l-2.44 26.314-44.205 10.26a2.05 2.05 0 0 0-.247-.467zm-53.082-12.104l43.601-11.35 6.853 22.619c-.55.22-1.015.653-1.245 1.25-.01.028-.003.062-.013.094l-49.219-11.998c.035-.206.047-.412.023-.615zm-26.908-33.908l23.278 32.511-33.97-30.711 10.692-1.8zm-28.884-14.655l9.309-9.412c.183.156.377.302.619.395.644.248 1.322.144 1.881-.18l16.701 23.328-10.865 1.828-17.645-15.96zm-21.233-16.655c.083.804.58 1.533 1.381 1.845.137.053.281.045.419.07l-3.594 35.656c-.042 0-.08-.022-.121-.022l-4.522-37.653 6.437.104zm.047-.653c-.006.043-.015.09-.019.133l-6.53-.106-.272-2.285 6.821 2.258zm-9.528-24.766c.1-.025.2-.03.299-.066l10.343 23.318a2.196 2.196 0 0 0-.967 1.017l-7.038-2.328-2.637-21.941zm-2.492-1.259a2.2 2.2 0 0 0 2.087 1.349l2.606 21.71-38.671-12.775 33.978-10.284zm-72.79-2.536l.44-1.21 72.187 3.02c.001.085.04.163.055.25l-34.679 10.497-38.003-12.557zm-.766 2.09l.586-1.6 37.319 12.322-17.683 5.359-20.222-16.081zm-3.711-2.215l3.029 2.407-8.423 23.033-.016-.002 3.697-24.85a2.18 2.18 0 0 0 1.713-.588zM1519.447 376l31.854 78.406a2.015 2.015 0 0 0-.441.312l-13.668-11.436L1519.447 376zm-.51.368l17.476 66.265-38.421-32.13 20.945-34.135zm-21.967 33.285l20.241-35.633c.03.01.053.04.087.051.354.136.712.147 1.063.105l.41 1.551-21.15 34.466-.65-.54zm-.281.49l.638.527-12.652 20.62 12.014-21.147zm-29.068-21.88c.104.065.188.152.306.196.312.119.634.147.95.128l8.202 52.578c-.349.087-.666.242-.935.481l-29.28-25.918 20.757-27.464zm-.496-.366c.029.03.04.064.072.096l-20.708 27.4-7.416-6.562 28.052-20.934zm-59.42-6.832c.1-.141.215-.272.283-.44.045-.124.038-.25.06-.37l58.481 6.101a2.15 2.15 0 0 0 .306 1.127l-28.15 21.008-30.98-27.426zm-1.373.901a2.2 2.2 0 0 0 1.049-.5l30.887 27.338-27.926 20.84-4.01-47.678zm-11.671 59.38a2.174 2.174 0 0 0-.805-.561c-.052-.024-.107-.01-.162-.029l11.99-58.761c.067.003.13.029.192.032l4.034 47.942-15.25 11.378zm.74 1.285l-.21-.218a2.242 2.242 0 0 0-.24-.652l15.009-11.2 1.021 12.151-15.58-.081zm-3.438-2.71l.25.899c-.176.072-.323.193-.478.312l-34.556-36.38 34.784 35.168zm-57.263-25.599l9.726-22.359 11.926 12.56-20.894 10.516a2.092 2.092 0 0 0-.758-.717zm3.965-28.353c-.146.18-.288.364-.373.596-.157.408-.146.82-.066 1.216l-13.11 4.25-11.427-31.347 24.976 25.285zm25.402-40.745l-9.932 17.5 9.658-17.674c.078.074.186.117.274.174zm75.118-27.632c.472.18.954.15 1.404.017l23.474 57.875-17.851 1.248-31.48-13.077 24.41-46.092c.017.003.028.02.043.029zm42.376 56.671l-17.033 1.189-23.525-57.996c.221-.121.426-.258.598-.445l57.24 41.39-17.28 15.862zm104.703 5.494l-33.24 74.476a2.193 2.193 0 0 0-1.133-.035l-27.626-81.459 60.897 5.165c.007.763.428 1.456 1.102 1.853zm228.654 145.039l-3.606 3.369-47.35 12.328-9.205-30.403a2.216 2.216 0 0 0 1.245-1.252c0-.006-.004-.012.002-.017l58.914 15.975zM1865 542.047c-.25.203-.455.449-.606.755l-38.588-14.847c.32-1.097-.22-2.27-1.299-2.687-.653-.25-1.33-.146-1.894.188-.038-.086-.102-.156-.152-.232a2.19 2.19 0 0 0-.558-.788l15.586-19.748c.14.1.27.215.44.283.645.249 1.312.146 1.87-.17L1865 542.048zm-46.702-16.333a2.17 2.17 0 0 0-.032.64l-5.942 1.546 3.16-2.947 2.814.76zm2.001-1.839a2.195 2.195 0 0 0-1.93 1.406l-.002.016-2.52-.684 4.7-4.393-.248 3.655zm1.366.408c-.142-.094-.272-.212-.44-.277-.117-.045-.237-.04-.358-.062l.3-4.302 15.854-14.81-15.356 19.451zm-10.18 4.402l6.908-1.8c.042.109.103.206.167.301.017.041.031.074.049.11l-42.39 34.337 35.265-32.948zm-39.276 35.02c-.409-.155-.833-.145-1.232-.06l-6.856-22.625 46.351-12.07-37.634 35.159a2.08 2.08 0 0 0-.629-.404zm-52.7-12.558l33.215-41.299c.139.095.256.205.415.27.415.154.839.145 1.238.054l9.21 30.42-43.562 11.343a2.231 2.231 0 0 0-.516-.788zm-25.797-32.671l58.145-9.789c.11.362.275.698.55.959l-33.214 41.293c-.14-.089-.256-.202-.416-.263-.65-.25-1.323-.142-1.882.179l-23.183-32.38zm-46.646-30.204c.103-.147.225-.282.29-.456.017-.036.008-.07.018-.105l25.529 4.94c-.044.59.142 1.15.517 1.588l-9.324 9.432-17.03-15.4zm-92.856-30.833c.036-.064.086-.124.12-.188l3.3 1.092-.518 1.404-2.902-2.308zm-75.817-16.228a2.077 2.077 0 0 0-.946-.127l-8.205-52.581c.36-.091.692-.25.968-.502l26.118 21.842-17.846 31.422c-.036-.016-.054-.043-.089-.054zm-136.712-52.127l.111.112 2.294 2.412-9.795 22.516c-.007-.007-.019-.003-.03-.005l5.737-24.618a2.15 2.15 0 0 0 1.683-.417zm63.68-11.355c-.35.095-.679.251-.946.504l-37.39-33.497c.055-.07.098-.144.139-.218l35.414 14.705 2.783 18.506zm1.4.061c-.017-.008-.029-.026-.045-.028a2.226 2.226 0 0 0-.88-.146l-2.734-18.173 10.963 4.556-7.303 13.791zm38.182-.97l-36.895 2.572a2.143 2.143 0 0 0-.923-1.373l7.337-13.857 30.48 12.658zm71.045-5.396l-1.806.563-31.826 2.222 16.897-15.511 16.94 12.25c-.051.09-.128.162-.166.26-.027.07-.018.141-.04.216zm4.784-1.492l-1.27.395a2.054 2.054 0 0 0-.467-.298l.849-2.208 1.05.682c-.028.063-.077.103-.106.165-.158.421-.147.85-.056 1.264zm.792 2.15l.394-.637c.049.024.09.066.14.09.418.16.846.146 1.25.056l.23.667-2.014-.175zm-51.012 15.474c.075-.125.176-.23.232-.375.157-.41.147-.827.065-1.229l45.194-13.168c.153.4.422.73.775.987l-20.205 35.577-26.061-21.792zm-2.855-3.103a2.17 2.17 0 0 0-.854.85l-19.454-8.081 16.896-1.18 3.412 8.411zm2.462.277a2.055 2.055 0 0 0-.645-.409c-.469-.18-.953-.156-1.4-.025l-3.363-8.286 16.138-1.126-10.73 9.846zm41.665-12.005l-41.068 12.829c-.066-.16-.174-.299-.278-.444l11.203-10.281 30.143-2.104zm4.093-.857l-.111.007.116-.04c0 .012-.003.022-.005.033zm4.942-1.572a.829.829 0 0 0 .042.114l-.93.485a3.545 3.545 0 0 0-.186-.265l1.074-.334zm.172 1.745l-.742-.068a2.176 2.176 0 0 0-.208-.916l.931-.493c.14.242.319.447.54.625l-.52.852zm-1.894 1.881c.446-.245.821-.616 1.018-1.129.05-.134.043-.265.067-.4l.563.046-1.352 2.206-.296-.723zm-3.175-1.485l-29.045 8.461 26.531-8.29 2.514-.171zm-69.84 4.872l20.499 8.514c-.012.048-.016.095-.023.144l-57.884-6.046 37.408-2.612zm-67.093 16.314l12.637 45.23-34.069-34.443 21.432-10.787zm-32.372-6.785l29.534-3.389 2.714 9.725-21.646 10.892-12.571-12.709 1.97-4.52zm-.337-.372l-3.842.444c-.11-.528-.4-.985-.846-1.313l2.022-3.695 19.916-35.088-17.25 39.652zm57.867-7.946c-.123.163-.252.317-.327.517a2.195 2.195 0 0 0-.14.842l-27.103 3.112-10.481-37.526c.243-.102.464-.254.658-.437l37.393 33.492zm-.313 2.084l-24.48 12.317-2.664-9.535 27.068-3.106c.023.112.038.222.076.324zm-38.264-35.016l10.468 37.463-29.234 3.359 17.784-40.891c.33.104.66.115.982.069zm-23.547 43.114c.135-.17.272-.338.354-.548.105-.28.145-.565.144-.847l3.574-.407-1.788 4.11-2.284-2.308zm50.381 50.94l-12.925-46.263 24.578-12.37c.242.38.576.713 1.035.891.05.018.106.01.159.028l-11.956 58.612-.89-.898zm156.97 8.805l-29.757-73.25 1.66-2.711 2.408.202 25.69 75.759zm5.129 7.742a2.158 2.158 0 0 0-.232-.85l5.86-3.945-1.813 4.951-3.815-.156zm-.068.564c.005-.038.012-.07.018-.111l3.7.157-.387 1.054-3.331-1.1zm6.02-6.256l-6.503 4.384a2.217 2.217 0 0 0-.544-.434l31.033-69.535-23.986 65.585zm71.407 7.445c-.336.244-.63.549-.788.965-.061.16-.055.316-.078.476l-72.074-3.014 2.02-5.526 48.609-32.749 22.31 39.848zm10.06-60.46c.092.035.185.026.275.05l-8.939 59.989c-.34-.02-.669.02-.97.143l-22.319-39.855 31.102-20.954c.23.266.506.493.851.627zm2.736 59.108l-1.633-59.011.118-.033 18.226 54.937-16.711 4.107zm23.612 16.69l-10.163 5.926-13.111-10.36-.322-11.702 16.868-4.146 6.728 20.282zm64.66-37.733L1668.78 473l-6.677-20.129 70.85-17.41c.004.024.005.057.018.086zm-57.105 55.193c-.404-.154-.823-.144-1.215-.063l-5.696-17.148 64.316-37.535c.004.006.004.012.014.019l-56.81 55.114c-.184-.15-.373-.296-.61-.387zm1.292 2.736l74.604 14.436c-.004.069-.037.144-.036.216l-58.388 9.827-16.823-23.497c.265-.235.49-.505.62-.85.017-.047.012-.092.023-.132zm-42.37-32.266l9.758 7.708.44 15.938c-.153.029-.306.052-.451.106l-10.343-23.318c.22-.113.428-.253.597-.434zm.437-2.294c-.22-.565-.645-1.055-1.256-1.285-.09-.034-.182-.025-.273-.044l8.881-59.617 1.632 58.74-8.984 2.206zm.12.533l8.88-2.18.305 11.176-9.546-7.543c.088-.134.198-.249.259-.407.131-.344.143-.7.103-1.046zm11.677 26.25c-.24-.319-.535-.593-.93-.745-.203-.079-.408-.09-.61-.108l-.429-15.527 12.761 10.084-10.792 6.297zm26.243 5.914c-.088.134-.195.25-.255.402-.01.026-.002.055-.012.081l-25.528-4.943a2.216 2.216 0 0 0-.149-1.004l10.945-6.384 15 11.848zm.195-.308l-14.854-11.736 9.877-5.766 5.645 17.017c-.249.117-.476.279-.668.485zm-64.142-73.701l-48.008 32.348 25.583-69.943c.453.097.911.078 1.322-.091l21.103 37.686zm32.739 107.338c-.138-.058-.281-.045-.418-.075l3.594-35.656a2.188 2.188 0 0 0 1.5-.543l16.998 15.373-21.055 21.29c-.183-.15-.38-.302-.62-.389zm277.514 34.608c-.043.069-.097.12-.125.198l-50.964-15.557a2.159 2.159 0 0 0-.73-2.137l8.119-12.95 43.7 30.446zM1732.9 434.069c-.08.294-.104.576-.074.857l-70.897 17.428-18.232-54.947c.394-.188.707-.51.934-.907l88.268 37.569zm-92.263-39.126c-.11.509-.068 1.013.16 1.455l-31.062 20.924-21.098-37.68c.322-.232.593-.53.758-.916l51.242 16.217zm-202.624-78.447c.168.342.436.612.765.83l-24.445 46.164-11.33-4.703-4.157-27.655 39.167-14.636zm-210.77 43.52l10.491-7.123 42.24-18.867-51.79 28.229-.94-2.238zm-.336.23l.926 2.198-21.164 11.533 20.238-13.73zm-100.796-10.804c.24.482.638.89 1.177 1.102 1.065.407 2.226-.09 2.733-1.085l68.11 26.202-85.373-20.765 13.353-5.454zm-16.668 4.648l8.748-4.745 7.735-.57c.015.127.045.25.086.37l-13.772 5.626-2.797-.681zm-.736.4l2.648.641-15.528 6.346 12.88-6.986zm-11.492-2.79v-.005l10.744 2.613-13.808 7.494c-.246-.35-.555-.652-.982-.814-.066-.026-.133-.02-.2-.034l1.805-7.91c1.02.177 2.053-.337 2.44-1.343zm.133-.815l19.592-1.447-8.242 4.472-11.39-2.77c.01-.084.042-.169.04-.255zm126.979 8.204l-20.795 16.32c-.232-.26-.5-.48-.843-.611-.471-.186-.956-.157-1.408-.024l-7.88-19.785 30.513 2.925c.012.431.177.826.413 1.175zm3.83-.387c.006-.016.021-.03.026-.047.193-.502.163-1.021.003-1.493l6.559-2.932-6.587 4.472zm-3.667.62c.226.26.499.48.84.611.264.101.538.14.807.133l-19.262 13.076 17.615-13.82zm-98.576-11.03c-.007.065-.03.131-.033.197l-7.066.52 2.66-1.444 4.439.727zm3.89-1.146c-.236-.32-.535-.594-.93-.75a2.216 2.216 0 0 0-2.857 1.278c-.034.087-.022.18-.045.263l-3.983-.651 50.496-27.386-42.68 27.246zm.482 1.27a2.116 2.116 0 0 0-.26-.957l46.167-29.473c.238.316.532.596.929.743.471.185.959.157 1.41.018l14.202 35.658-62.448-5.99zm70.62 26.494c-.406.209-.731.54-.946.967l-69.777-26.844c.007-.032.009-.063.017-.1l62.748 6.014 7.957 19.963zm51.84 40.596c-.182-.394-.503-.706-.887-.942l34.914-79.749 33.61 58.754-67.637 21.937zm390.634 111.97c.042-.183.098-.364.093-.545l38.417-6.468 34.316 31.032c-.074.109-.155.216-.214.344l-72.612-24.364zm52.636 97.538l21.543-70.137c1.035.206 2.097-.318 2.487-1.338.01-.032.006-.066.013-.095l49.217 12.004c-.08.53.023 1.037.295 1.48l-72.864 58.535a2.224 2.224 0 0 0-.69-.449zm214.218-18.695l-42.445-60.92c.258-.225.484-.495.62-.833l50.957 15.548c-.22 1.047.306 2.127 1.327 2.525.059.02.112.01.171.024l-9.292 43.412c-.47-.06-.934.02-1.338.244zm165.73-112.26l-72.153 56.976a2.3 2.3 0 0 0-.762-.514 2.03 2.03 0 0 0-.73-.117l-2.8-51.567c.767-.113 1.46-.595 1.76-1.37.083-.221.098-.452.115-.671l74.28-3.54c.04.286.143.555.29.803zm-367.14-148.264c.378.144.763.143 1.139.082l24.199 86.757c-.44.182-.795.523-1.046.953l-88.265-37.57a2.165 2.165 0 0 0-.242-1.74l63.422-49.029c.222.234.48.425.794.547zm-74.45-51.302c.228.088.457.109.685.119l7.27 98.669c-.697.14-1.314.585-1.607 1.29l-51.241-16.218a2.173 2.173 0 0 0-.836-2.232l45.678-81.657c.018.008.033.021.051.03zm-243.646-1.821c.151.298.38.535.653.737l-26.13 47.809c-.764.017-1.46.448-1.85 1.141l-48.848-21.456 76.175-28.231zm715.731 257.187l-102.054 2.412a2.2 2.2 0 0 0-.297-.814l72.153-56.97c.213.212.467.389.77.507a2.18 2.18 0 0 0 1.655-.037l28.73 53.322c-.369.244-.69.568-.86 1.015-.07.184-.076.38-.097.565zM1075.933 342.112c.656.25 1.34.139 1.906-.192l13.203 19.417c-.307.237-.578.537-.73.925a2.221 2.221 0 0 0 1.272 2.864 2.212 2.212 0 0 0 2.857-1.278c.03-.076.02-.163.04-.243l105.22 13.269c0 .887.529 1.723 1.404 2.062a2.21 2.21 0 0 0 2.381-.53l45.447 36.81c-.088.135-.202.255-.26.415a2.217 2.217 0 0 0 1.266 2.86 2.216 2.216 0 0 0 2.86-1.274c.072-.186.075-.38.095-.566l78.567-.199c.087.797.578 1.528 1.375 1.834.96.367 1.984-.004 2.557-.799l75.293 42.168c-.01.027-.03.04-.04.061a2.218 2.218 0 0 0 1.27 2.864c1.14.44 2.419-.131 2.856-1.278.148-.384.148-.774.085-1.152l60.691-16.113c.212.58.64 1.073 1.26 1.313.94.359 1.95.008 2.53-.761l66.688 39.961c-.018.05-.06.078-.079.128a2.22 2.22 0 0 0 1.272 2.863c1.014.392 2.107-.05 2.653-.951l89.298 39.78c-.329 1.102.214 2.292 1.301 2.71.527.205 1.082.17 1.572-.017l51.84 96.222c-.334.239-.631.549-.792.964a2.221 2.221 0 0 0 1.269 2.863 2.213 2.213 0 0 0 2.862-1.277c.045-.121.035-.253.063-.373l111.155 6.43c.063.827.572 1.591 1.395 1.91a2.214 2.214 0 0 0 2.856-1.278c.136-.355.148-.717.1-1.064l96.457-24.434c.216.568.641 1.043 1.252 1.276a2.212 2.212 0 0 0 2.854-1.275 2.217 2.217 0 0 0-.05-1.709l87.254-53.362c.234.301.52.558.903.711a2.217 2.217 0 0 0 2.856-1.278c.071-.19.075-.377.097-.57l102.053-2.407c.114.764.59 1.446 1.357 1.745a2.208 2.208 0 0 0 2.857-1.278 2.207 2.207 0 0 0-2.932-2.825l-28.722-53.32c.369-.245.688-.569.858-1.016a2.217 2.217 0 0 0-1.269-2.863c-.768-.296-1.582-.103-2.176.387l-61.38-59.556c.125-.165.26-.33.34-.537a2.224 2.224 0 0 0-1.269-2.866 2.21 2.21 0 0 0-2.857 1.28c-.134.345-.147.695-.107 1.041l-84.595 19.6a2.199 2.199 0 0 0-1.268-1.336c-1.033-.397-2.156.066-2.684 1.014l-92.158-37.26c.287-1.079-.243-2.22-1.307-2.63-.737-.281-1.513-.11-2.097.334l-69.81-72.112c.137-.174.276-.354.362-.575a2.216 2.216 0 0 0-1.272-2.864 2.212 2.212 0 0 0-2.853 1.276c-.122.318-.151.64-.131.951l-41.62 6.234c-.16-.693-.609-1.307-1.319-1.582a2.192 2.192 0 0 0-2.448.632l-70.88-48.839c.043-.082.109-.142.143-.229a2.22 2.22 0 0 0-1.271-2.863 2.213 2.213 0 0 0-2.854 1.278c-.156.399-.144.805-.069 1.195l-94.656 30.525a2.207 2.207 0 0 0-1.207-1.142 2.214 2.214 0 0 0-2.328.49l-71.216-58.048c.079-.125.178-.224.231-.364a2.22 2.22 0 0 0-1.269-2.866 2.214 2.214 0 0 0-2.856 1.275c-.18.474-.154.96-.024 1.41l-65.115 26.517c-.243-.456-.621-.847-1.141-1.042a2.207 2.207 0 0 0-2.859 1.275 2.214 2.214 0 0 0-.114 1.006l-92.406 20.415c-.21-.592-.638-1.101-1.272-1.348a2.212 2.212 0 0 0-2.853 1.275 2.198 2.198 0 0 0 .098 1.779l-23.649 15.18-90.292-12.48c.011-.902-.51-1.753-1.399-2.094a2.215 2.215 0 0 0-2.859 1.274 2.21 2.21 0 0 0-.11 1.024l-96.957 22.399c-.213-.582-.639-1.074-1.265-1.314a2.203 2.203 0 0 0-2.854 1.275 2.22 2.22 0 0 0 1.27 2.863z"/>
    </g>
</svg>
