<svg xmlns="http://www.w3.org/2000/svg" width="172" height="34" viewBox="0 0 172 34">
    <g fill="none" fill-rule="evenodd">
        <g fill="#89C1E9" fill-rule="nonzero">
            <path d="M32.627 21.623c-2.119 5.08-7.464 8-12.857 7.024-5.394-.977-9.39-5.587-9.612-11.092-.222-5.504 3.388-10.426 8.685-11.839 5.297-1.413 10.86 1.061 13.382 5.952h3.417c-2.26-5.834-7.913-9.622-14.14-9.475-6.227.148-11.696 4.199-13.68 10.134H3.856L3 14.834h4.214c-.111.74-.168 1.489-.168 2.238 0 .3.011.598.03.894H3.854L3 20.473h4.44c1.52 6.509 7.173 11.2 13.818 11.467 6.646.269 12.654-3.951 14.688-10.317h-3.319z"/>
            <path d="M37 15.147h-7.52l-.017.05a2.204 2.204 0 0 0-2.472-.918 2.22 2.22 0 0 0-1.588 2.114 2.22 2.22 0 0 0 1.555 2.14 2.204 2.204 0 0 0 2.486-.88h6.757L37 15.147z"/>
        </g>
        <path fill="#FFF" d="M57.523 8.746l-1.253 2.52c-.68-.68-1.774-1.02-3.282-1.02-1.43 0-2.601.6-3.515 1.799-.914 1.2-1.371 2.717-1.371 4.553 0 1.836.423 3.293 1.271 4.37.848 1.079 1.979 1.618 3.393 1.618 1.617 0 2.882-.578 3.797-1.734l1.417 2.46c-1.242 1.32-3.062 1.981-5.46 1.981-2.399 0-4.262-.79-5.59-2.367-1.328-1.578-1.992-3.73-1.992-6.457 0-2.54.736-4.662 2.208-6.37 1.473-1.706 3.358-2.56 5.655-2.56 1.969 0 3.543.402 4.722 1.207zM70.461 25l-1.254-3.48h-5.883L62.13 25h-3.387l6.844-17.402h1.336L73.824 25h-3.363zm-4.207-12.152l-2.063 6.34h4.125l-2.062-6.34zm12.433 5.836V25h-3.046V7.844c2.03-.086 3.218-.13 3.562-.13 2.711 0 4.693.417 5.947 1.249 1.254.832 1.881 2.13 1.881 3.896 0 3.938-2.32 5.907-6.96 5.907-.344 0-.805-.028-1.383-.082zm0-8.204v5.497c.516.054.922.082 1.22.082 1.39 0 2.405-.233 3.046-.698.64-.465.961-1.22.961-2.267 0-1.782-1.434-2.672-4.3-2.672-.321 0-.63.02-.927.058z"/>
        <path fill-rule="nonzero" stroke="#FFF" stroke-linecap="square" stroke-width="2" d="M105 5v24"/>
        <g>
            <path fill="#900B4C" d="M168.79 20.982a7.779 7.779 0 0 0-.957-.771 8.748 8.748 0 0 0-1.175-.67c-.474-.218-.963-.4-1.465-.544-.094.431-.196.848-.299 1.237-.103.389-.217.77-.337 1.1a5.965 5.965 0 0 1-.214.54l5.22-.028a8.057 8.057 0 0 0-.775-.864h.002z"/>
            <path fill="#C60552" d="M164.62 16.835c.035-.145.068-.29.099-.437l.099-.43a38.123 38.123 0 0 1 .206-.923c.011-.063.024-.122.04-.181a.12.12 0 0 0 .006-.037.458.458 0 0 0 .018-.072c.018-.072.032-.147.051-.22l.03-.137.016-.07.067-.295a.104.104 0 0 0 .008-.03l.023-.093.016-.08c.026-.098.049-.194.072-.29.007-.025.014-.05.018-.076v-.008a.114.114 0 0 0 .007-.027c.013-.049.027-.098.035-.147a.366.366 0 0 0 .014-.05c.01-.028.015-.06.026-.088a.48.48 0 0 1 .013-.06c.017-.069.037-.137.055-.205a.58.58 0 0 1 .018-.062v-.005l.014-.056a.164.164 0 0 0 .013-.045c0-.014.009-.027.013-.043l.05-.18c0-.014.009-.025.013-.038.004-.013 0-.008 0-.014a.294.294 0 0 1 .011-.031c.022-.072.04-.141.065-.209a.145.145 0 0 1 .008-.031c0-.006.004-.01.004-.012 0-.003.008-.024.01-.037.003-.012 0-.004 0-.006.016-.058.036-.113.054-.166.005-.008.005-.016.01-.024v-.013a.146.146 0 0 0 .012-.026c.01-.035.024-.07.037-.102a.06.06 0 0 1 .006-.021l.015-.048a.045.045 0 0 0 .007-.017.053.053 0 0 0 .008-.02s0-.006.005-.01a.17.17 0 0 0 .016-.043l.026-.06c.009-.03.02-.06.034-.088 0-.005 0-.01.006-.015v-.008c.007-.01.01-.022.016-.031a.585.585 0 0 0 .033-.074.122.122 0 0 1 .009-.022l.017-.038a.355.355 0 0 0 .02-.039.01.01 0 0 0 0-.006.447.447 0 0 1 .023-.045l.017-.033a.89.89 0 0 1 .075-.11v-.006c0-.005 0 0 0 0s0-.005.006-.01a.26.26 0 0 1 .028-.043.23.23 0 0 0 .014-.027c0-.005.01-.01.01-.016 0 0 .006-.005.006-.01a.455.455 0 0 0 .038-.052l.004-.005a.046.046 0 0 0 .013-.013.03.03 0 0 1 .01-.011.052.052 0 0 1 .014-.019l.025-.029v-.006c0-.004.007-.009.01-.013.003-.005 0 0 .004-.004a.11.11 0 0 1 .032-.029c0-.004.005-.006.007-.01h.006l.016-.014c.007-.003.005-.005.005-.007l.013-.008a.058.058 0 0 1 .014-.009c0-.005 0-.005.007-.007h.008a.122.122 0 0 1 .023-.017l.016-.009h.012c.01-.005.02-.01.03-.013h.01s.006 0 .012-.004h.005l.017-.004a.084.084 0 0 1 .024-.006h.02c-2.074.254-4.153.522-6.236.803-.029.004-.055.01-.083.015v.004a.047.047 0 0 0-.024.007.314.314 0 0 0-.057.02h-.006a1.284 1.284 0 0 0-.102.05.498.498 0 0 0-.057.033l-.008.007a.742.742 0 0 0-.074.054h-.006a.195.195 0 0 0-.018.019v.008l.057.177c.033.115.066.228.103.342.09.283.176.565.262.848.022.076.043.152.068.229.09.29.178.582.269.873.09.29.174.57.262.855l.258.824c.084.27.165.532.253.788l.458.063c.104.016.21.035.313.053l.126.021a19.518 19.518 0 0 1 .834.17 15.129 15.129 0 0 1 .655.167l.314.095.3.095c.034-.145.068-.29.1-.436l-.003.001z"/>
            <path fill="#B40951" d="M163.707 22.45c-.011 0-.023 0-.035-.005l-.036-.007-.015-.004a.149.149 0 0 1-.02-.007.14.14 0 0 1-.034-.011.219.219 0 0 1-.037-.014l-.021-.01-.007-.003s-.005 0-.007-.005a.409.409 0 0 0-.038-.017l-.035-.021a.374.374 0 0 1-.037-.025l-.01-.007a.1.1 0 0 0-.022-.018.308.308 0 0 1-.036-.028c-.01-.01-.024-.019-.035-.029a.155.155 0 0 1-.03-.027h-.005a.01.01 0 0 1-.005-.007s-.009-.005-.015-.011a.174.174 0 0 0-.019-.019l-.02-.02a.107.107 0 0 1-.02-.018.538.538 0 0 0-.035-.04.347.347 0 0 1-.036-.04c-.01-.015-.027-.03-.04-.045a.275.275 0 0 1-.036-.046l-.035-.043c-.01-.014 0-.005-.007-.006-.006 0 0-.005 0-.007a.481.481 0 0 1-.031-.044c-.014-.017-.027-.032-.04-.053l-.038-.056a.214.214 0 0 1-.037-.054l-.041-.063a.531.531 0 0 1-.037-.056l-.041-.062c0-.004 0-.007-.006-.011-.006-.005 0-.007-.007-.008-.006-.015-.015-.028-.023-.046a.528.528 0 0 1-.044-.072c-.01-.013-.016-.025-.024-.037a.023.023 0 0 0-.007-.014.334.334 0 0 0-.022-.037v-.005l-.127-.237v-.005a.15.15 0 0 1-.016-.03c-.014-.027-.029-.06-.047-.089-.021-.047-.049-.096-.071-.146-.007-.012-.014-.024-.02-.039l-.024-.05c-.007-.018-.029-.061-.043-.091-.014-.03-.033-.068-.048-.106-.016-.039-.031-.069-.047-.103a.61.61 0 0 1-.03-.058l-.015-.036c-.039-.085-.077-.175-.117-.265-.005-.013-.01-.029-.018-.045a.1.1 0 0 1-.01-.018c0-.008-.006-.014-.007-.021a.812.812 0 0 1-.03-.075c-.022-.047-.042-.099-.062-.147-.02-.049-.05-.11-.07-.168a.433.433 0 0 0-.014-.03c-.03-.074-.06-.154-.09-.231a4.63 4.63 0 0 1-.066-.16c-.005-.018-.014-.035-.021-.055l-.098-.25a.676.676 0 0 0-.02-.053c-.015-.047-.037-.094-.054-.14a.082.082 0 0 0-.01-.023c-.058-.16-.12-.321-.18-.488-.221 0-.448.01-.677.019h-.016a25.196 25.196 0 0 0-2.18.197c-.48.062-.978.143-1.488.237-.668.123-1.353.269-2.064.446-.481.12-.976.255-1.48.401a12.21 12.21 0 0 0 .169.324c.06.113.122.223.183.331.007.012.012.025.02.037.005.01.01.02.017.03.057.1.115.2.167.298.012.017.02.032.03.048.024.046.054.089.083.132.022.03.037.06.057.09.021.03.046.077.066.107a4.976 4.976 0 0 0 .18.268l.18.25c0 .004.01.008.013.014.047.063.094.12.142.18a.106.106 0 0 1 .016.022l.07.076c.036.044.075.085.11.127.022.024.05.048.072.076l.104.103.074.064c.034.03.07.057.106.085a.331.331 0 0 0 .04.033c.022.014.04.03.062.042l.018.012a2.227 2.227 0 0 0 .166.097c.05.022.097.042.143.06.007 0 .014.005.022.007a.992.992 0 0 0 .14.038h.018a.912.912 0 0 0 .149.015l7.825.051h-.056z"/>
            <path fill="#C60552" d="M162.381 19.478c.02.039.036.077.052.113l.016.03c.026.06.053.113.074.163.068.143.146.282.233.415.046.07.102.133.165.19a.16.16 0 0 0 .098.046h.032l.01-.004a.731.731 0 0 0 .177-.201c.07-.108.131-.22.182-.338.06-.131.117-.282.176-.445.012-.031.022-.066.032-.1l.052-.156c.001-.007.004-.014.009-.02l.074-.238a14.69 14.69 0 0 0-1.74-.224l.35.776.008-.007z"/>
            <path fill="#B40951" d="M153.206 16.498a.08.08 0 0 0 .02 0l.029-.006c.043-.009.088-.016.13-.024.019-.004.04-.009.061-.012l.154-.025c.214-.038.425-.074.635-.108.066-.011.135-.02.202-.03l.031-.005c.219-.034.433-.064.643-.09l.062-.009c.02 0 .04-.005.057-.007l.028-.005c.258-.03.506-.057.756-.081.061-.006.126-.01.184-.017.241-.021.471-.04.702-.055.195-.012.388-.02.581-.03a22.47 22.47 0 0 1 2.221.013c-.048-.157-.1-.315-.148-.475-.048-.16-.102-.323-.153-.485l-.153-.5c-.05-.169-.105-.338-.16-.507-.056-.169-.097-.32-.15-.481-.01-.033-.022-.065-.029-.096l-.12-.383c-.023-.08-.049-.155-.074-.234-.015-.044-.026-.086-.04-.127v-.01c-.027-.08-.05-.161-.081-.242-.018-.064-.042-.128-.061-.19-.034-.112-.073-.226-.106-.337l-.06-.194c-.08-.255-.165-.512-.25-.769-.022-.08-.049-.156-.075-.235l-.101-.311c-.12-.363-.241-.728-.363-1.084V9.34c-.027-.076-.051-.15-.08-.224-.067-.193-.13-.386-.2-.577-.051-.148-.104-.292-.157-.437-.04-.115-.08-.232-.122-.344v-.007a10.8 10.8 0 0 1-.065-.172c-.021-.058-.05-.137-.08-.206-.02-.055-.041-.105-.059-.158-.027-.074-.056-.144-.08-.216a4.961 4.961 0 0 0-.066-.171c-.023-.057-.05-.131-.075-.195l-.064-.162c-.022-.057-.046-.119-.072-.175a.046.046 0 0 0-.007-.02l-.15-.363a6.349 6.349 0 0 0-.301-.679c-.02-.044-.04-.08-.057-.125s-.04-.081-.058-.122c-.011-.023-.024-.043-.034-.064-.01-.02-.019-.04-.03-.059-.01-.02-.025-.055-.04-.08l-.06-.118a5.38 5.38 0 0 0-.074-.137l-.06-.11c-.018-.038-.046-.081-.071-.126l-.058-.096c-.017-.03-.05-.08-.072-.117-.02-.027-.04-.058-.058-.085-.02-.028-.047-.067-.072-.099-.025-.031-.034-.052-.051-.08-.017-.029-.05-.058-.072-.087a.675.675 0 0 1-.05-.06 1 1 0 0 0-.08-.077.322.322 0 0 0-.045-.044.625.625 0 0 0-.113-.09 2.14 2.14 0 0 0-.217-.122l-.105-.051c-.033-.016-.046-.015-.069-.024a.98.98 0 0 0-.175-.052c-.031-.008-.064-.016-.099-.022-.034-.006-.05-.006-.08-.01-.03-.005-.064-.009-.098-.012h-.18l-.081.006c-.035 0-.068.007-.104.013l-.087.013-.105.022c-.497.117-1.038.423-1.625.934-.563.486-1.168 1.16-1.815 2.029-.09.12-.178.242-.268.366-.286.399-.579.839-.883 1.315-.204.319-.41.656-.62 1.009l.016.034c.017.034.035.066.05.1.033.066.065.131.096.197l.065.133v.007c0 .001.004 0 .004.005.065.136.13.278.194.418.041.087.08.169.12.258v.004l.321.698c0 .004.006.01.006.012a149.09 149.09 0 0 1 .513 1.193c.036.081.069.156.098.233.17.405.335.8.495 1.19l.031.076.384.947a.538.538 0 0 1 .023.058l.178.439.182.451.449 1.119c-1.281.098-2.562.201-3.84.3-.247.02-.494.04-.744.065-.087.008-.178.019-.268.027-.16.017-.321.032-.492.052l-.278.033a24.07 24.07 0 0 0-.507.06l-.329.043-.463.063-.388.059-.1.014c-.054.128-.114.256-.17.382l-.021.05c-.263.593-.515 1.175-.754 1.74l-.063.151c-.054.125-.108.25-.16.376l.232-.105c.08-.032.16-.069.235-.103.074-.034.156-.065.233-.1.076-.035.163-.066.243-.1.035-.015.068-.028.1-.043.033-.016.066-.028.1-.04.032-.012.065-.03.1-.044l.099-.042c.036-.017.076-.03.114-.046.132-.055.265-.111.395-.161l.234-.094a.255.255 0 0 1 .037-.016c.053-.02.107-.043.161-.063.202-.08.402-.161.602-.235.033-.015.066-.028.1-.04.034-.013.07-.025.104-.039l.049-.02c.055-.02.107-.037.16-.059l.554-.203c.036-.014.074-.028.11-.04.056-.021.11-.038.165-.058.176-.063.35-.123.527-.184.053-.019.109-.037.161-.057l.051-.015a30.035 30.035 0 0 1 .62-.205l.138-.043.1-.032c.061-.022.122-.038.184-.057.124-.04.25-.08.373-.117l.056-.014.04-.014.123-.036.024-.008c.062-.018.119-.036.179-.052l.31-.088.208-.057c.073-.022.147-.043.22-.062l.098-.026.178-.048.12-.03c.012-.006.026-.008.039-.013.102-.025.204-.05.306-.08.033-.008.069-.017.1-.027l.08-.018.24-.06c.05-.01.101-.021.146-.033h.017c.087-.022.175-.04.26-.06h.013c.124-.032.241-.057.364-.082l.074-.016.025-.006c.06-.013.123-.025.179-.038l.177-.036a16.2 16.2 0 0 1 .322-.063c.051-.011.1-.02.154-.03l-.009-.004z"/>
            <path fill="#D80057" d="M143.21 9.9l.394-.653c.043-.063.082-.127.122-.193.099-.162.198-.32.298-.476.04-.068.082-.133.124-.2.136-.215.272-.428.41-.638.087-.135.175-.267.263-.4.008-.01.014-.02.021-.031.03-.046.058-.09.09-.135.049-.074.097-.15.149-.223l.044-.066c.035-.05.067-.1.103-.148.035-.048.07-.11.11-.161.022-.033.047-.066.068-.101.035-.048.068-.097.101-.145l.086-.123.113-.162h.005a2.728 2.728 0 0 1 .127-.182c.005-.01.013-.017.019-.029l.102-.14c.036-.047.055-.076.082-.113l.064-.086a.453.453 0 0 1 .026-.038c.026-.033.05-.068.077-.1.03-.047.064-.09.098-.135.018-.029.04-.057.06-.081a15.211 15.211 0 0 0 .196-.259c.015-.018.03-.04.046-.062l.026-.034c.017-.02.032-.038.048-.06.036-.049.07-.096.111-.144.04-.048.064-.086.1-.128l.016-.022a.287.287 0 0 0 .019-.025l.097-.121a6.814 6.814 0 0 1 .133-.167.366.366 0 0 1 .03-.038c.022-.03.046-.057.07-.086.037-.042.07-.086.105-.13.017-.02.034-.039.05-.06l.073-.088a4.195 4.195 0 0 1 .082-.093.1.1 0 0 1 .017-.024l.07-.08.075-.088c.023-.029.05-.058.073-.088.024-.03.062-.068.091-.101.03-.034.048-.056.073-.081.026-.025.035-.039.054-.06a3.28 3.28 0 0 1 .116-.13c.021-.023.042-.048.066-.071.008-.01.021-.022.03-.035a.075.075 0 0 0 .016-.017l.03-.03c.038-.043.081-.09.12-.131l.036-.036a.095.095 0 0 1 .017-.019c.05-.05.096-.101.143-.149l.054-.055a.836.836 0 0 1 .046-.047c.033-.033.064-.066.097-.096.034-.03.082-.081.118-.12.016-.017.03-.03.048-.045a.353.353 0 0 0 .04-.04l.008-.01.027-.024a9.155 9.155 0 0 0 .18-.17l.098-.088a.773.773 0 0 1 .064-.06l.03-.027c.022-.02.045-.041.07-.061l.06-.056.02-.016c.055-.048.109-.09.159-.135l.05-.041.017-.015a.095.095 0 0 1 .017-.015c.078-.065.159-.128.237-.189a.225.225 0 0 1 .019-.016l.029-.023a1.06 1.06 0 0 1 .052-.038l.133-.101.088-.063c.03-.023.062-.044.09-.065.006-.005.012-.007.017-.01A.386.386 0 0 0 150.5.83l.05-.033c.008-.006.02-.011.03-.02a.656.656 0 0 0 .061-.044l.122-.077a.182.182 0 0 0 .043-.028.719.719 0 0 0 .048-.027h.005c.005 0 .014-.008.02-.013l.222-.129.026-.014.016-.009a.066.066 0 0 1 .02-.01 5.882 5.882 0 0 1 .267-.139l.018-.008a.061.061 0 0 1 .012-.006l.032-.015c.074-.034.146-.067.22-.096l.03-.016h.005a.181.181 0 0 1 .035-.012l.029-.012a.36.36 0 0 1 .043-.017c.036-.014.07-.027.106-.039a.06.06 0 0 1 .014-.005.122.122 0 0 1 .02-.007.305.305 0 0 1 .04-.014h.008l.018-.007.102-.033-9.57 2.9c-.138.043-.279.089-.42.142l-.019.008-.032.014a6.575 6.575 0 0 0-.787.345c-.046.02-.091.045-.137.07-.097.049-.197.102-.295.16l-.086.046-.07.04a.256.256 0 0 0-.036.022l-.06.035a3.25 3.25 0 0 0-.164.1c-.033.02-.07.04-.103.063l-.177.112c-.032.02-.065.041-.096.063a6.695 6.695 0 0 0-.273.183l-.026.017-.256.18c-.03.02-.06.045-.091.067a8.146 8.146 0 0 0-.194.145l-.11.08-.185.141c-.035.03-.074.06-.11.088-.018.015-.036.03-.056.044l-.142.116-.105.085a14.85 14.85 0 0 0-.275.232l-.026.023c-.008.007 0 0 0 0-.146.125-.296.258-.444.392-.024.023-.048.043-.073.068-.144.13-.29.265-.437.403-.043.04-.082.081-.127.12-.045.04-.077.075-.117.113l-.164.161c-.04.039-.082.077-.116.115-.058.058-.117.116-.175.177l-.088.087-.022.022c-.093.093-.18.188-.274.281a.154.154 0 0 0-.016.018l-.06.062c-.081.08-.163.17-.24.257l-.108.112c-.068.072-.133.145-.201.22-.04.04-.077.084-.115.124l-.198.218c-.038.045-.082.088-.12.133l-.196.223-.122.14c-.068.08-.137.155-.205.233-.038.046-.082.093-.119.139l-.223.264-.101.117c-.109.13-.218.262-.328.397-.23.274-.457.556-.683.838l-.164.205c-.11.142-.22.282-.328.424-.225.289-.447.58-.669.87l-.318.423c-.06.076-.114.152-.171.227-.201.27-.398.541-.597.813a.404.404 0 0 1-.035.047c0 .004-.006.01-.01.016-.005.004-.018.025-.028.04l-.41.564c-.044.064-.09.125-.133.188-.103.147-.207.292-.31.436-.026.04-.053.081-.081.116l-.046.069c-.139.2-.277.398-.41.595a.891.891 0 0 0-.04.058c-.123.182-.246.36-.367.54l-.125.184c-.096.143-.192.284-.286.426-.038.058-.077.113-.115.17-.122.187-.246.372-.365.555l-.005.007-.053.08c-.11.162-.217.33-.323.491l-.114.179c-.087.133-.174.264-.257.396-.032.055-.07.11-.105.162-.113.175-.223.351-.328.52l-.022.035-.294.469c-.15.242-.296.474-.433.697-.01.013-.016.027-.024.037l-.216.352-.209.346a.133.133 0 0 0-.014.026c-.133.215-.254.417-.365.603l-.03.052c-.109.18-.209.348-.297.5-.006.007-.012.02-.018.028l-.233.403-.014.024-.089.155s0 .004-.005.005l-.005.006v.01l-.008.014a.024.024 0 0 0-.005.012.18.18 0 0 0-.018.028.2.2 0 0 1-.016.027.3.3 0 0 1-.025.044l-.017.035-.033.06c-.011.023-.013.027-.021.04-.008.013-.025.046-.038.072l-.026.048c-.014.026-.029.051-.042.08a.555.555 0 0 0-.03.059l-.045.088c-.017.029-.033.06-.05.093l-.03.056c-.022.037-.041.076-.06.117l-.038.069c-.018.04-.04.08-.062.12l-.033.065-.693 1.341-.353.686-.623 1.218c-.246.49-.427.834-.462.902l.035.005h12.029c.02-.046.036-.092.054-.138l.082-.205a11.27 11.27 0 0 0 .129-.33l.093-.234.023-.06c.074-.182.146-.367.217-.552.047-.119.095-.235.141-.355.238-.605.474-1.198.675-1.702.064-.162.128-.317.185-.46.026-.07.054-.135.082-.198l.024-.065a1.68 1.68 0 0 1 .046-.107c.016-.032.022-.06.033-.09a.64.64 0 0 0 .03-.07c.011-.03.023-.054.033-.08a.78.78 0 0 1 .026-.063l.027-.064c.009-.023.015-.035.02-.052a.358.358 0 0 1 .021-.048.37.37 0 0 1 .018-.041.12.12 0 0 1 .016-.03.296.296 0 0 1 .028-.062c.02-.04.04-.081.058-.13a.055.055 0 0 0 .006-.016l.064-.142c.05-.106.102-.224.164-.353.027-.063.057-.126.087-.193 0 0 0-.007.004-.01.059-.132.123-.269.193-.42.009-.023.02-.044.03-.065l.071-.162a.687.687 0 0 0 .036-.08c.035-.072.068-.145.102-.22l.006-.009c.037-.08.077-.162.115-.249a.285.285 0 0 1 .023-.047l.103-.222a.714.714 0 0 0 .024-.05c.045-.094.087-.191.137-.288a26.74 26.74 0 0 0 .382-.809l.164-.343a2.46 2.46 0 0 0 .068-.14l.024-.048c.09-.19.185-.381.28-.578l.02-.039.276-.565c.01-.023.023-.049.036-.074l.1-.2c.077-.16.158-.322.24-.484.036-.07.07-.142.109-.215.101-.204.206-.41.311-.62a.708.708 0 0 0 .047-.09 46.982 46.982 0 0 1 .448-.867c.087-.172.178-.346.269-.52.037-.071.074-.141.11-.213a308.198 308.198 0 0 1 .38-.715 86.507 86.507 0 0 1 .497-.924l.291-.53c.04-.073.082-.146.12-.22.121-.217.246-.436.367-.655a.966.966 0 0 0 .03-.056s0-.004.004-.005a126.405 126.405 0 0 1 .862-1.502l.066-.112c.135-.23.272-.46.41-.69l.013-.018-.005.011z"/>
            <path fill="#900B4C" d="M166.332 13.521c-.02.068-.037.142-.058.214-.061.231-.124.482-.184.75-.036.154-.07.316-.103.475-.05.217-.095.446-.142.674l-.205 1.045-.035.173c-.011.058-.023.114-.03.171-.009.057-.025.116-.037.175a1.74 1.74 0 0 1-.035.172 11.023 11.023 0 0 1 1.039.52c.72.374 1.403.816 2.041 1.32l.11.074c-.044-.265-.283-1.574-.323-1.815a.103.103 0 0 0-.006-.022c-.02-.111-.035-.219-.056-.325-.004-.034-.01-.066-.016-.1-.015-.068-.026-.134-.037-.2-.01-.042-.014-.08-.022-.124l-.043-.237c0-.016-.005-.032-.007-.047a8.073 8.073 0 0 1-.056-.3v-.005c-.017-.084-.03-.163-.048-.237a5.072 5.072 0 0 1-.023-.128c-.007-.042-.018-.086-.025-.128-.005-.025-.012-.05-.016-.073a.322.322 0 0 0-.008-.04.2.2 0 0 0-.01-.04c0-.022-.008-.045-.011-.068-.014-.063-.028-.125-.038-.182-.01-.057-.019-.087-.028-.128-.01-.04-.02-.1-.031-.15a1.31 1.31 0 0 1-.024-.118c-.014-.057-.026-.114-.04-.167l-.017-.08-.056-.241a13.95 13.95 0 0 1-.074-.303c-.007-.022-.014-.045-.019-.07l-.033-.122c0-.016-.01-.031-.012-.046v-.006l-.027-.1a3.255 3.255 0 0 0-.02-.065.041.041 0 0 0 0-.015l-.02-.07c-.006-.024-.012-.044-.02-.067l-.033-.118s0-.01-.007-.013l-.038-.116v-.01a.647.647 0 0 0-.032-.09c0-.01-.007-.02-.009-.03a.014.014 0 0 1-.004-.011l-.041-.114a.552.552 0 0 1-.016-.04c-.01-.027-.021-.053-.033-.079a.21.21 0 0 0-.013-.033.01.01 0 0 0 0-.009l-.039-.084a.116.116 0 0 0-.009-.02l-.03-.063a.16.16 0 0 1-.013-.025c-.012-.02-.022-.039-.033-.054-.01-.015-.005-.01-.007-.014-.013-.02-.026-.037-.036-.054l-.008-.01a.29.29 0 0 1-.026-.033l-.012-.012a.531.531 0 0 0-.031-.032.327.327 0 0 0-.042-.019h-.009a.144.144 0 0 0-.038-.005h-.009a.212.212 0 0 0-.127.052.688.688 0 0 0-.137.174 3.176 3.176 0 0 0-.25.592c-.034.101-.066.212-.1.328l-.013-.002z"/>
            <path fill="#FFF" fill-rule="nonzero" d="M147.17 24.177h1.222v5.757h-1.282v-4.008l-3.94 3.845-3.938-3.855v4.018h-1.281v-5.757h1.23l3.99 3.876 3.998-3.876zM149.552 29.934v-5.757h1.45v5.757h-1.45zM153.715 25.776c-.34.312-.51.739-.51 1.28 0 .54.17.968.51 1.28.34.312.933.468 1.782.467h5.075v1.131h-5.075c-1.258 0-2.177-.264-2.756-.792-.58-.528-.87-1.224-.87-2.087 0-.863.29-1.558.87-2.086.579-.527 1.498-.791 2.756-.792h5.075v1.13h-5.075c-.85 0-1.443.157-1.782.47z"/>
            <path fill="#FFF" fill-rule="nonzero" d="M166.489 24.177H165.1l-4.819 5.757h1.59l3.923-4.688 3.917 4.688h1.591l-4.814-5.757z"/>
        </g>
    </g>
</svg>
