<svg xmlns="http://www.w3.org/2000/svg" xmlns:xlink="http://www.w3.org/1999/xlink" width="120" height="34" viewBox="0 0 120 34">
    <defs>
        <path id="a" d="M36.684 25.545s.828-2.377 1.538-4.396c.458.982.887 1.402.887 1.402 1.341 1.228 2.835 1.842 4.483 1.842 1.106 0 2.016-.163 2.733-.49.716-.328 1.075-.779 1.075-1.352 0-.972-.794-1.458-2.38-1.458-.43 0-1.07.051-1.92.153-.849.102-1.488.154-1.918.154-2.64 0-3.96-.947-3.96-2.84 0-.543.22-1.075.66-1.597.44-.522.951-.906 1.534-1.151-1.872-1.218-2.81-2.943-2.81-5.174 0-1.76.646-3.216 1.935-4.368 1.29-1.151 2.876-1.727 4.76-1.727 1.473 0 2.707.276 3.7.829l1.504-1.75 2.656 2.41-1.827 1.336c.634.962.952 2.098.952 3.408 0 1.873-.57 3.37-1.712 4.49-1.141 1.121-2.582 1.682-4.322 1.682-.276 0-.644-.026-1.105-.077l-.63-.092c-.071 0-.345.11-.82.33-.477.22-.715.448-.715.683 0 .41.353.614 1.06.614.317 0 .85-.077 1.596-.23.747-.154 1.387-.23 1.92-.23 3.735 0 5.603 1.499 5.603 4.498 0 1.658-.747 2.96-2.242 3.907-1.494.946-3.295 1.42-5.404 1.42-2.517 0-4.795-.742-6.831-2.226zM28.079 10.2l3.814-5.288h4.568l-6.098 8.454 6.098 8.455h-4.568l-3.814-5.288-3.813 5.288h-4.568l6.098-8.455-6.098-8.454h4.568l3.813 5.288zM5.83.079V4.91h5.656l-1.073 3.133H5.829v7.31c0 1.195.187 2.04.562 2.533.374.493 1.028.74 1.963.74.936 0 1.808-.254 2.62-.764v3.585c-.905.312-2.194.468-3.866.468-1.663 0-2.941-.47-3.835-1.41-.894-.94-1.34-2.279-1.34-4.014V8.044H0V4.91h1.933V1.513L5.829.079zm7.18 4.834h5.072v16.909h-3.995V8.044h-2.163l1.087-3.131zm50.263 0h3.882v16.939h-3.882V20.16c-.549.465-1.304.864-2.267 1.195-.962.331-1.847.497-2.655.497-3.86 0-5.791-2.05-5.791-6.149V4.913h3.882v10.495c0 2.133.957 3.199 2.872 3.199.88 0 1.697-.228 2.453-.683.755-.456 1.258-.984 1.506-1.584V4.913zm28.817 0h3.882v16.939H92.09V20.16c-.548.465-1.304.864-2.267 1.195-.962.331-1.847.497-2.654.497-3.861 0-5.792-2.05-5.792-6.149V4.913h3.882v10.495c0 2.133.957 3.199 2.872 3.199.88 0 1.698-.228 2.453-.683.756-.456 1.258-.984 1.506-1.584V4.913zM72.62 6.46c1.105-1.242 2.574-1.863 4.405-1.863 1.102 0 1.989.14 2.668.414l-1.257 3.575a4.141 4.141 0 0 0-2.31-.69c-.917 0-1.73.416-2.44 1.248-.71.831-1.066 1.847-1.066 3.047v9.63h-3.947V4.914h3.947V6.46zm-31.291 6.534c.537.589 1.261.883 2.172.883.91 0 1.612-.286 2.103-.86.492-.573.737-1.36.737-2.364 0-.829-.263-1.53-.79-2.103-.528-.573-1.21-.86-2.05-.86-.88 0-1.596.277-2.15.83-.552.552-.828 1.263-.828 2.133 0 .973.268 1.753.806 2.341z"/>
    </defs>
    <use fill="#FFF" fill-rule="evenodd" transform="translate(12 3)" xlink:href="#a"/>
</svg>
