<svg xmlns="http://www.w3.org/2000/svg" width="14" height="14" viewBox="0 0 14 14">
    <g fill="#FF001F" fill-rule="evenodd">
        <path d="M8.105 12.895a1.105 1.105 0 1 1-2.21 0 1.105 1.105 0 0 1 2.21 0M8.105 9.947a1.105 1.105 0 1 1-2.21 0 1.105 1.105 0 0 1 2.21 0M11.053 9.947a1.105 1.105 0 1 1-2.21 0 1.105 1.105 0 0 1 2.21 0M5.158 9.947a1.105 1.105 0 1 1-2.21 0 1.105 1.105 0 0 1 2.21 0M8.105 7a1.105 1.105 0 1 1-2.21 0 1.105 1.105 0 0 1 2.21 0M11.053 7a1.105 1.105 0 1 1-2.21 0 1.105 1.105 0 0 1 2.21 0M14 7a1.105 1.105 0 1 1-2.21 0A1.105 1.105 0 0 1 14 7M5.158 7a1.105 1.105 0 1 1-2.21 0 1.105 1.105 0 0 1 2.21 0M2.21 7A1.105 1.105 0 1 1 0 7a1.105 1.105 0 0 1 2.21 0M8.105 4.053a1.105 1.105 0 1 1-2.21 0 1.105 1.105 0 0 1 2.21 0M8.105 1.105a1.105 1.105 0 1 1-2.21 0 1.105 1.105 0 0 1 2.21 0"/>
    </g>
</svg>
