<svg xmlns="http://www.w3.org/2000/svg" width="14" height="9" viewBox="0 0 14 9">
    <g fill="#FF001F" fill-rule="evenodd">
        <path d="M8.105 7.895a1.105 1.105 0 1 1-2.21 0 1.105 1.105 0 0 1 2.21 0M8.105 4.947a1.105 1.105 0 1 1-2.21 0 1.105 1.105 0 0 1 2.21 0M11.053 4.947a1.105 1.105 0 1 1-2.21 0 1.105 1.105 0 0 1 2.21 0M5.158 4.947a1.105 1.105 0 1 1-2.21 0 1.105 1.105 0 0 1 2.21 0M8.105 2a1.105 1.105 0 1 1-2.21 0 1.105 1.105 0 0 1 2.21 0M11.053 2a1.105 1.105 0 1 1-2.21 0 1.105 1.105 0 0 1 2.21 0M14 2a1.105 1.105 0 1 1-2.21 0A1.105 1.105 0 0 1 14 2M5.158 2a1.105 1.105 0 1 1-2.21 0 1.105 1.105 0 0 1 2.21 0M2.21 2A1.105 1.105 0 1 1 0 2a1.105 1.105 0 0 1 2.21 0"/>
    </g>
</svg>
